Radio_CanadaDisplay-Medium.ufo
<glyph name="exclam" format="2">
  <advance width="270"/>
  <unicode hex="0021"/>
  <outline>
    <contour>
      <point x="135" y="-10" type="curve" smooth="yes"/>
      <point x="173" y="-10"/>
      <point x="200" y="18"/>
      <point x="200" y="56" type="curve" smooth="yes"/>
      <point x="200" y="95"/>
      <point x="173" y="123"/>
      <point x="135" y="123" type="curve" smooth="yes"/>
      <point x="97" y="123"/>
      <point x="70" y="95"/>
      <point x="70" y="56" type="curve" smooth="yes"/>
      <point x="70" y="18"/>
      <point x="97" y="-10"/>
    </contour>
    <contour>
      <point x="83" y="690" type="line"/>
      <point x="83" y="478" type="line"/>
      <point x="104" y="227" type="line"/>
      <point x="166" y="227" type="line"/>
      <point x="188" y="478" type="line"/>
      <point x="188" y="690" type="line"/>
    </contour>
  </outline>
</glyph>
<glyph name="quotedbl" format="2">
  <advance width="362"/>
  <unicode hex="0022"/>
  <outline>
    <contour>
      <point x="44" y="690" type="line"/>
      <point x="66" y="417" type="line"/>
      <point x="136" y="417" type="line"/>
      <point x="158" y="690" type="line"/>
    </contour>
    <contour>
      <point x="204" y="690" type="line"/>
      <point x="226" y="417" type="line"/>
      <point x="296" y="417" type="line"/>
      <point x="318" y="690" type="line"/>
    </contour>
  </outline>
</glyph>
<glyph name="numbersign" format="2">
  <advance width="624"/>
  <unicode hex="0023"/>
  <outline>
    <contour>
      <point x="66" y="0" type="line"/>
      <point x="158" y="0" type="line"/>
      <point x="314" y="690" type="line"/>
      <point x="222" y="690" type="line"/>
    </contour>
    <contour>
      <point x="306" y="0" type="line"/>
      <point x="398" y="0" type="line"/>
      <point x="554" y="690" type="line"/>
      <point x="462" y="690" type="line"/>
    </contour>
    <contour>
      <point x="73" y="514" type="line"/>
      <point x="73" y="428" type="line"/>
      <point x="604" y="428" type="line"/>
      <point x="604" y="514" type="line"/>
    </contour>
    <contour>
      <point x="20" y="278" type="line"/>
      <point x="20" y="192" type="line"/>
      <point x="551" y="192" type="line"/>
      <point x="551" y="278" type="line"/>
    </contour>
  </outline>
</glyph>
<glyph name="ampersand" format="2">
  <advance width="591"/>
  <unicode hex="0026"/>
  <outline>
    <contour>
      <point x="453.0" y="0.0" type="line"/>
      <point x="175.0" y="331" type="line" smooth="yes"/>
      <point x="108.0" y="411"/>
      <point x="75.0" y="463"/>
      <point x="75.0" y="525.0" type="curve"/>
      <point x="75.0" y="616"/>
      <point x="147.0" y="700.0"/>
      <point x="264.0" y="700.0" type="curve"/>
      <point x="370.0" y="700.0"/>
      <point x="444.0" y="624"/>
      <point x="444.0" y="539.0" type="curve"/>
      <point x="444.0" y="337.0"/>
      <point x="125.0" y="347.0"/>
      <point x="125.0" y="171.0" type="curve"/>
      <point x="125.0" y="118.0"/>
      <point x="164.0" y="80.0"/>
      <point x="243.0" y="80" type="curve"/>
      <point x="367.0" y="80.0"/>
      <point x="457.0" y="180.0"/>
      <point x="476.0" y="339.0" type="curve"/>
      <point x="570.0" y="323.0" type="line"/>
      <point x="538.0" y="115.0"/>
      <point x="405.0" y="-10.0"/>
      <point x="238.0" y="-10" type="curve"/>
      <point x="97.0" y="-10.0"/>
      <point x="22.0" y="68"/>
      <point x="22.0" y="159.0" type="curve"/>
      <point x="22.0" y="384.0"/>
      <point x="345.0" y="378.0"/>
      <point x="345.0" y="534.0" type="curve"/>
      <point x="345.0" y="578"/>
      <point x="310.0" y="613.0"/>
      <point x="262.0" y="613.0" type="curve"/>
      <point x="210.0" y="613.0"/>
      <point x="175.0" y="578"/>
      <point x="175.0" y="530.0" type="curve"/>
      <point x="175.0" y="488"/>
      <point x="190.0" y="461"/>
      <point x="228.0" y="417" type="curve" smooth="yes"/>
      <point x="581.0" y="0.0" type="line"/>
    </contour>
  </outline>
</glyph>
<glyph name="quotesingle" format="2">
  <advance width="202"/>
  <unicode hex="0027"/>
  <outline>
    <contour>
      <point x="44" y="690" type="line"/>
      <point x="66" y="417" type="line"/>
      <point x="136" y="417" type="line"/>
      <point x="158" y="690" type="line"/>
    </contour>
  </outline>
</glyph>
<glyph name="parenright" format="2">
  <advance width="324"/>
  <unicode hex="0029"/>
  <outline>
    <contour>
      <point x="155.0" y="325.0" type="curve"/>
      <point x="155.0" y="110.49999999999997"/>
      <point x="74.99999999999999" y="-8.450000000000003"/>
      <point x="-20.0" y="-65.0" type="curve"/>
      <point x="14.0" y="-130.0" type="line"/>
      <point x="162.0" y="-63.0"/>
      <point x="254.0" y="86.0"/>
      <point x="254.0" y="325.0" type="curve"/>
      <point x="254.0" y="564.0"/>
      <point x="162.0" y="713.0"/>
      <point x="14.0" y="780.0" type="curve"/>
      <point x="-20.0" y="715.0" type="line"/>
      <point x="74.99999999999999" y="658.45"/>
      <point x="155.0" y="539.5"/>
    </contour>
  </outline>
</glyph>
<glyph name="hyphen" format="2">
  <advance width="375"/>
  <unicode hex="002D"/>
  <outline>
    <contour>
      <point x="60" y="346" type="line"/>
      <point x="60" y="261" type="line"/>
      <point x="315" y="261" type="line"/>
      <point x="315" y="346" type="line"/>
    </contour>
  </outline>
</glyph>
<glyph name="zero" format="2">
  <advance width="611"/>
  <unicode hex="0030"/>
  <outline>
    <contour>
      <point x="305.0" y="-10.0" type="curve" smooth="yes"/>
      <point x="463.01851851851853" y="-10.0"/>
      <point x="566.0" y="113.0"/>
      <point x="566.0" y="345.0" type="curve" smooth="yes"/>
      <point x="566.0" y="578.0"/>
      <point x="463.01851851851853" y="700.0"/>
      <point x="305.0" y="700.0" type="curve" smooth="yes"/>
      <point x="147.9739776951673" y="700.0"/>
      <point x="45.0" y="578.0"/>
      <point x="45.0" y="345.0" type="curve" smooth="yes"/>
      <point x="45.0" y="113.0"/>
      <point x="147.9739776951673" y="-10.0"/>
    </contour>
    <contour>
      <point x="305.0" y="87.0" type="curve" smooth="yes"/>
      <point x="210.0625" y="87.0"/>
      <point x="154.0" y="163"/>
      <point x="154.0" y="345.0" type="curve" smooth="yes"/>
      <point x="154.0" y="528"/>
      <point x="210.0625" y="603.0"/>
      <point x="305.0" y="603.0" type="curve" smooth="yes"/>
      <point x="400.92546583850935" y="603.0"/>
      <point x="457.0" y="528"/>
      <point x="457.0" y="345.0" type="curve" smooth="yes"/>
      <point x="457.0" y="163"/>
      <point x="400.92546583850935" y="87.0"/>
    </contour>
  </outline>
</glyph>
<glyph name="one" format="2">
  <advance width="350"/>
  <unicode hex="0031"/>
  <outline>
    <contour>
      <point x="145.0" y="0" type="line"/>
      <point x="250.0" y="0" type="line"/>
      <point x="250.0" y="690" type="line"/>
      <point x="170.0" y="690" type="line"/>
      <point x="145.0" y="572" type="line"/>
    </contour>
    <contour>
      <point x="22.0" y="499.0" type="line"/>
      <point x="196.0" y="499.0" type="line"/>
      <point x="170.0" y="690.0" type="line"/>
      <point x="152.0" y="608"/>
      <point x="115.0" y="584"/>
      <point x="22.0" y="575.0" type="curve"/>
    </contour>
  </outline>
</glyph>
<glyph name="three" format="2">
  <advance width="572"/>
  <unicode hex="0033"/>
  <outline>
    <contour>
      <point x="54.0" y="690.0" type="line"/>
      <point x="54.0" y="590.0" type="line"/>
      <point x="433.0" y="590.0" type="line"/>
      <point x="513.0" y="623.0" type="line"/>
      <point x="513.0" y="690.0" type="line"/>
    </contour>
    <contour>
      <point x="284.0" y="414.0" type="curve"/>
      <point x="271.0" y="381" type="line"/>
      <point x="513.0" y="623.0" type="line"/>
      <point x="398.0" y="638.0" type="line"/>
      <point x="189.0" y="417.0" type="line"/>
      <point x="189.0" y="352.0" type="line"/>
      <point x="266.0" y="352.0" type="line"/>
      <point x="371" y="352.0"/>
      <point x="418.0" y="300"/>
      <point x="418.0" y="217.0" type="curve"/>
      <point x="418.0" y="143.56338028169012"/>
      <point x="370" y="85.0"/>
      <point x="282.0" y="85.0" type="curve"/>
      <point x="202" y="85.0"/>
      <point x="148.33333333333331" y="129.22727272727275"/>
      <point x="139.0" y="224.0" type="curve"/>
      <point x="35.0" y="201.0" type="line"/>
      <point x="56.15057915057915" y="63.0"/>
      <point x="151" y="-10.0"/>
      <point x="283.0" y="-10.0" type="curve"/>
      <point x="437" y="-10.0"/>
      <point x="527.0" y="90.14912280701753"/>
      <point x="527.0" y="223.0" type="curve"/>
      <point x="527.0" y="347.963133640553"/>
      <point x="439" y="428.0"/>
      <point x="338.0" y="428.0" type="curve"/>
      <point x="316.0" y="428.0"/>
      <point x="302.0" y="425"/>
    </contour>
  </outline>
</glyph>
<glyph name="five" format="2">
  <advance width="582"/>
  <unicode hex="0035"/>
  <outline>
    <contour>
      <point x="60" y="304" type="line"/>
      <point x="138" y="304" type="line"/>
      <point x="161.32214765100673" y="342.0"/>
      <point x="210.76510067114094" y="375.0"/>
      <point x="277.0" y="375.0" type="curve"/>
      <point x="371.75496688741714" y="375.0"/>
      <point x="423.0" y="309.0"/>
      <point x="423.0" y="223.0" type="curve"/>
      <point x="423.0" y="143.6274509803922"/>
      <point x="366.97350993377484" y="85.0"/>
      <point x="282.0" y="85.0" type="curve"/>
      <point x="208.7536231884058" y="85.0"/>
      <point x="158.2833546462063" y="128.5149253731343"/>
      <point x="149" y="204" type="curve"/>
      <point x="45" y="181" type="line"/>
      <point x="66.10390380218477" y="63.0"/>
      <point x="158.59336099585062" y="-10.0"/>
      <point x="281.0" y="-10.0" type="curve"/>
      <point x="433.9080459770115" y="-10.0"/>
      <point x="532.0" y="90.0"/>
      <point x="532.0" y="229.0" type="curve"/>
      <point x="532.0" y="365.9130434782609"/>
      <point x="436.1212121212121" y="464.0"/>
      <point x="306.0" y="464.0" type="curve"/>
      <point x="221.7849462365591" y="464.0"/>
      <point x="158.38709677419354" y="416.099173553719"/>
      <point x="130.0" y="338.0" type="curve"/>
      <point x="147" y="338" type="line"/>
      <point x="179" y="638" type="line"/>
      <point x="134" y="590" type="line"/>
      <point x="502.0" y="590.0" type="line"/>
      <point x="502.0" y="690.0" type="line"/>
      <point x="94" y="690" type="line"/>
    </contour>
  </outline>
</glyph>
<glyph name="seven" format="2">
  <advance width="535"/>
  <unicode hex="0037"/>
  <outline>
    <contour>
      <point x="20" y="690" type="line"/>
      <point x="20" y="590" type="line"/>
      <point x="440.0" y="590.0" type="line"/>
      <point x="510.0" y="638.0" type="line"/>
      <point x="510.0" y="690.0" type="line"/>
    </contour>
    <contour>
      <point x="165" y="0" type="curve"/>
      <point x="284" y="0" type="line"/>
      <point x="285" y="212.0"/>
      <point x="343.66519823788553" y="415.0"/>
      <point x="510.0" y="638.0" type="curve"/>
      <point x="397.0" y="638.0" type="line"/>
      <point x="248.65236051502143" y="426.0"/>
      <point x="176" y="212.0"/>
    </contour>
  </outline>
</glyph>
<glyph name="eight" format="2">
  <advance width="569"/>
  <unicode hex="0038"/>
  <outline>
    <contour>
      <point x="284.0" y="-10.0" type="curve" smooth="yes"/>
      <point x="442.0074074074074" y="-10.0"/>
      <point x="534.0" y="73.0"/>
      <point x="534.0" y="191.0" type="curve"/>
      <point x="534.0" y="304.0"/>
      <point x="437.2481481481482" y="385.0"/>
      <point x="284.0" y="385.0" type="curve" smooth="yes"/>
      <point x="131.73234200743494" y="385.0"/>
      <point x="35.0" y="304.0"/>
      <point x="35.0" y="191.0" type="curve"/>
      <point x="35.0" y="73.0"/>
      <point x="126.97397769516729" y="-10.0"/>
    </contour>
    <contour>
      <point x="284.0" y="81.0" type="curve" smooth="yes"/>
      <point x="186" y="81.0"/>
      <point x="141.0" y="130"/>
      <point x="141.0" y="196.0" type="curve"/>
      <point x="141.0" y="271"/>
      <point x="192.125" y="319.0"/>
      <point x="284.0" y="319.0" type="curve" smooth="yes"/>
      <point x="376.8509316770187" y="319.0"/>
      <point x="428.0" y="271"/>
      <point x="428.0" y="196.0" type="curve"/>
      <point x="428.0" y="130"/>
      <point x="383" y="81.0"/>
    </contour>
    <contour>
      <point x="284.0" y="350.0" type="curve" smooth="yes"/>
      <point x="425.25199999999995" y="350.0"/>
      <point x="519.0" y="418.0"/>
      <point x="519.0" y="517.0" type="curve" smooth="yes"/>
      <point x="519.0" y="628.0"/>
      <point x="425.25199999999995" y="700.0"/>
      <point x="284.0" y="700.0" type="curve" smooth="yes"/>
      <point x="143.7269076305221" y="700.0"/>
      <point x="50.0" y="628.0"/>
      <point x="50.0" y="517.0" type="curve" smooth="yes"/>
      <point x="50.0" y="418.0"/>
      <point x="143.7269076305221" y="350.0"/>
    </contour>
    <contour>
      <point x="284.0" y="407.0" type="curve" smooth="yes"/>
      <point x="204.1428571428571" y="407.0"/>
      <point x="156.0" y="450"/>
      <point x="156.0" y="512.0" type="curve" smooth="yes"/>
      <point x="156.0" y="570"/>
      <point x="204.0" y="609.0"/>
      <point x="284.0" y="609.0" type="curve" smooth="yes"/>
      <point x="365" y="609.0"/>
      <point x="413.0" y="570"/>
      <point x="413.0" y="512.0" type="curve" smooth="yes"/>
      <point x="413.0" y="450"/>
      <point x="364.82978723404256" y="407.0"/>
    </contour>
  </outline>
</glyph>
<glyph name="nine" format="2">
  <advance width="587"/>
  <unicode hex="0039"/>
  <outline>
    <contour>
      <point x="430.0" y="404.0" type="line"/>
      <point x="432.0" y="383.0"/>
      <point x="433.0" y="359.0"/>
      <point x="433.0" y="325.0" type="curve"/>
      <point x="433.0" y="160.0"/>
      <point x="371" y="85.0"/>
      <point x="273.0" y="85" type="curve"/>
      <point x="210" y="85.0"/>
      <point x="162.16666666666666" y="117.0"/>
      <point x="140.0" y="175.0" type="curve"/>
      <point x="48.0" y="131.0" type="line"/>
      <point x="82.20814479638008" y="38.999999999999986"/>
      <point x="164.30769230769232" y="-10.0"/>
      <point x="264.0" y="-10" type="curve"/>
      <point x="437.8727915194346" y="-10.0"/>
      <point x="542.0" y="120.0"/>
      <point x="542.0" y="365.0" type="curve"/>
      <point x="542.0" y="594.0"/>
      <point x="435" y="700.0"/>
      <point x="281.0" y="700" type="curve"/>
      <point x="130.06772908366534" y="700.0"/>
      <point x="35.0" y="602.0"/>
      <point x="35.0" y="472.0" type="curve"/>
      <point x="35.0" y="338.0"/>
      <point x="134" y="253.0"/>
      <point x="251.0" y="253" type="curve"/>
      <point x="353" y="253.0"/>
      <point x="437" y="311.0"/>
      <point x="444.0" y="429.0" type="curve"/>
    </contour>
    <contour>
      <point x="284.0" y="346" type="curve"/>
      <point x="193" y="346.0"/>
      <point x="144.0" y="401.0"/>
      <point x="144.0" y="478.0" type="curve"/>
      <point x="144.0" y="546.0"/>
      <point x="195" y="605.0"/>
      <point x="279.0" y="605" type="curve"/>
      <point x="363" y="605.0"/>
      <point x="424.0" y="547.0"/>
      <point x="424.0" y="472.0" type="curve"/>
      <point x="424.0" y="403.0"/>
      <point x="365" y="346.0"/>
    </contour>
  </outline>
</glyph>
<glyph name="colon" format="2">
  <advance width="220"/>
  <unicode hex="003A"/>
  <outline>
    <contour>
      <point x="110.0" y="-10.0" type="curve" smooth="yes"/>
      <point x="147.82258064516128" y="-10.0"/>
      <point x="175.0" y="18"/>
      <point x="175.0" y="56.0" type="curve" smooth="yes"/>
      <point x="175.0" y="95"/>
      <point x="147.82258064516128" y="123.0"/>
      <point x="110.0" y="123.0" type="curve" smooth="yes"/>
      <point x="72.1774193548387" y="123.0"/>
      <point x="45.0" y="95"/>
      <point x="45.0" y="56.0" type="curve" smooth="yes"/>
      <point x="45.0" y="18"/>
      <point x="72.1774193548387" y="-10.0"/>
    </contour>
    <contour>
      <point x="110.0" y="407.0" type="curve" smooth="yes"/>
      <point x="148" y="407.0"/>
      <point x="175.0" y="435"/>
      <point x="175.0" y="473.0" type="curve" smooth="yes"/>
      <point x="175.0" y="512"/>
      <point x="148" y="540.0"/>
      <point x="110.0" y="540.0" type="curve" smooth="yes"/>
      <point x="72" y="540.0"/>
      <point x="45.0" y="512"/>
      <point x="45.0" y="473.0" type="curve" smooth="yes"/>
      <point x="45.0" y="435"/>
      <point x="72" y="407.0"/>
    </contour>
  </outline>
</glyph>
<glyph name="semicolon" format="2">
  <advance width="220"/>
  <unicode hex="003B"/>
  <outline>
    <contour>
      <point x="110" y="407" type="curve" smooth="yes"/>
      <point x="148" y="407"/>
      <point x="175" y="435"/>
      <point x="175" y="473" type="curve" smooth="yes"/>
      <point x="175" y="512"/>
      <point x="148" y="540"/>
      <point x="110" y="540" type="curve" smooth="yes"/>
      <point x="72" y="540"/>
      <point x="45" y="512"/>
      <point x="45" y="473" type="curve" smooth="yes"/>
      <point x="45" y="435"/>
      <point x="72" y="407"/>
    </contour>
    <contour>
      <point x="54" y="113" type="line"/>
      <point x="54" y="-160" type="line"/>
      <point x="124" y="-160" type="line"/>
      <point x="168" y="113" type="line"/>
    </contour>
  </outline>
</glyph>
<glyph name="less" format="2">
  <advance width="533"/>
  <unicode hex="003C"/>
  <outline>
    <contour>
      <point x="55" y="345" type="line"/>
      <point x="55" y="261" type="line"/>
      <point x="161" y="304" type="line"/>
      <point x="468" y="423" type="line"/>
      <point x="468" y="513" type="line"/>
    </contour>
    <contour>
      <point x="468" y="93" type="line"/>
      <point x="468" y="185" type="line"/>
      <point x="161" y="304" type="line"/>
      <point x="55" y="345" type="line"/>
      <point x="55" y="261" type="line"/>
    </contour>
  </outline>
</glyph>
<glyph name="equal" format="2">
  <advance width="533"/>
  <unicode hex="003D"/>
  <outline>
    <contour>
      <point x="60" y="444" type="line"/>
      <point x="60" y="363" type="line"/>
      <point x="473" y="363" type="line"/>
      <point x="473" y="444" type="line"/>
    </contour>
    <contour>
      <point x="60" y="244" type="line"/>
      <point x="60" y="163" type="line"/>
      <point x="473" y="163" type="line"/>
      <point x="473" y="244" type="line"/>
    </contour>
  </outline>
</glyph>
<glyph name="greater" format="2">
  <advance width="533"/>
  <unicode hex="003E"/>
  <outline>
    <contour>
      <point x="478" y="261" type="line"/>
      <point x="478" y="345" type="line"/>
      <point x="372" y="302" type="line"/>
      <point x="65" y="183" type="line"/>
      <point x="65" y="93" type="line"/>
    </contour>
    <contour>
      <point x="65" y="513" type="line"/>
      <point x="65" y="421" type="line"/>
      <point x="372" y="302" type="line"/>
      <point x="478" y="261" type="line"/>
      <point x="478" y="345" type="line"/>
    </contour>
  </outline>
</glyph>
<glyph name="at" format="2">
  <advance width="894"/>
  <unicode hex="0040"/>
  <outline>
    <contour>
      <point x="444.0" y="412.0" type="curve"/>
      <point x="509.18518518518533" y="412.0"/>
      <point x="554.0" y="367.97461928934"/>
      <point x="554.0" y="265.0" type="curve"/>
      <point x="554.0" y="162.02538071065993"/>
      <point x="509.18518518518533" y="118.0"/>
      <point x="444.0" y="118.0" type="curve"/>
      <point x="378.8148148148148" y="118.0"/>
      <point x="334.0" y="162.02538071065993"/>
      <point x="334.0" y="265.0" type="curve"/>
      <point x="334.0" y="367.97461928934"/>
      <point x="378.8148148148148" y="412.0"/>
    </contour>
    <contour>
      <point x="577.0" y="221.0" type="curve"/>
      <point x="577.0" y="309.0" type="line"/>
      <point x="577.0" y="430.5454545454545"/>
      <point x="512.9462365591398" y="500.0"/>
      <point x="416.0" y="500.0" type="curve"/>
      <point x="307.5734597156398" y="500.0"/>
      <point x="230.0" y="411.9818181818182"/>
      <point x="230.0" y="265.0" type="curve"/>
      <point x="230.0" y="118.0181818181818"/>
      <point x="307.5734597156398" y="30.0"/>
      <point x="416.0" y="30.0" type="curve"/>
      <point x="512.9462365591398" y="30.0"/>
      <point x="577.0" y="99.45454545454548"/>
    </contour>
    <contour>
      <point x="764.0" y="285.0" type="curve"/>
      <point x="764.0" y="124.82499999999999"/>
      <point x="731" y="70.0"/>
      <point x="695.0" y="70.0" type="curve"/>
      <point x="667" y="70.0"/>
      <point x="649.0" y="89.0"/>
      <point x="649.0" y="157.0" type="curve"/>
      <point x="649.0" y="490.0" type="line"/>
      <point x="549.0" y="490.0" type="line"/>
      <point x="549.0" y="367.0" type="line"/>
      <point x="564.0" y="265.0" type="line"/>
      <point x="549.0" y="162.0" type="line"/>
      <point x="551.0" y="128.0" type="line" smooth="yes"/>
      <point x="555.0" y="54.0"/>
      <point x="603.0" y="-10.0"/>
      <point x="687.0" y="-10.0" type="curve"/>
      <point x="789.0" y="-10.0"/>
      <point x="854.0" y="83.76785714285714"/>
      <point x="854.0" y="285.0" type="curve"/>
      <point x="854.0" y="534.0"/>
      <point x="697" y="700.0"/>
      <point x="456.0" y="700.0" type="curve"/>
      <point x="219.0" y="700.0"/>
      <point x="40.0" y="526"/>
      <point x="40.0" y="265.0" type="curve" smooth="yes"/>
      <point x="40.0" y="19"/>
      <point x="196.7963446475196" y="-149.0"/>
      <point x="413.0" y="-149.0" type="curve"/>
      <point x="487.0" y="-149.0"/>
      <point x="556.0" y="-129.0"/>
      <point x="611.0" y="-95.0" type="curve"/>
      <point x="572.0" y="-26.0" type="line"/>
      <point x="527.0" y="-54.0"/>
      <point x="480.0" y="-69.0"/>
      <point x="413.0" y="-69.0" type="curve"/>
      <point x="246.8703071672355" y="-69.0"/>
      <point x="130.0" y="63"/>
      <point x="130.0" y="265.0" type="curve" smooth="yes"/>
      <point x="130.0" y="482"/>
      <point x="269.0" y="620.0"/>
      <point x="456.0" y="620.0" type="curve"/>
      <point x="647" y="620.0"/>
      <point x="764.0" y="489.82857142857154"/>
    </contour>
  </outline>
</glyph>
<glyph name="A" format="2">
  <advance width="660"/>
  <unicode hex="0041"/>
  <anchor x="331" y="690" name="top"/>
  <anchor x="331" y="0" name="bottom"/>
  <outline>
    <contour>
      <point x="146" y="287" type="line"/>
      <point x="146" y="191" type="line"/>
      <point x="514" y="191" type="line"/>
      <point x="514" y="287" type="line"/>
    </contour>
    <contour>
      <point x="406" y="690" type="line"/>
      <point x="304" y="690" type="line"/>
      <point x="535" y="0" type="line"/>
      <point x="645" y="0" type="line"/>
    </contour>
    <contour>
      <point x="348" y="690" type="line"/>
      <point x="254" y="690" type="line"/>
      <point x="15" y="0" type="line"/>
      <point x="122" y="0" type="line"/>
    </contour>
  </outline>
</glyph>
<glyph name="B" format="2">
  <advance width="623"/>
  <unicode hex="0042"/>
  <outline>
    <contour>
      <point x="75" y="0" type="line"/>
      <point x="180" y="0" type="line"/>
      <point x="180" y="690" type="line"/>
      <point x="75" y="690" type="line"/>
    </contour>
    <contour>
      <point x="341.0" y="344.0" type="line"/>
      <point x="487" y="344.0"/>
      <point x="564" y="414"/>
      <point x="564.0" y="510.0" type="curve" smooth="yes"/>
      <point x="564" y="615"/>
      <point x="477" y="690.0"/>
      <point x="346.0" y="690.0" type="curve"/>
      <point x="125" y="690" type="line"/>
      <point x="125.0" y="597.0" type="line"/>
      <point x="331.0" y="597.0" type="line"/>
      <point x="418.0" y="597.0"/>
      <point x="459.0" y="559"/>
      <point x="459.0" y="501.0" type="curve"/>
      <point x="459.0" y="442"/>
      <point x="417.0" y="399.0"/>
      <point x="331.0" y="399.0" type="curve"/>
      <point x="125.0" y="399.0" type="line"/>
      <point x="125.0" y="344.0" type="line"/>
    </contour>
    <contour>
      <point x="352.0" y="0.0" type="line"/>
      <point x="500" y="0.0"/>
      <point x="589.0" y="78"/>
      <point x="589.0" y="193.0" type="curve"/>
      <point x="589.0" y="305"/>
      <point x="501.0" y="381.0"/>
      <point x="346.0" y="381.0" type="curve"/>
      <point x="125.0" y="381.0" type="line"/>
      <point x="125.0" y="313.0" type="line"/>
      <point x="336.0" y="313.0" type="line"/>
      <point x="439.0" y="313.0"/>
      <point x="481.0" y="272"/>
      <point x="481.0" y="202.0" type="curve"/>
      <point x="481.0" y="135"/>
      <point x="439.0" y="93.0"/>
      <point x="336.0" y="93.0" type="curve"/>
      <point x="125.0" y="93.0" type="line"/>
      <point x="125.0" y="0.0" type="line"/>
    </contour>
  </outline>
</glyph>
<glyph name="C" format="2">
  <advance width="667"/>
  <unicode hex="0043"/>
  <anchor x="345" y="0" name="bottom"/>
  <anchor x="345" y="690" name="top"/>
  <outline>
    <contour>
      <point x="342.0" y="87.0" type="curve"/>
      <point x="228.0" y="87.0"/>
      <point x="153" y="179"/>
      <point x="153" y="345" type="curve" smooth="yes"/>
      <point x="153" y="512"/>
      <point x="228.0" y="603.0"/>
      <point x="342.0" y="603.0" type="curve"/>
      <point x="438.0" y="603.0"/>
      <point x="500.0" y="553.4242424242425"/>
      <point x="520" y="455" type="curve"/>
      <point x="624" y="483" type="line"/>
      <point x="591" y="623"/>
      <point x="486" y="700"/>
      <point x="345" y="700" type="curve"/>
      <point x="167" y="700"/>
      <point x="44" y="566"/>
      <point x="44" y="345" type="curve" smooth="yes"/>
      <point x="44" y="125"/>
      <point x="167" y="-10"/>
      <point x="345" y="-10" type="curve"/>
      <point x="486" y="-10"/>
      <point x="591" y="67"/>
      <point x="628" y="209" type="curve"/>
      <point x="524" y="237" type="line"/>
      <point x="500.0" y="136.65269461077844"/>
      <point x="441.0" y="87.0"/>
    </contour>
  </outline>
</glyph>
<glyph name="D" format="2">
  <advance width="678"/>
  <unicode hex="0044"/>
  <anchor x="328" y="690" name="top"/>
  <outline>
    <contour>
      <point x="75" y="0" type="line"/>
      <point x="180" y="0" type="line"/>
      <point x="180" y="690" type="line"/>
      <point x="75" y="690" type="line"/>
    </contour>
    <contour>
      <point x="309.0" y="0.0" type="line"/>
      <point x="511.0" y="0.0"/>
      <point x="634.0" y="131"/>
      <point x="634" y="345" type="curve" smooth="yes"/>
      <point x="634.0" y="560"/>
      <point x="511.0" y="690.0"/>
      <point x="309.0" y="690.0" type="curve"/>
      <point x="125" y="690" type="line"/>
      <point x="125.0" y="594.0" type="line"/>
      <point x="299.0" y="594.0" type="line"/>
      <point x="450.0" y="594.0"/>
      <point x="525.0" y="513.2432432432433"/>
      <point x="525.0" y="345.0" type="curve" smooth="yes"/>
      <point x="525.0" y="177.71814671814673"/>
      <point x="450.0" y="96.0"/>
      <point x="299.0" y="96.0" type="curve"/>
      <point x="125.0" y="96.0" type="line"/>
      <point x="125" y="0" type="line"/>
    </contour>
  </outline>
</glyph>
<glyph name="I" format="2">
  <advance width="255"/>
  <unicode hex="0049"/>
  <anchor x="128" y="690" name="top"/>
  <anchor x="128" y="0" name="bottom"/>
  <outline>
    <contour>
      <point x="75" y="0" type="line"/>
      <point x="180" y="0" type="line"/>
      <point x="180" y="690" type="line"/>
      <point x="75" y="690" type="line"/>
    </contour>
  </outline>
</glyph>
<glyph name="J" format="2">
  <advance width="560"/>
  <unicode hex="004A"/>
  <anchor x="436.0" y="690" name="top"/>
  <outline>
    <contour>
      <point x="21.0" y="209.0" type="line"/>
      <point x="41.14285714285714" y="67.0"/>
      <point x="128.42857142857144" y="-10.0"/>
      <point x="256.0" y="-10.0" type="curve"/>
      <point x="396.9754098360655" y="-10.0"/>
      <point x="490.0" y="86.0"/>
      <point x="490.0" y="237" type="curve"/>
      <point x="490.0" y="690" type="line"/>
      <point x="385.0" y="690" type="line"/>
      <point x="385.0" y="244" type="line"/>
      <point x="385.0" y="138.0"/>
      <point x="333.95683453237416" y="87.0"/>
      <point x="256.0" y="87.0" type="curve"/>
      <point x="180.70422535211264" y="87.0"/>
      <point x="137.01408450704224" y="136.375"/>
      <point x="124.0" y="230.0" type="curve"/>
    </contour>
  </outline>
</glyph>
<glyph name="M" format="2">
  <advance width="862"/>
  <unicode hex="004D"/>
  <outline>
    <contour>
      <point x="241" y="690" type="line"/>
      <point x="139" y="690" type="line"/>
      <point x="368" y="0" type="line"/>
      <point x="471" y="0" type="line"/>
    </contour>
    <contour>
      <point x="75" y="0" type="line"/>
      <point x="175" y="0" type="line"/>
      <point x="175" y="690" type="line"/>
      <point x="75" y="690" type="line"/>
    </contour>
    <contour>
      <point x="615" y="690" type="line"/>
      <point x="408" y="0" type="line"/>
      <point x="501" y="0" type="line"/>
      <point x="714" y="690" type="line"/>
    </contour>
    <contour>
      <point x="682" y="0" type="line"/>
      <point x="787" y="0" type="line"/>
      <point x="787" y="690" type="line"/>
      <point x="682" y="690" type="line"/>
    </contour>
  </outline>
</glyph>
<glyph name="N" format="2">
  <advance width="705"/>
  <unicode hex="004E"/>
  <anchor x="355" y="690" name="top"/>
  <anchor x="355" y="0" name="bottom"/>
  <outline>
    <contour>
      <point x="217" y="690" type="line"/>
      <point x="106" y="690" type="line"/>
      <point x="488" y="0" type="line"/>
      <point x="599" y="0" type="line"/>
    </contour>
    <contour>
      <point x="75" y="0" type="line"/>
      <point x="175" y="0" type="line"/>
      <point x="175" y="690" type="line"/>
      <point x="75" y="690" type="line"/>
    </contour>
    <contour>
      <point x="530" y="0" type="line"/>
      <point x="630" y="0" type="line"/>
      <point x="630" y="690" type="line"/>
      <point x="530" y="690" type="line"/>
    </contour>
  </outline>
</glyph>
<glyph name="O" format="2">
  <advance width="697"/>
  <unicode hex="004F"/>
  <anchor x="348" y="690" name="top"/>
  <anchor x="348" y="0" name="bottom"/>
  <outline>
    <contour>
      <point x="348" y="-10" type="curve" smooth="yes"/>
      <point x="530" y="-10"/>
      <point x="653" y="125"/>
      <point x="653" y="345" type="curve" smooth="yes"/>
      <point x="653" y="566"/>
      <point x="530" y="700"/>
      <point x="348" y="700" type="curve" smooth="yes"/>
      <point x="167" y="700"/>
      <point x="44" y="566"/>
      <point x="44" y="345" type="curve" smooth="yes"/>
      <point x="44" y="125"/>
      <point x="167" y="-10"/>
    </contour>
    <contour>
      <point x="348.0" y="87.0" type="curve" smooth="yes"/>
      <point x="228.0" y="87.0"/>
      <point x="153" y="179"/>
      <point x="153" y="345" type="curve" smooth="yes"/>
      <point x="153" y="512"/>
      <point x="228.0" y="603.0"/>
      <point x="348.0" y="603.0" type="curve" smooth="yes"/>
      <point x="469.0" y="603.0"/>
      <point x="544" y="512"/>
      <point x="544" y="345" type="curve" smooth="yes"/>
      <point x="544" y="179"/>
      <point x="469.0" y="87.0"/>
    </contour>
  </outline>
</glyph>
<glyph name="P" format="2">
  <advance width="613"/>
  <unicode hex="0050"/>
  <outline>
    <contour>
      <point x="75" y="0" type="line"/>
      <point x="180" y="0" type="line"/>
      <point x="180" y="690" type="line"/>
      <point x="75" y="690" type="line"/>
    </contour>
    <contour>
      <point x="329.0" y="240.0" type="line"/>
      <point x="483" y="240.0"/>
      <point x="584.0" y="325"/>
      <point x="584.0" y="465.0" type="curve" smooth="yes"/>
      <point x="584.0" y="605"/>
      <point x="483" y="690.0"/>
      <point x="329.0" y="690.0" type="curve"/>
      <point x="125" y="690" type="line"/>
      <point x="125.0" y="594.0" type="line"/>
      <point x="319.0" y="594.0" type="line"/>
      <point x="425.0" y="594.0"/>
      <point x="475.0" y="552.2374100719425"/>
      <point x="475.0" y="465.0" type="curve" smooth="yes"/>
      <point x="475.0" y="378.69064748201436"/>
      <point x="425.0" y="336.0"/>
      <point x="319.0" y="336.0" type="curve"/>
      <point x="125.0" y="336.0" type="line"/>
      <point x="125.0" y="240.0" type="line"/>
    </contour>
  </outline>
</glyph>
<glyph name="R" format="2">
  <advance width="619"/>
  <unicode hex="0052"/>
  <anchor x="324" y="690" name="top"/>
  <anchor x="324" y="0" name="bottom"/>
  <outline>
    <contour>
      <point x="466" y="0" type="line"/>
      <point x="589" y="0" type="line"/>
      <point x="394" y="299" type="line"/>
      <point x="279" y="299" type="line"/>
    </contour>
    <contour>
      <point x="75" y="0" type="line"/>
      <point x="180" y="0" type="line"/>
      <point x="180" y="690" type="line"/>
      <point x="75" y="690" type="line"/>
    </contour>
    <contour>
      <point x="329.0" y="260.0" type="line"/>
      <point x="476.9607843137255" y="260.0"/>
      <point x="574.0" y="341"/>
      <point x="574.0" y="475.0" type="curve" smooth="yes"/>
      <point x="574.0" y="609"/>
      <point x="477" y="690.0"/>
      <point x="329.0" y="690.0" type="curve"/>
      <point x="125" y="690" type="line"/>
      <point x="125.0" y="594.0" type="line"/>
      <point x="319.0" y="594.0" type="line"/>
      <point x="418.2051282051282" y="594.0"/>
      <point x="465.0" y="555.4748201438849"/>
      <point x="465.0" y="475.0" type="curve" smooth="yes"/>
      <point x="465.0" y="395.3812949640287"/>
      <point x="418.2051282051282" y="356.0"/>
      <point x="319.0" y="356.0" type="curve"/>
      <point x="125.0" y="356.0" type="line"/>
      <point x="125.0" y="260.0" type="line"/>
    </contour>
  </outline>
</glyph>
<glyph name="S" format="2">
  <advance width="592"/>
  <unicode hex="0053"/>
  <anchor x="294.0" y="690" name="top"/>
  <anchor x="294.0" y="0" name="bottom"/>
  <outline>
    <contour>
      <point x="553.0" y="184.0" type="curve"/>
      <point x="553.0" y="456.0"/>
      <point x="155.0" y="362.0"/>
      <point x="155.0" y="520.0" type="curve"/>
      <point x="155.0" y="568"/>
      <point x="194.0" y="607.0"/>
      <point x="284.0" y="607.0" type="curve"/>
      <point x="366.0" y="607.0"/>
      <point x="420.0" y="572.3333333333333"/>
      <point x="446.0" y="499.0" type="curve"/>
      <point x="546.0" y="532.0" type="line"/>
      <point x="511.0" y="637"/>
      <point x="422.0" y="700.0"/>
      <point x="293.0" y="700.0" type="curve"/>
      <point x="136.0" y="700.0"/>
      <point x="50.0" y="615"/>
      <point x="50.0" y="509.0" type="curve"/>
      <point x="50.0" y="257.0"/>
      <point x="447.0" y="357.0"/>
      <point x="447.0" y="174.0" type="curve"/>
      <point x="447.0" y="119"/>
      <point x="391.0" y="83.0"/>
      <point x="302.0" y="83.0" type="curve"/>
      <point x="211.0" y="83.0"/>
      <point x="156.0" y="119.64"/>
      <point x="131.0" y="196.0" type="curve"/>
      <point x="28.0" y="163.0" type="line"/>
      <point x="64.0" y="55"/>
      <point x="154.0" y="-10.0"/>
      <point x="294.0" y="-10.0" type="curve"/>
      <point x="457.0" y="-10.0"/>
      <point x="553.0" y="74"/>
    </contour>
  </outline>
</glyph>
<glyph name="T" format="2">
  <advance width="581"/>
  <unicode hex="0054"/>
  <anchor x="291" y="690" name="top"/>
  <anchor x="291" y="0" name="bottom"/>
  <outline>
    <contour>
      <point x="238" y="0" type="line"/>
      <point x="343" y="0" type="line"/>
      <point x="343" y="690" type="line"/>
      <point x="238" y="690" type="line"/>
    </contour>
    <contour>
      <point x="18" y="690" type="line"/>
      <point x="18" y="594" type="line"/>
      <point x="563" y="594" type="line"/>
      <point x="563" y="690" type="line"/>
    </contour>
  </outline>
</glyph>
<glyph name="U" format="2">
  <advance width="675"/>
  <unicode hex="0055"/>
  <anchor x="337" y="690" name="top"/>
  <anchor x="337" y="0" name="bottom"/>
  <outline>
    <contour>
      <point x="503.0" y="274.0" type="line"/>
      <point x="503.0" y="151"/>
      <point x="446" y="87.0"/>
      <point x="338.0" y="87.0" type="curve" smooth="yes"/>
      <point x="231" y="87.0"/>
      <point x="175.0" y="150.56435643564356"/>
      <point x="175" y="274" type="curve"/>
      <point x="175" y="690" type="line"/>
      <point x="70" y="690" type="line"/>
      <point x="70.0" y="264.0" type="line"/>
      <point x="70.0" y="94.0"/>
      <point x="172" y="-10"/>
      <point x="337.0" y="-10.0" type="curve" smooth="yes"/>
      <point x="503" y="-10"/>
      <point x="605.0" y="94.0"/>
      <point x="605.0" y="264.0" type="curve"/>
      <point x="605" y="690" type="line"/>
      <point x="503.0" y="690.0" type="line"/>
    </contour>
  </outline>
</glyph>
<glyph name="W" format="2">
  <advance width="921"/>
  <unicode hex="0057"/>
  <anchor x="462" y="690" name="top"/>
  <anchor x="462" y="0" name="bottom"/>
  <outline>
    <contour>
      <point x="172" y="0" type="line"/>
      <point x="271" y="0" type="line"/>
      <point x="124" y="690" type="line"/>
      <point x="18" y="690" type="line"/>
    </contour>
    <contour>
      <point x="235" y="0" type="line"/>
      <point x="329" y="0" type="line"/>
      <point x="480" y="690" type="line"/>
      <point x="385" y="690" type="line"/>
    </contour>
    <contour>
      <point x="594" y="0" type="line"/>
      <point x="692" y="0" type="line"/>
      <point x="540" y="690" type="line"/>
      <point x="442" y="690" type="line"/>
    </contour>
    <contour>
      <point x="656" y="0" type="line"/>
      <point x="749" y="0" type="line"/>
      <point x="903" y="690" type="line"/>
      <point x="800" y="690" type="line"/>
    </contour>
  </outline>
</glyph>
<glyph name="Z" format="2">
  <advance width="618"/>
  <unicode hex="005A"/>
  <anchor x="314" y="690" name="top"/>
  <anchor x="314" y="0" name="bottom"/>
  <outline>
    <contour>
      <point x="49" y="690" type="line"/>
      <point x="49" y="594" type="line"/>
      <point x="532" y="594" type="line"/>
      <point x="572" y="638" type="line"/>
      <point x="572" y="690" type="line"/>
    </contour>
    <contour>
      <point x="34" y="52" type="line"/>
      <point x="34" y="0" type="line"/>
      <point x="584" y="0" type="line"/>
      <point x="584" y="96" type="line"/>
      <point x="74" y="96" type="line"/>
    </contour>
    <contour>
      <point x="34" y="52" type="line"/>
      <point x="161" y="52" type="line"/>
      <point x="572" y="638" type="line"/>
      <point x="445" y="638" type="line"/>
    </contour>
  </outline>
</glyph>
<glyph name="bracketleft" format="2">
  <advance width="311"/>
  <unicode hex="005B"/>
  <outline>
    <contour>
      <point x="80" y="-120" type="line"/>
      <point x="170" y="-120" type="line"/>
      <point x="170" y="770" type="line"/>
      <point x="80" y="770" type="line"/>
    </contour>
    <contour>
      <point x="110" y="770" type="line"/>
      <point x="110" y="690" type="line"/>
      <point x="316" y="690" type="line"/>
      <point x="316" y="770" type="line"/>
    </contour>
    <contour>
      <point x="110" y="-40" type="line"/>
      <point x="110" y="-120" type="line"/>
      <point x="316" y="-120" type="line"/>
      <point x="316" y="-40" type="line"/>
    </contour>
  </outline>
</glyph>
<glyph name="backslash" format="2">
  <advance width="292"/>
  <unicode hex="005C"/>
  <outline>
    <contour>
      <point x="292" y="-120" type="line"/>
      <point x="92" y="770" type="line"/>
      <point x="0" y="770" type="line"/>
      <point x="200" y="-120" type="line"/>
    </contour>
  </outline>
</glyph>
<glyph name="bracketright" format="2">
  <advance width="311"/>
  <unicode hex="005D"/>
  <outline>
    <contour>
      <point x="231" y="-120" type="line"/>
      <point x="231" y="770" type="line"/>
      <point x="141" y="770" type="line"/>
      <point x="141" y="-120" type="line"/>
    </contour>
    <contour>
      <point x="201" y="770" type="line"/>
      <point x="-5" y="770" type="line"/>
      <point x="-5" y="690" type="line"/>
      <point x="201" y="690" type="line"/>
    </contour>
    <contour>
      <point x="201" y="-40" type="line"/>
      <point x="-5" y="-40" type="line"/>
      <point x="-5" y="-120" type="line"/>
      <point x="201" y="-120" type="line"/>
    </contour>
  </outline>
</glyph>
<glyph name="asciicircum" format="2">
  <advance width="480"/>
  <unicode hex="005E"/>
  <outline>
    <contour>
      <point x="282" y="690" type="line"/>
      <point x="198" y="690" type="line"/>
      <point x="241" y="584" type="line"/>
      <point x="360" y="277" type="line"/>
      <point x="450" y="277" type="line"/>
    </contour>
    <contour>
      <point x="30" y="278" type="line"/>
      <point x="122" y="278" type="line"/>
      <point x="241" y="584" type="line"/>
      <point x="282" y="690" type="line"/>
      <point x="198" y="690" type="line"/>
    </contour>
  </outline>
</glyph>
<glyph name="underscore" format="2">
  <advance width="435"/>
  <unicode hex="005F"/>
  <outline>
    <contour>
      <point x="0" y="0" type="line"/>
      <point x="0" y="-85" type="line"/>
      <point x="435" y="-85" type="line"/>
      <point x="435" y="0" type="line"/>
    </contour>
  </outline>
</glyph>
<glyph name="grave" format="2">
  <advance width="500"/>
  <unicode hex="0060"/>
  <anchor x="250" y="530" name="_top"/>
  <outline>
    <contour>
      <point x="303" y="585" type="line"/>
      <point x="233" y="725" type="line"/>
      <point x="107" y="725" type="line"/>
      <point x="217" y="585" type="line"/>
    </contour>
  </outline>
</glyph>
<glyph name="a" format="2">
  <advance width="537"/>
  <unicode hex="0061"/>
  <anchor x="264.0" y="530" name="top"/>
  <anchor x="264.0" y="0" name="bottom"/>
  <outline>
    <contour>
      <point x="39.0" y="131.0" type="curve"/>
      <point x="39.0" y="49.0"/>
      <point x="99.0" y="-10.0"/>
      <point x="191.0" y="-10.0" type="curve"/>
      <point x="306.0" y="-10.0"/>
      <point x="405.0" y="79.0"/>
      <point x="405.0" y="221" type="curve"/>
      <point x="372.0" y="221" type="line"/>
      <point x="372.0" y="130.0"/>
      <point x="292.0" y="76.0"/>
      <point x="219.0" y="76.0" type="curve"/>
      <point x="163.0" y="76.0"/>
      <point x="139.0" y="107.0"/>
      <point x="139.0" y="138.0" type="curve"/>
      <point x="139.0" y="175.0"/>
      <point x="167.0" y="203"/>
      <point x="238.0" y="217.0" type="curve" smooth="yes"/>
      <point x="392.0" y="248.0" type="line"/>
      <point x="392.0" y="325" type="line"/>
      <point x="205.0" y="293.0" type="line" smooth="yes"/>
      <point x="91.0" y="273"/>
      <point x="39.0" y="211.0"/>
    </contour>
    <contour>
      <point x="472.0" y="342.0" type="line"/>
      <point x="472.0" y="465.0"/>
      <point x="396.1773399014778" y="540.0"/>
      <point x="264.0" y="540.0" type="curve" smooth="yes"/>
      <point x="160.0" y="540.0"/>
      <point x="78.0" y="486.0"/>
      <point x="49.0" y="389.0" type="curve"/>
      <point x="143.0" y="358.0" type="line"/>
      <point x="160.0" y="420.0"/>
      <point x="200.0" y="452.0"/>
      <point x="258.0" y="452.0" type="curve"/>
      <point x="320.7522935779817" y="452.0"/>
      <point x="372.0" y="417.0"/>
      <point x="372.0" y="330.0" type="curve"/>
      <point x="372.0" y="106" type="line" smooth="yes"/>
      <point x="372.0" y="71"/>
      <point x="377.0" y="35"/>
      <point x="385.0" y="0" type="curve"/>
      <point x="487.0" y="0" type="line"/>
      <point x="477.0" y="39"/>
      <point x="472.0" y="78"/>
      <point x="472.0" y="118" type="curve" smooth="yes"/>
    </contour>
  </outline>
</glyph>
<glyph name="b" format="2">
  <advance width="572"/>
  <unicode hex="0062"/>
  <outline>
    <contour>
      <point x="65" y="715" type="line"/>
      <point x="65" y="0" type="line"/>
      <point x="165" y="0" type="line"/>
      <point x="165" y="123" type="line"/>
      <point x="150" y="265" type="line"/>
      <point x="165" y="408" type="line"/>
      <point x="165" y="715" type="line"/>
    </contour>
    <contour>
      <point x="295.0" y="78.0" type="curve"/>
      <point x="215.0" y="78.0"/>
      <point x="160.0" y="134.00507614213197"/>
      <point x="160" y="265" type="curve"/>
      <point x="160.0" y="395.994923857868"/>
      <point x="215.0" y="452.0"/>
      <point x="295.0" y="452.0" type="curve"/>
      <point x="375.0" y="452.0"/>
      <point x="430.0" y="395.994923857868"/>
      <point x="430" y="265" type="curve"/>
      <point x="430.0" y="134.00507614213197"/>
      <point x="375.0" y="78.0"/>
    </contour>
    <contour>
      <point x="137.0" y="309.0" type="curve"/>
      <point x="137.0" y="221.0" type="line"/>
      <point x="137.0" y="74.0"/>
      <point x="211.0" y="-10.0"/>
      <point x="323" y="-10" type="curve"/>
      <point x="446" y="-10"/>
      <point x="534" y="93"/>
      <point x="534" y="265" type="curve"/>
      <point x="534" y="437"/>
      <point x="446" y="540"/>
      <point x="323" y="540" type="curve"/>
      <point x="211.0" y="540.0"/>
      <point x="137.0" y="456.0"/>
    </contour>
  </outline>
</glyph>
<glyph name="d" format="2">
  <advance width="572"/>
  <unicode hex="0064"/>
  <outline>
    <contour>
      <point x="507" y="715" type="line"/>
      <point x="407" y="715" type="line"/>
      <point x="407" y="408" type="line"/>
      <point x="422" y="265" type="line"/>
      <point x="407" y="123" type="line"/>
      <point x="407" y="0" type="line"/>
      <point x="507" y="0" type="line"/>
    </contour>
    <contour>
      <point x="277.0" y="78.0" type="curve"/>
      <point x="197.0" y="78.0"/>
      <point x="142.0" y="134.00507614213197"/>
      <point x="142" y="265" type="curve"/>
      <point x="142.0" y="395.994923857868"/>
      <point x="197.0" y="452.0"/>
      <point x="277.0" y="452.0" type="curve"/>
      <point x="357.0" y="452.0"/>
      <point x="412.0" y="395.994923857868"/>
      <point x="412" y="265" type="curve"/>
      <point x="412.0" y="134.00507614213197"/>
      <point x="357.0" y="78.0"/>
    </contour>
    <contour>
      <point x="435" y="309" type="line"/>
      <point x="435" y="456"/>
      <point x="361" y="540"/>
      <point x="249" y="540" type="curve"/>
      <point x="126" y="540"/>
      <point x="38" y="437"/>
      <point x="38" y="265" type="curve"/>
      <point x="38" y="93"/>
      <point x="126" y="-10"/>
      <point x="249" y="-10" type="curve"/>
      <point x="361" y="-10"/>
      <point x="435" y="74"/>
      <point x="435" y="221" type="curve"/>
    </contour>
  </outline>
</glyph>
<glyph name="e" format="2">
  <advance width="551"/>
  <unicode hex="0065"/>
  <anchor x="280" y="530" name="top"/>
  <anchor x="280" y="0" name="bottom"/>
  <outline>
    <contour>
      <point x="512.0" y="231.0" type="line"/>
      <point x="513.0" y="246.58333333333331"/>
      <point x="513.0" y="253.66666666666669"/>
      <point x="513.0" y="265.0" type="curve"/>
      <point x="513.0" y="438.0"/>
      <point x="417" y="540.0"/>
      <point x="280.0" y="540.0" type="curve"/>
      <point x="138" y="540.0"/>
      <point x="38.0" y="438.0"/>
      <point x="38" y="265" type="curve"/>
      <point x="38.0" y="98.0"/>
      <point x="136.0" y="-10.0"/>
      <point x="282.0" y="-10.0" type="curve"/>
      <point x="385" y="-10.0"/>
      <point x="466" y="41"/>
      <point x="501.0" y="131.0" type="curve"/>
      <point x="408.0" y="168.0" type="line"/>
      <point x="383.0" y="108.36893203883494"/>
      <point x="341.0" y="84.0"/>
      <point x="282.0" y="84.0" type="curve"/>
      <point x="195.0" y="84.0"/>
      <point x="142.0" y="140.8"/>
      <point x="142" y="265" type="curve"/>
      <point x="142.0" y="398.19999999999993"/>
      <point x="197.0" y="454.0"/>
      <point x="280.0" y="454.0" type="curve"/>
      <point x="358.0" y="454.0"/>
      <point x="409.0" y="398.19999999999993"/>
      <point x="409.0" y="265.0" type="curve"/>
      <point x="438.0" y="310.0" type="line"/>
      <point x="120.0" y="310.0" type="line"/>
      <point x="120.0" y="231.0" type="line"/>
    </contour>
  </outline>
</glyph>
<glyph name="f" format="2">
  <advance width="343"/>
  <unicode hex="0066"/>
  <outline>
    <contour>
      <point x="185.0" y="557.0" type="line"/>
      <point x="185.0" y="606.1081081081081"/>
      <point x="213.0" y="636.0"/>
      <point x="266.0" y="636.0" type="curve"/>
      <point x="289.0" y="636.0"/>
      <point x="308.0" y="632"/>
      <point x="328.0" y="625.0" type="curve"/>
      <point x="328.0" y="715" type="line"/>
      <point x="303.0" y="722"/>
      <point x="283.0" y="725"/>
      <point x="256.0" y="725" type="curve"/>
      <point x="148.0" y="725.0"/>
      <point x="85.0" y="666.6666666666667"/>
      <point x="85.0" y="550.0" type="curve"/>
      <point x="85.0" y="0" type="line"/>
      <point x="185.0" y="0" type="line"/>
    </contour>
    <contour>
      <point x="10.0" y="443.0" type="line"/>
      <point x="323.0" y="443.0" type="line"/>
      <point x="323.0" y="530" type="line"/>
      <point x="10.0" y="530" type="line"/>
    </contour>
  </outline>
</glyph>
<glyph name="g" format="2">
  <advance width="572"/>
  <unicode hex="0067"/>
  <anchor x="280.0" y="530" name="top"/>
  <outline>
    <contour>
      <point x="277.0" y="452.0" type="curve"/>
      <point x="357.0" y="452.0"/>
      <point x="412.0" y="399.25581395348837"/>
      <point x="412.0" y="290.0" type="curve"/>
      <point x="412.0" y="180.74418604651163"/>
      <point x="357.0" y="128.0"/>
      <point x="277.0" y="128.0" type="curve"/>
      <point x="197.0" y="128.0"/>
      <point x="142.0" y="180.74418604651163"/>
      <point x="142.0" y="290.0" type="curve"/>
      <point x="142.0" y="399.25581395348837"/>
      <point x="197.0" y="452.0"/>
    </contour>
    <contour>
      <point x="431.0" y="246.0" type="curve"/>
      <point x="431.0" y="334.0" type="line"/>
      <point x="431.0" y="461"/>
      <point x="361.0" y="540.0"/>
      <point x="249.0" y="540" type="curve"/>
      <point x="126.0" y="540.0"/>
      <point x="38.0" y="442"/>
      <point x="38.0" y="290.0" type="curve"/>
      <point x="38.0" y="138"/>
      <point x="126.0" y="40.0"/>
      <point x="249.0" y="40.0" type="curve"/>
      <point x="361.0" y="40.0"/>
      <point x="431.0" y="119"/>
    </contour>
    <contour>
      <point x="407.0" y="53.0" type="line"/>
      <point x="407.0" y="-57.0"/>
      <point x="338.0" y="-95.0"/>
      <point x="271.0" y="-95.0" type="curve"/>
      <point x="207.0" y="-95.0"/>
      <point x="169.0" y="-73"/>
      <point x="145.0" y="-25.0" type="curve"/>
      <point x="52.0" y="-64.0" type="line"/>
      <point x="83.0" y="-136.0"/>
      <point x="156.0" y="-185.0"/>
      <point x="267.0" y="-185.0" type="curve"/>
      <point x="396.0" y="-185.0"/>
      <point x="507.0" y="-117"/>
      <point x="507.0" y="48.0" type="curve"/>
      <point x="507.0" y="530" type="line"/>
      <point x="407.0" y="530" type="line"/>
      <point x="407.0" y="432.0" type="line"/>
      <point x="422.0" y="290.0" type="line"/>
      <point x="407.0" y="147.0" type="line"/>
    </contour>
  </outline>
</glyph>
<glyph name="i" format="2">
  <advance width="230"/>
  <unicode hex="0069"/>
  <anchor x="115.0" y="0" name="bottom"/>
  <outline>
    <contour>
      <point x="65.0" y="0" type="line"/>
      <point x="165.0" y="0" type="line"/>
      <point x="165.0" y="530" type="line"/>
      <point x="65.0" y="530" type="line"/>
    </contour>
    <contour>
      <point x="115.0" y="602.0" type="curve" smooth="yes"/>
      <point x="150.0" y="602"/>
      <point x="177.0" y="627"/>
      <point x="177.0" y="663.0" type="curve" smooth="yes"/>
      <point x="177.0" y="700"/>
      <point x="150.0" y="725"/>
      <point x="115.0" y="725" type="curve" smooth="yes"/>
      <point x="80.0" y="725"/>
      <point x="53.0" y="700"/>
      <point x="53.0" y="663.0" type="curve" smooth="yes"/>
      <point x="53.0" y="627"/>
      <point x="80.0" y="602"/>
    </contour>
  </outline>
</glyph>
<glyph name="j" format="2">
  <advance width="230"/>
  <unicode hex="006A"/>
  <outline>
    <contour>
      <point x="115.0" y="602" type="curve" smooth="yes"/>
      <point x="150.0" y="602"/>
      <point x="177.0" y="627"/>
      <point x="177.0" y="663" type="curve" smooth="yes"/>
      <point x="177.0" y="700"/>
      <point x="150.0" y="725"/>
      <point x="115.0" y="725" type="curve" smooth="yes"/>
      <point x="80.0" y="725"/>
      <point x="53.0" y="700"/>
      <point x="53.0" y="663" type="curve" smooth="yes"/>
      <point x="53.0" y="627"/>
      <point x="80.0" y="602"/>
    </contour>
    <contour>
      <point x="65.0" y="-7.0" type="line"/>
      <point x="65.0" y="-70"/>
      <point x="40.0" y="-94.0"/>
      <point x="-17.0" y="-94.0" type="curve"/>
      <point x="-34.0" y="-94.0"/>
      <point x="-55.0" y="-90.0"/>
      <point x="-73.0" y="-83.0" type="curve"/>
      <point x="-73.0" y="-175.0" type="line"/>
      <point x="-50.0" y="-182.0"/>
      <point x="-27.0" y="-185.0"/>
      <point x="1.0" y="-185.0" type="curve"/>
      <point x="107.0" y="-185.0"/>
      <point x="165.0" y="-123"/>
      <point x="165.0" y="-10.0" type="curve"/>
      <point x="165.0" y="530" type="line"/>
      <point x="65.0" y="530" type="line"/>
    </contour>
  </outline>
</glyph>
<glyph name="m" format="2">
  <advance width="858"/>
  <unicode hex="006D"/>
  <outline>
    <contour>
      <point x="65" y="0" type="line"/>
      <point x="165" y="0" type="line"/>
      <point x="165" y="530" type="line"/>
      <point x="65" y="530" type="line"/>
    </contour>
    <contour>
      <point x="379.0" y="329.0" type="curve"/>
      <point x="379.0" y="0.0" type="line"/>
      <point x="479.0" y="0.0" type="line"/>
      <point x="479.0" y="352.0" type="line"/>
      <point x="479.0" y="467.6923076923076"/>
      <point x="408.27717391304344" y="540.0"/>
      <point x="310.0" y="540.0" type="curve"/>
      <point x="209.4715025906736" y="540.0"/>
      <point x="132.0" y="458.70562770562765"/>
      <point x="132.0" y="329.0" type="curve"/>
      <point x="165.0" y="329.0" type="line"/>
      <point x="165.0" y="409.61486486486484"/>
      <point x="213.23770491803276" y="452.0"/>
      <point x="272.0" y="452.0" type="curve"/>
      <point x="330.76229508196724" y="452.0"/>
      <point x="379.0" y="409.61486486486484"/>
    </contour>
    <contour>
      <point x="693.0" y="329.0" type="curve"/>
      <point x="693.0" y="0.0" type="line"/>
      <point x="793.0" y="0.0" type="line"/>
      <point x="793.0" y="352.0" type="line"/>
      <point x="793.0" y="468"/>
      <point x="722" y="540.0"/>
      <point x="624.0" y="540.0" type="curve"/>
      <point x="523" y="540.0"/>
      <point x="446.0" y="459"/>
      <point x="446.0" y="329.0" type="curve"/>
      <point x="479.0" y="329.0" type="line"/>
      <point x="479.0" y="409.71875"/>
      <point x="527.0" y="452.0"/>
      <point x="586.0" y="452.0" type="curve"/>
      <point x="645.0" y="452.0"/>
      <point x="693.0" y="409.71875"/>
    </contour>
  </outline>
</glyph>
<glyph name="n" format="2">
  <advance width="574"/>
  <unicode hex="006E"/>
  <anchor x="291" y="0" name="bottom"/>
  <anchor x="291" y="530" name="top"/>
  <outline>
    <contour>
      <point x="65" y="0" type="line"/>
      <point x="165" y="0" type="line"/>
      <point x="165" y="530" type="line"/>
      <point x="65" y="530" type="line"/>
    </contour>
    <contour>
      <point x="409.0" y="309.0" type="curve"/>
      <point x="409.0" y="0.0" type="line"/>
      <point x="509.0" y="0.0" type="line"/>
      <point x="509.0" y="332.0" type="line"/>
      <point x="509.0" y="460.0"/>
      <point x="432" y="540.0"/>
      <point x="325.0" y="540.0" type="curve"/>
      <point x="216" y="540.0"/>
      <point x="132.0" y="451"/>
      <point x="132.0" y="309.0" type="curve"/>
      <point x="165.0" y="309.0" type="line"/>
      <point x="165.0" y="402.72297297297297"/>
      <point x="220.0" y="452.0"/>
      <point x="287.0" y="452.0" type="curve"/>
      <point x="354.0" y="452.0"/>
      <point x="409.0" y="402.72297297297297"/>
    </contour>
  </outline>
</glyph>
<glyph name="o" format="2">
  <advance width="561"/>
  <unicode hex="006F"/>
  <anchor x="280.0" y="530" name="top"/>
  <anchor x="280.0" y="0" name="bottom"/>
  <outline>
    <contour>
      <point x="280.0" y="-10.0" type="curve" smooth="yes"/>
      <point x="422.9661016949152" y="-10.0"/>
      <point x="523.0" y="98.0"/>
      <point x="523.0" y="265.0" type="curve" smooth="yes"/>
      <point x="523.0" y="432.0"/>
      <point x="422.9661016949152" y="540.0"/>
      <point x="280.0" y="540.0" type="curve" smooth="yes"/>
      <point x="138.04255319148936" y="540.0"/>
      <point x="38.0" y="432.0"/>
      <point x="38.0" y="265.0" type="curve" smooth="yes"/>
      <point x="38.0" y="98.0"/>
      <point x="138.04255319148936" y="-10.0"/>
    </contour>
    <contour>
      <point x="280.0" y="80.0" type="curve" smooth="yes"/>
      <point x="197.0" y="80.0"/>
      <point x="142.0" y="137.35000000000002"/>
      <point x="142.0" y="265.0" type="curve" smooth="yes"/>
      <point x="142.0" y="392.6499999999999"/>
      <point x="197.0" y="450.0"/>
      <point x="280.0" y="450.0" type="curve" smooth="yes"/>
      <point x="364.0" y="450.0"/>
      <point x="419.0" y="392.6499999999999"/>
      <point x="419.0" y="265.0" type="curve" smooth="yes"/>
      <point x="419.0" y="137.35000000000002"/>
      <point x="364.0" y="80.0"/>
    </contour>
  </outline>
</glyph>
<glyph name="r" format="2">
  <advance width="348"/>
  <unicode hex="0072"/>
  <anchor x="197" y="530" name="top"/>
  <anchor x="115" y="0" name="bottom"/>
  <outline>
    <contour>
      <point x="65" y="0" type="line"/>
      <point x="165" y="0" type="line"/>
      <point x="165" y="530" type="line"/>
      <point x="65" y="530" type="line"/>
    </contour>
    <contour>
      <point x="328.0" y="540.0" type="line"/>
      <point x="212" y="540.0"/>
      <point x="134.0" y="439.0"/>
      <point x="134.0" y="279.0" type="curve"/>
      <point x="165.0" y="292.0" type="line"/>
      <point x="165.0" y="388.9251700680272"/>
      <point x="216.96694214876032" y="429.0"/>
      <point x="296.0" y="429.0" type="curve"/>
      <point x="328.0" y="429.0" type="line"/>
    </contour>
  </outline>
</glyph>
<glyph name="s" format="2">
  <advance width="492"/>
  <unicode hex="0073"/>
  <anchor x="246.0" y="530" name="top"/>
  <anchor x="246.0" y="0" name="bottom"/>
  <outline>
    <contour>
      <point x="454.0" y="145.0" type="curve"/>
      <point x="454.0" y="350.0"/>
      <point x="147.0" y="293.0"/>
      <point x="147.0" y="400.0" type="curve"/>
      <point x="147.0" y="435"/>
      <point x="179.0" y="459.0"/>
      <point x="237.0" y="459.0" type="curve"/>
      <point x="295.0" y="459.0"/>
      <point x="334.0" y="433"/>
      <point x="358.0" y="368.0" type="curve"/>
      <point x="449.0" y="399.0" type="line"/>
      <point x="420.28155339805824" y="491.0"/>
      <point x="354.0" y="540.0"/>
      <point x="245.0" y="540.0" type="curve"/>
      <point x="118.28643216080401" y="540.0"/>
      <point x="48.0" y="474.0"/>
      <point x="48.0" y="391.0" type="curve"/>
      <point x="48.0" y="199.0"/>
      <point x="355.0" y="261.0"/>
      <point x="355.0" y="138.0" type="curve"/>
      <point x="355.0" y="95"/>
      <point x="315.0" y="71.0"/>
      <point x="255.0" y="71.0" type="curve"/>
      <point x="188.0" y="71.0"/>
      <point x="145.0" y="97"/>
      <point x="122.0" y="164.0" type="curve"/>
      <point x="28.0" y="134.0" type="line"/>
      <point x="57.0" y="39.0"/>
      <point x="128.0" y="-10.0"/>
      <point x="248.0" y="-10.0" type="curve"/>
      <point x="380.0" y="-10.0"/>
      <point x="454.0" y="58"/>
    </contour>
  </outline>
</glyph>
<glyph name="t" format="2">
  <advance width="367"/>
  <unicode hex="0074"/>
  <anchor x="217" y="0" name="bottom"/>
  <outline>
    <contour>
      <point x="185.0" y="173.0" type="curve"/>
      <point x="185" y="660" type="line"/>
      <point x="85" y="640" type="line"/>
      <point x="85" y="155" type="line"/>
      <point x="85.0" y="45.0"/>
      <point x="145.84375" y="-10.0"/>
      <point x="250.0" y="-10.0" type="curve"/>
      <point x="288.0963855421687" y="-10.0"/>
      <point x="314.9879518072289" y="-7.0"/>
      <point x="343.0" y="0.0" type="curve"/>
      <point x="343.0" y="94.0" type="line"/>
      <point x="320" y="88"/>
      <point x="298" y="84.0"/>
      <point x="271.0" y="84.0" type="curve"/>
      <point x="215" y="84.0"/>
      <point x="185.0" y="112"/>
    </contour>
    <contour>
      <point x="10" y="530" type="line"/>
      <point x="10.0" y="443.0" type="line"/>
      <point x="338.0" y="443.0" type="line"/>
      <point x="338.0" y="530.0" type="line"/>
    </contour>
  </outline>
</glyph>
<glyph name="u" format="2">
  <advance width="570"/>
  <unicode hex="0075"/>
  <anchor x="285.0" y="530" name="top"/>
  <anchor x="285.0" y="0" name="bottom"/>
  <outline>
    <contour>
      <point x="505.0" y="530.0" type="line"/>
      <point x="405.0" y="530.0" type="line"/>
      <point x="405.0" y="0.0" type="line"/>
      <point x="505.0" y="0.0" type="line"/>
    </contour>
    <contour>
      <point x="165.0" y="221.0" type="curve"/>
      <point x="165.0" y="530.0" type="line"/>
      <point x="65.0" y="530.0" type="line"/>
      <point x="65.0" y="198.0" type="line"/>
      <point x="65.0" y="70.0"/>
      <point x="140.0" y="-10.0"/>
      <point x="247.0" y="-10.0" type="curve"/>
      <point x="356.0" y="-10.0"/>
      <point x="438.0" y="79.0"/>
      <point x="438.0" y="221.0" type="curve"/>
      <point x="405.0" y="221.0" type="line"/>
      <point x="405.0" y="127.27702702702703"/>
      <point x="352.0" y="78.0"/>
      <point x="285.0" y="78.0" type="curve"/>
      <point x="218.0" y="78.0"/>
      <point x="165.0" y="127.27702702702703"/>
    </contour>
  </outline>
</glyph>
<glyph name="w" format="2">
  <advance width="768"/>
  <unicode hex="0077"/>
  <anchor x="385.0" y="530" name="top"/>
  <anchor x="385.0" y="0" name="bottom"/>
  <outline>
    <contour>
      <point x="141.0" y="0" type="line"/>
      <point x="235.0" y="0" type="line"/>
      <point x="111.0" y="530" type="line"/>
      <point x="10.0" y="530" type="line"/>
    </contour>
    <contour>
      <point x="197.0" y="0" type="line"/>
      <point x="283.0" y="0" type="line"/>
      <point x="407.0" y="530" type="line"/>
      <point x="322.0" y="530" type="line"/>
    </contour>
    <contour>
      <point x="485.0" y="0" type="line"/>
      <point x="579.0" y="0" type="line"/>
      <point x="451.0" y="530" type="line"/>
      <point x="361.0" y="530" type="line"/>
    </contour>
    <contour>
      <point x="541.0" y="0" type="line"/>
      <point x="627.0" y="0" type="line"/>
      <point x="758.0" y="530" type="line"/>
      <point x="661.0" y="530" type="line"/>
    </contour>
  </outline>
</glyph>
<glyph name="x" format="2">
  <advance width="506"/>
  <unicode hex="0078"/>
  <outline>
    <contour>
      <point x="375.0" y="0" type="line"/>
      <point x="491.0" y="0" type="line"/>
      <point x="141.0" y="530" type="line"/>
      <point x="25.0" y="530" type="line"/>
    </contour>
    <contour>
      <point x="126" y="0" type="line"/>
      <point x="261" y="218" type="line"/>
      <point x="296" y="253" type="line"/>
      <point x="481" y="530" type="line"/>
      <point x="370" y="530" type="line"/>
      <point x="245" y="328" type="line"/>
      <point x="210" y="292" type="line"/>
      <point x="15" y="0" type="line"/>
    </contour>
  </outline>
</glyph>
<glyph name="y" format="2">
  <advance width="508"/>
  <unicode hex="0079"/>
  <anchor x="258" y="530" name="top"/>
  <outline>
    <contour>
      <point x="177" y="0" type="line"/>
      <point x="278" y="0" type="line"/>
      <point x="113" y="530" type="line"/>
      <point x="8" y="530" type="line"/>
    </contour>
    <contour>
      <point x="238" y="0" type="line" smooth="yes"/>
      <point x="216" y="-72"/>
      <point x="182" y="-94.0"/>
      <point x="121.0" y="-94.0" type="curve"/>
      <point x="98.0" y="-94.0"/>
      <point x="74.0" y="-90"/>
      <point x="50.0" y="-83.0" type="curve"/>
      <point x="50.0" y="-175.0" type="line"/>
      <point x="73.0" y="-182.0"/>
      <point x="96.0" y="-185.0"/>
      <point x="125.0" y="-185.0" type="curve"/>
      <point x="225" y="-185.0"/>
      <point x="285" y="-144"/>
      <point x="331" y="0" type="curve" smooth="yes"/>
      <point x="500" y="530" type="line"/>
      <point x="399" y="530" type="line"/>
    </contour>
  </outline>
</glyph>
<glyph name="z" format="2">
  <advance width="487"/>
  <unicode hex="007A"/>
  <anchor x="251" y="530" name="top"/>
  <anchor x="251" y="0" name="bottom"/>
  <outline>
    <contour>
      <point x="47" y="530" type="line"/>
      <point x="47.0" y="443.0" type="line"/>
      <point x="400.0" y="443.0" type="line"/>
      <point x="440" y="478" type="line"/>
      <point x="440" y="530" type="line"/>
    </contour>
    <contour>
      <point x="37" y="52" type="line"/>
      <point x="37" y="0" type="line"/>
      <point x="450" y="0" type="line"/>
      <point x="450.0" y="87.0" type="line"/>
      <point x="77.0" y="87.0" type="line"/>
    </contour>
    <contour>
      <point x="37" y="52" type="line"/>
      <point x="153" y="52" type="line"/>
      <point x="440" y="478" type="line"/>
      <point x="324" y="478" type="line"/>
    </contour>
  </outline>
</glyph>
<glyph name="braceright" format="2">
  <advance width="338"/>
  <unicode hex="007D"/>
  <outline>
    <contour>
      <point x="198" y="339" type="curve"/>
      <point x="198" y="311" type="line"/>
      <point x="122" y="315"/>
      <point x="75" y="358"/>
      <point x="75" y="416" type="curve"/>
      <point x="75" y="500"/>
      <point x="153" y="522"/>
      <point x="153" y="599" type="curve"/>
      <point x="153.0" y="656.3684210526316"/>
      <point x="103.0" y="700.3508771929825"/>
      <point x="-5.0" y="708.0" type="curve"/>
      <point x="3.0" y="785.0" type="line"/>
      <point x="179.0" y="771.6285714285714"/>
      <point x="252.0" y="697.5714285714286"/>
      <point x="252" y="605" type="curve"/>
      <point x="252" y="511"/>
      <point x="164" y="472"/>
      <point x="164" y="419" type="curve"/>
      <point x="164" y="388"/>
      <point x="183" y="366"/>
      <point x="222" y="366" type="curve"/>
      <point x="263" y="366" type="line"/>
      <point x="263" y="284" type="line"/>
      <point x="222" y="284" type="line"/>
      <point x="183" y="284"/>
      <point x="164" y="262"/>
      <point x="164" y="231" type="curve"/>
      <point x="164" y="178"/>
      <point x="252" y="139"/>
      <point x="252" y="45" type="curve"/>
      <point x="252.0" y="-47.571428571428555"/>
      <point x="179.0" y="-121.62857142857143"/>
      <point x="3.0" y="-135.0" type="curve"/>
      <point x="-5.0" y="-58.0" type="line"/>
      <point x="103.0" y="-50.35087719298246"/>
      <point x="153.0" y="-6.368421052631575"/>
      <point x="153" y="51" type="curve"/>
      <point x="153" y="128"/>
      <point x="75" y="150"/>
      <point x="75" y="234" type="curve"/>
      <point x="75" y="292"/>
      <point x="122" y="335"/>
    </contour>
  </outline>
</glyph>
<glyph name="asciitilde" format="2">
  <advance width="500"/>
  <unicode hex="007E"/>
  <outline>
    <contour>
      <point x="332.0" y="295.0" type="curve"/>
      <point x="408" y="295.0"/>
      <point x="455" y="357"/>
      <point x="453.0" y="455.0" type="curve"/>
      <point x="379.0" y="455.0" type="line"/>
      <point x="377" y="402"/>
      <point x="362" y="378.0"/>
      <point x="327.0" y="378.0" type="curve"/>
      <point x="281" y="378.0"/>
      <point x="247" y="455.0"/>
      <point x="168.0" y="455.0" type="curve"/>
      <point x="92" y="455.0"/>
      <point x="45" y="393"/>
      <point x="47.0" y="295.0" type="curve"/>
      <point x="121.0" y="295.0" type="line"/>
      <point x="123" y="348"/>
      <point x="138" y="372.0"/>
      <point x="173.0" y="372.0" type="curve"/>
      <point x="221" y="372.0"/>
      <point x="254" y="295.0"/>
    </contour>
  </outline>
</glyph>
<glyph name="exclamdown" format="2">
  <advance width="270"/>
  <unicode hex="00A1"/>
  <outline>
    <contour>
      <point x="135" y="540" type="curve" smooth="yes"/>
      <point x="97" y="540"/>
      <point x="70" y="512"/>
      <point x="70" y="474" type="curve" smooth="yes"/>
      <point x="70" y="435"/>
      <point x="97" y="407"/>
      <point x="135" y="407" type="curve" smooth="yes"/>
      <point x="173" y="407"/>
      <point x="200" y="435"/>
      <point x="200" y="474" type="curve" smooth="yes"/>
      <point x="200" y="512"/>
      <point x="173" y="540"/>
    </contour>
    <contour>
      <point x="83" y="-175" type="line"/>
      <point x="188" y="-175" type="line"/>
      <point x="188" y="52" type="line"/>
      <point x="166" y="303" type="line"/>
      <point x="104" y="303" type="line"/>
      <point x="83" y="52" type="line"/>
    </contour>
  </outline>
</glyph>
<glyph name="sterling" format="2">
  <advance width="564"/>
  <unicode hex="00A3"/>
  <outline>
    <contour>
      <point x="504.0" y="0.0" type="line"/>
      <point x="504.0" y="96.0" type="line"/>
      <point x="130" y="96" type="line"/>
      <point x="50" y="67" type="line"/>
      <point x="50" y="0" type="line"/>
    </contour>
    <contour>
      <point x="253" y="253" type="curve"/>
      <point x="253" y="342"/>
      <point x="175" y="413"/>
      <point x="175" y="501" type="curve"/>
      <point x="175.0" y="566.0"/>
      <point x="221" y="608.0"/>
      <point x="283.0" y="608.0" type="curve"/>
      <point x="353" y="608.0"/>
      <point x="390.44" y="557.0"/>
      <point x="401.0" y="493.0" type="curve"/>
      <point x="504.0" y="513.0" type="line"/>
      <point x="487.3648068669528" y="623.0"/>
      <point x="412" y="700.0"/>
      <point x="287.0" y="700.0" type="curve"/>
      <point x="163" y="700.0"/>
      <point x="69.0" y="620.0"/>
      <point x="69" y="501" type="curve"/>
      <point x="69" y="392"/>
      <point x="160" y="341"/>
      <point x="160" y="241" type="curve"/>
      <point x="160" y="193"/>
      <point x="130" y="135"/>
      <point x="50" y="67" type="curve"/>
      <point x="132" y="52" type="line"/>
      <point x="232" y="135"/>
      <point x="253" y="189"/>
    </contour>
    <contour>
      <point x="50" y="362" type="line"/>
      <point x="50" y="275" type="line"/>
      <point x="438" y="275" type="line"/>
      <point x="438" y="362" type="line"/>
    </contour>
  </outline>
</glyph>
<glyph name="brokenbar" format="2">
  <advance width="250"/>
  <unicode hex="00A6"/>
  <outline>
    <contour>
      <point x="170" y="425" type="line"/>
      <point x="170" y="770" type="line"/>
      <point x="80" y="770" type="line"/>
      <point x="80" y="425" type="line"/>
    </contour>
    <contour>
      <point x="80" y="-120" type="line"/>
      <point x="170" y="-120" type="line"/>
      <point x="170" y="225" type="line"/>
      <point x="80" y="225" type="line"/>
    </contour>
  </outline>
</glyph>
<glyph name="section" format="2">
  <advance width="596"/>
  <unicode hex="00A7"/>
  <outline>
    <contour>
      <point x="392" y="121" type="line"/>
      <point x="493" y="126"/>
      <point x="556" y="188"/>
      <point x="556" y="265" type="curve"/>
      <point x="556" y="483"/>
      <point x="198" y="397"/>
      <point x="198" y="535" type="curve"/>
      <point x="198" y="575"/>
      <point x="233" y="607"/>
      <point x="290" y="607" type="curve"/>
      <point x="349" y="607"/>
      <point x="389" y="577"/>
      <point x="409" y="514" type="curve"/>
      <point x="509" y="547" type="line"/>
      <point x="480" y="643"/>
      <point x="405" y="700"/>
      <point x="299" y="700" type="curve"/>
      <point x="173" y="700"/>
      <point x="93" y="622"/>
      <point x="93" y="534" type="curve"/>
      <point x="93" y="451"/>
      <point x="142" y="411"/>
      <point x="204" y="386" type="curve"/>
      <point x="204" y="394" type="line"/>
      <point x="103" y="389"/>
      <point x="40" y="327"/>
      <point x="40" y="250" type="curve"/>
      <point x="40" y="32"/>
      <point x="398" y="118"/>
      <point x="398" y="-20" type="curve"/>
      <point x="398" y="-60"/>
      <point x="363" y="-92"/>
      <point x="306" y="-92" type="curve"/>
      <point x="247" y="-92"/>
      <point x="207" y="-62"/>
      <point x="187" y="1" type="curve"/>
      <point x="87" y="-32" type="line"/>
      <point x="116" y="-128"/>
      <point x="191" y="-185"/>
      <point x="297" y="-185" type="curve"/>
      <point x="423" y="-185"/>
      <point x="503" y="-107"/>
      <point x="503" y="-19" type="curve"/>
      <point x="503" y="64"/>
      <point x="454" y="104"/>
      <point x="392" y="129" type="curve"/>
    </contour>
    <contour>
      <point x="138" y="271" type="curve"/>
      <point x="138" y="320"/>
      <point x="179" y="355"/>
      <point x="241" y="355" type="curve"/>
      <point x="331" y="355"/>
      <point x="458.0" y="319"/>
      <point x="458" y="244" type="curve"/>
      <point x="458" y="195"/>
      <point x="417" y="160"/>
      <point x="355" y="160" type="curve"/>
      <point x="265" y="160"/>
      <point x="138.0" y="196.0"/>
    </contour>
  </outline>
</glyph>
<glyph name="dieresis" format="2">
  <advance width="500"/>
  <unicode hex="00A8"/>
  <anchor x="250" y="530" name="_top"/>
  <outline>
    <contour>
      <point x="159.0" y="602.0" type="curve" smooth="yes"/>
      <point x="191" y="602.0"/>
      <point x="216.0" y="625"/>
      <point x="216.0" y="658.0" type="curve" smooth="yes"/>
      <point x="216.0" y="692"/>
      <point x="191" y="715.0"/>
      <point x="159" y="715" type="curve" smooth="yes"/>
      <point x="127" y="715.0"/>
      <point x="102.0" y="692"/>
      <point x="102.0" y="658.0" type="curve" smooth="yes"/>
      <point x="102.0" y="625"/>
      <point x="127" y="602.0"/>
    </contour>
    <contour>
      <point x="341.0" y="602.0" type="curve" smooth="yes"/>
      <point x="373" y="602.0"/>
      <point x="398.0" y="625"/>
      <point x="398.0" y="658.0" type="curve" smooth="yes"/>
      <point x="398.0" y="692"/>
      <point x="373" y="715.0"/>
      <point x="341" y="715" type="curve" smooth="yes"/>
      <point x="309" y="715.0"/>
      <point x="284.0" y="692"/>
      <point x="284.0" y="658.0" type="curve" smooth="yes"/>
      <point x="284.0" y="625"/>
      <point x="309" y="602.0"/>
    </contour>
  </outline>
</glyph>
<glyph name="copyright" format="2">
  <advance width="802"/>
  <unicode hex="00A9"/>
  <outline>
    <contour>
      <point x="401" y="-10" type="curve" smooth="yes"/>
      <point x="602" y="-10"/>
      <point x="752" y="150"/>
      <point x="752" y="345" type="curve" smooth="yes"/>
      <point x="752" y="540"/>
      <point x="602" y="700"/>
      <point x="401" y="700" type="curve" smooth="yes"/>
      <point x="200" y="700"/>
      <point x="50" y="540"/>
      <point x="50" y="345" type="curve" smooth="yes"/>
      <point x="50" y="150"/>
      <point x="200" y="-10"/>
    </contour>
    <contour>
      <point x="401.0" y="65.0" type="curve" smooth="yes"/>
      <point x="246.0" y="65.0"/>
      <point x="130.0" y="190.70545454545456"/>
      <point x="130" y="345" type="curve" smooth="yes"/>
      <point x="130.0" y="499.2945454545454"/>
      <point x="246.0" y="625.0"/>
      <point x="401.0" y="625.0" type="curve" smooth="yes"/>
      <point x="556.0" y="625.0"/>
      <point x="672.0" y="499.2945454545454"/>
      <point x="672" y="345" type="curve" smooth="yes"/>
      <point x="672.0" y="190.70545454545456"/>
      <point x="556.0" y="65.0"/>
    </contour>
    <contour>
      <point x="401.0" y="211.0" type="curve"/>
      <point x="346.96875" y="211.0"/>
      <point x="310.0" y="250.54744525547443"/>
      <point x="310.0" y="340.0" type="curve" smooth="yes"/>
      <point x="310.0" y="429.4525547445255"/>
      <point x="346.96875" y="469.0"/>
      <point x="401.0" y="469.0" type="curve"/>
      <point x="443.4719101123595" y="469.0"/>
      <point x="469.89887640449433" y="450.3333333333333"/>
      <point x="485.0" y="405.0" type="curve"/>
      <point x="564.0" y="428.0" type="line"/>
      <point x="541.2857142857143" y="503.0"/>
      <point x="482.43506493506493" y="543.0"/>
      <point x="405" y="543" type="curve" smooth="yes"/>
      <point x="297.03389830508473" y="543.0"/>
      <point x="223.0" y="463.0"/>
      <point x="223.0" y="340.0" type="curve" smooth="yes"/>
      <point x="223.0" y="216.0"/>
      <point x="297.03389830508473" y="137.0"/>
      <point x="405" y="137" type="curve"/>
      <point x="482.43506493506493" y="137.0"/>
      <point x="541.2857142857143" y="177.0"/>
      <point x="564.0" y="254.0" type="curve"/>
      <point x="483.0" y="276.0" type="line"/>
      <point x="469.8045977011494" y="229.6986301369863"/>
      <point x="443.41379310344826" y="211.0"/>
    </contour>
  </outline>
</glyph>
<glyph name="ordfeminine" format="2">
  <advance width="311"/>
  <unicode hex="00AA"/>
  <outline>
    <contour>
      <point x="16" y="462" type="curve"/>
      <point x="16" y="410"/>
      <point x="47" y="376"/>
      <point x="106" y="376" type="curve"/>
      <point x="171" y="376"/>
      <point x="218" y="428"/>
      <point x="218" y="512" type="curve"/>
      <point x="199" y="512" type="line"/>
      <point x="199" y="466"/>
      <point x="163" y="441"/>
      <point x="128" y="441" type="curve"/>
      <point x="106" y="441"/>
      <point x="95" y="453"/>
      <point x="95" y="468" type="curve"/>
      <point x="95" y="484"/>
      <point x="106" y="499"/>
      <point x="137" y="506" type="curve" smooth="yes"/>
      <point x="221" y="524" type="line"/>
      <point x="221" y="575" type="line"/>
      <point x="108" y="556" type="line" smooth="yes"/>
      <point x="44" y="544"/>
      <point x="16" y="507"/>
    </contour>
    <contour>
      <point x="279" y="581" type="line"/>
      <point x="279" y="654"/>
      <point x="233" y="698"/>
      <point x="154" y="698" type="curve" smooth="yes"/>
      <point x="85" y="698"/>
      <point x="37" y="666"/>
      <point x="20" y="603" type="curve"/>
      <point x="97" y="585" type="line"/>
      <point x="104" y="618"/>
      <point x="123" y="632"/>
      <point x="150" y="632" type="curve"/>
      <point x="177" y="632"/>
      <point x="199" y="616"/>
      <point x="199" y="575" type="curve"/>
      <point x="199" y="445" type="line" smooth="yes"/>
      <point x="199" y="425"/>
      <point x="202" y="404"/>
      <point x="206" y="384.0" type="curve"/>
      <point x="288" y="384.0" type="line"/>
      <point x="282" y="407"/>
      <point x="279" y="429"/>
      <point x="279" y="452" type="curve" smooth="yes"/>
    </contour>
  </outline>
</glyph>
<glyph name="logicalnot" format="2">
  <advance width="533"/>
  <unicode hex="00AC"/>
  <outline>
    <contour>
      <point x="60" y="344" type="line"/>
      <point x="60" y="263" type="line"/>
      <point x="473" y="263" type="line"/>
      <point x="473" y="344" type="line"/>
    </contour>
    <contour>
      <point x="473.0" y="344" type="line"/>
      <point x="388" y="344.0" type="line"/>
      <point x="388.0" y="92" type="line"/>
      <point x="473.0" y="92" type="line"/>
    </contour>
  </outline>
</glyph>
<glyph name="registered" format="2">
  <advance width="802"/>
  <unicode hex="00AE"/>
  <outline>
    <contour>
      <point x="401" y="-10" type="curve" smooth="yes"/>
      <point x="602" y="-10"/>
      <point x="752" y="150"/>
      <point x="752" y="345" type="curve" smooth="yes"/>
      <point x="752" y="540"/>
      <point x="602" y="700"/>
      <point x="401" y="700" type="curve" smooth="yes"/>
      <point x="200" y="700"/>
      <point x="50" y="540"/>
      <point x="50" y="345" type="curve" smooth="yes"/>
      <point x="50" y="150"/>
      <point x="200" y="-10"/>
    </contour>
    <contour>
      <point x="401" y="65" type="curve" smooth="yes"/>
      <point x="246" y="65"/>
      <point x="130" y="191"/>
      <point x="130" y="345" type="curve" smooth="yes"/>
      <point x="130" y="499"/>
      <point x="246" y="625"/>
      <point x="401" y="625" type="curve" smooth="yes"/>
      <point x="556" y="625"/>
      <point x="672" y="499"/>
      <point x="672" y="345" type="curve" smooth="yes"/>
      <point x="672" y="191"/>
      <point x="556" y="65"/>
    </contour>
    <contour>
      <point x="472.0" y="142.0" type="line"/>
      <point x="571.0" y="142.0" type="line"/>
      <point x="462.0" y="304.0" type="line"/>
      <point x="369.0" y="304.0" type="line"/>
    </contour>
    <contour>
      <point x="254.0" y="142.0" type="line"/>
      <point x="338.0" y="142.0" type="line"/>
      <point x="338" y="540" type="line"/>
      <point x="254" y="540" type="line"/>
    </contour>
    <contour>
      <point x="409.0" y="272.0" type="line"/>
      <point x="505" y="272.0"/>
      <point x="567.0" y="323"/>
      <point x="567.0" y="406.0" type="curve" smooth="yes"/>
      <point x="567.0" y="489"/>
      <point x="505" y="540.0"/>
      <point x="409" y="540" type="curve"/>
      <point x="294" y="540" type="line"/>
      <point x="294" y="462" type="line"/>
      <point x="401" y="462" type="line"/>
      <point x="454" y="462.0"/>
      <point x="479.0" y="444"/>
      <point x="479.0" y="406.0" type="curve" smooth="yes"/>
      <point x="479.0" y="369"/>
      <point x="454" y="350.0"/>
      <point x="401.0" y="350.0" type="curve"/>
      <point x="294.0" y="350.0" type="line"/>
      <point x="294.0" y="272.0" type="line"/>
    </contour>
  </outline>
</glyph>
<glyph name="macron" format="2">
  <advance width="500"/>
  <unicode hex="00AF"/>
  <anchor x="250" y="530" name="_top"/>
  <outline>
    <contour>
      <point x="112" y="621" type="line"/>
      <point x="388" y="621" type="line"/>
      <point x="388" y="705" type="line"/>
      <point x="112" y="705" type="line"/>
    </contour>
  </outline>
</glyph>
<glyph name="degree" format="2">
  <advance width="399"/>
  <unicode hex="00B0"/>
  <outline>
    <contour>
      <point x="359.0" y="537.0" type="curve"/>
      <point x="359.0" y="633.0"/>
      <point x="294.0" y="700"/>
      <point x="199.0" y="700" type="curve" smooth="yes"/>
      <point x="105.0" y="700"/>
      <point x="40.0" y="633.0"/>
      <point x="40.0" y="537.0" type="curve"/>
      <point x="40.0" y="441.0"/>
      <point x="105.0" y="374"/>
      <point x="199.0" y="374.0" type="curve" smooth="yes"/>
      <point x="294.0" y="374"/>
      <point x="359.0" y="441.0"/>
    </contour>
    <contour>
      <point x="127.0" y="537.0" type="curve"/>
      <point x="127.0" y="592.0"/>
      <point x="158.0" y="624"/>
      <point x="199.0" y="624.0" type="curve" smooth="yes"/>
      <point x="241.0" y="624"/>
      <point x="272.0" y="592.0"/>
      <point x="272.0" y="537.0" type="curve"/>
      <point x="272.0" y="482.0"/>
      <point x="241.0" y="450"/>
      <point x="199.0" y="450.0" type="curve" smooth="yes"/>
      <point x="158.0" y="450"/>
      <point x="127.0" y="482.0"/>
    </contour>
  </outline>
</glyph>
<glyph name="plusminus" format="2">
  <advance width="533"/>
  <unicode hex="00B1"/>
  <outline>
    <contour>
      <point x="60" y="399" type="line"/>
      <point x="60" y="318" type="line"/>
      <point x="473" y="318" type="line"/>
      <point x="473" y="399" type="line"/>
    </contour>
    <contour>
      <point x="309.0" y="515" type="line"/>
      <point x="224" y="515.0" type="line"/>
      <point x="224.0" y="202" type="line"/>
      <point x="309.0" y="202" type="line"/>
    </contour>
    <contour>
      <point x="60" y="143" type="line"/>
      <point x="60" y="62" type="line"/>
      <point x="473" y="62" type="line"/>
      <point x="473" y="143" type="line"/>
    </contour>
  </outline>
</glyph>
<glyph name="threesuperior" format="2">
  <advance width="261"/>
  <unicode hex="00B3"/>
  <outline>
    <contour>
      <point x="16" y="690" type="line"/>
      <point x="16" y="624" type="line"/>
      <point x="212" y="624" type="line"/>
      <point x="242" y="637" type="line"/>
      <point x="242" y="690" type="line"/>
    </contour>
    <contour>
      <point x="126.0" y="573.0" type="curve"/>
      <point x="135" y="547" type="line"/>
      <point x="242" y="637" type="line"/>
      <point x="184" y="667" type="line"/>
      <point x="80" y="565" type="line"/>
      <point x="80" y="528" type="line"/>
      <point x="123.0" y="528.0" type="line"/>
      <point x="158" y="528.0"/>
      <point x="176.0" y="511.0"/>
      <point x="176.0" y="485.0" type="curve"/>
      <point x="176.0" y="458"/>
      <point x="155" y="442.0"/>
      <point x="129.0" y="442.0" type="curve"/>
      <point x="107" y="442.0"/>
      <point x="82" y="454"/>
      <point x="79.0" y="488.0" type="curve"/>
      <point x="8.0" y="473.0" type="line"/>
      <point x="16" y="408"/>
      <point x="63" y="377.0"/>
      <point x="129.0" y="377.0" type="curve"/>
      <point x="192" y="377.0"/>
      <point x="247.0" y="417.0"/>
      <point x="247" y="489" type="curve"/>
      <point x="247.0" y="539"/>
      <point x="214.0" y="576.0"/>
      <point x="164.0" y="576.0" type="curve"/>
      <point x="154.0" y="576.0"/>
      <point x="139.0" y="575.0"/>
    </contour>
  </outline>
</glyph>
<glyph name="acute" format="2">
  <advance width="500"/>
  <unicode hex="00B4"/>
  <anchor x="250" y="530" name="_top"/>
  <outline>
    <contour>
      <point x="197" y="585" type="line"/>
      <point x="283" y="585" type="line"/>
      <point x="393" y="725" type="line"/>
      <point x="267" y="725" type="line"/>
    </contour>
  </outline>
</glyph>
<glyph name="paragraph" format="2">
  <advance width="636"/>
  <unicode hex="00B6"/>
  <outline>
    <contour>
      <point x="286.0" y="-120" type="line"/>
      <point x="376.0" y="-120" type="line"/>
      <point x="376.0" y="690" type="line"/>
      <point x="286.0" y="690" type="line"/>
    </contour>
    <contour>
      <point x="466.0" y="-120" type="line"/>
      <point x="556.0" y="-120" type="line"/>
      <point x="556.0" y="690" type="line"/>
      <point x="466.0" y="690" type="line"/>
    </contour>
    <contour>
      <point x="269.0" y="690" type="line"/>
      <point x="133.0" y="690.0"/>
      <point x="40.0" y="602"/>
      <point x="40.0" y="465.0" type="curve" smooth="yes"/>
      <point x="40.0" y="328"/>
      <point x="133.0" y="240.0"/>
      <point x="269.0" y="240.0" type="curve"/>
      <point x="329.0" y="240.0" type="line"/>
      <point x="329.0" y="690" type="line"/>
    </contour>
  </outline>
</glyph>
<glyph name="onesuperior" format="2">
  <advance width="171"/>
  <unicode hex="00B9"/>
  <outline>
    <contour>
      <point x="61" y="384" type="line"/>
      <point x="138" y="384" type="line"/>
      <point x="138" y="690" type="line"/>
      <point x="71" y="690" type="line"/>
      <point x="61" y="610" type="line"/>
    </contour>
    <contour>
      <point x="3.0" y="589.0" type="line"/>
      <point x="97.0" y="589.0" type="line"/>
      <point x="71.0" y="690.0" type="line"/>
      <point x="65" y="651"/>
      <point x="45.729729729729726" y="639.3043478260868"/>
      <point x="3.0" y="635.0" type="curve"/>
    </contour>
  </outline>
</glyph>
<glyph name="ordmasculine" format="2">
  <advance width="328"/>
  <unicode hex="00BA"/>
  <outline>
    <contour>
      <point x="164" y="376" type="curve" smooth="yes"/>
      <point x="251" y="376"/>
      <point x="313" y="440"/>
      <point x="313" y="537" type="curve" smooth="yes"/>
      <point x="313" y="634"/>
      <point x="251" y="698"/>
      <point x="164" y="698" type="curve" smooth="yes"/>
      <point x="77" y="698"/>
      <point x="16" y="634"/>
      <point x="16" y="537" type="curve" smooth="yes"/>
      <point x="16" y="440"/>
      <point x="77" y="376"/>
    </contour>
    <contour>
      <point x="164" y="449" type="curve" smooth="yes"/>
      <point x="124" y="449"/>
      <point x="98" y="478"/>
      <point x="98" y="537" type="curve" smooth="yes"/>
      <point x="98" y="596"/>
      <point x="124" y="625"/>
      <point x="164" y="625" type="curve" smooth="yes"/>
      <point x="205" y="625"/>
      <point x="230" y="596"/>
      <point x="230" y="537" type="curve" smooth="yes"/>
      <point x="230" y="478"/>
      <point x="205" y="449"/>
    </contour>
  </outline>
</glyph>
<glyph name="guillemetright" format="2">
  <advance width="452"/>
  <unicode hex="00BB"/>
  <outline>
    <contour>
      <point x="432" y="257" type="line"/>
      <point x="432" y="323" type="line"/>
      <point x="348" y="290" type="line"/>
      <point x="205" y="80" type="line"/>
      <point x="312" y="80" type="line"/>
    </contour>
    <contour>
      <point x="312" y="500" type="line"/>
      <point x="205" y="500" type="line"/>
      <point x="348" y="290" type="line"/>
      <point x="432" y="257" type="line"/>
      <point x="432" y="323" type="line"/>
    </contour>
    <contour>
      <point x="232" y="257" type="line"/>
      <point x="232" y="323" type="line"/>
      <point x="148" y="290" type="line"/>
      <point x="5" y="80" type="line"/>
      <point x="112" y="80" type="line"/>
    </contour>
    <contour>
      <point x="112" y="500" type="line"/>
      <point x="5" y="500" type="line"/>
      <point x="148" y="290" type="line"/>
      <point x="232" y="257" type="line"/>
      <point x="232" y="323" type="line"/>
    </contour>
  </outline>
</glyph>
<glyph name="onequarter" format="2">
  <advance width="666"/>
  <unicode hex="00BC"/>
  <outline>
    <contour>
      <point x="385" y="92" type="line"/>
      <point x="385" y="48" type="line"/>
      <point x="636" y="48" type="line"/>
      <point x="636" y="109" type="line"/>
      <point x="402" y="109" type="line"/>
    </contour>
    <contour>
      <point x="523" y="0" type="line"/>
      <point x="598" y="0" type="line"/>
      <point x="598" y="306" type="line"/>
      <point x="523" y="306" type="line"/>
    </contour>
    <contour>
      <point x="385" y="92" type="line"/>
      <point x="450" y="92" type="line"/>
      <point x="561" y="306" type="line"/>
      <point x="498" y="306" type="line"/>
    </contour>
    <contour>
      <point x="58" y="0" type="line"/>
      <point x="161" y="0" type="line"/>
      <point x="597" y="690" type="line"/>
      <point x="494" y="690" type="line"/>
    </contour>
    <contour>
      <point x="110" y="384" type="line"/>
      <point x="187" y="384" type="line"/>
      <point x="187" y="690" type="line"/>
      <point x="120" y="690" type="line"/>
      <point x="110" y="610" type="line"/>
    </contour>
    <contour>
      <point x="52.0" y="589.0" type="line"/>
      <point x="146.0" y="589.0" type="line"/>
      <point x="120.0" y="690.0" type="line"/>
      <point x="114" y="651"/>
      <point x="95" y="639"/>
      <point x="52.0" y="635.0" type="curve"/>
    </contour>
  </outline>
</glyph>
<glyph name="onehalf" format="2">
  <advance width="709"/>
  <unicode hex="00BD"/>
  <outline>
    <contour>
      <point x="58" y="0" type="line"/>
      <point x="161" y="0" type="line"/>
      <point x="597" y="690" type="line"/>
      <point x="494" y="690" type="line"/>
    </contour>
    <contour>
      <point x="648" y="219" type="curve"/>
      <point x="648" y="274"/>
      <point x="603" y="313"/>
      <point x="545" y="313" type="curve"/>
      <point x="485" y="313"/>
      <point x="436" y="280"/>
      <point x="427" y="204" type="curve"/>
      <point x="498" y="190" type="line"/>
      <point x="505" y="234"/>
      <point x="522" y="244"/>
      <point x="540" y="244" type="curve"/>
      <point x="557" y="244"/>
      <point x="572" y="232"/>
      <point x="572" y="212" type="curve"/>
      <point x="572" y="192"/>
      <point x="556" y="171"/>
      <point x="529" y="147" type="curve" smooth="yes"/>
      <point x="426" y="53" type="line"/>
      <point x="510" y="46" type="line"/>
      <point x="591" y="115" type="line" smooth="yes"/>
      <point x="628" y="147"/>
      <point x="648" y="179"/>
    </contour>
    <contour>
      <point x="659" y="0" type="line"/>
      <point x="659" y="66" type="line"/>
      <point x="456" y="66" type="line"/>
      <point x="426" y="53" type="line"/>
      <point x="426" y="0" type="line"/>
    </contour>
    <contour>
      <point x="110" y="384" type="line"/>
      <point x="187" y="384" type="line"/>
      <point x="187" y="690" type="line"/>
      <point x="120" y="690" type="line"/>
      <point x="110" y="610" type="line"/>
    </contour>
    <contour>
      <point x="52.0" y="589.0" type="line"/>
      <point x="146.0" y="589.0" type="line"/>
      <point x="120.0" y="690.0" type="line"/>
      <point x="114" y="651"/>
      <point x="95" y="639"/>
      <point x="52.0" y="635.0" type="curve"/>
    </contour>
  </outline>
</glyph>
<glyph name="questiondown" format="2">
  <advance width="555"/>
  <unicode hex="00BF"/>
  <outline>
    <contour>
      <point x="334.0" y="303.0" type="line"/>
      <point x="334.0" y="266.0" type="line" smooth="yes"/>
      <point x="334.0" y="90.23999999999998"/>
      <point x="146.0" y="123.52000000000001"/>
      <point x="146.0" y="6.0" type="curve"/>
      <point x="146.0" y="-51.95698924731183"/>
      <point x="189.0" y="-92.0"/>
      <point x="267.0" y="-92.0" type="curve"/>
      <point x="346.0" y="-92.0"/>
      <point x="395.0" y="-49.33333333333333"/>
      <point x="411.0" y="36.0" type="curve"/>
      <point x="510.0" y="12.0" type="line"/>
      <point x="488.0" y="-114.203125"/>
      <point x="396.0" y="-185.0"/>
      <point x="265.0" y="-185.0" type="curve"/>
      <point x="119.0" y="-185.0"/>
      <point x="40.0" y="-108.89772727272728"/>
      <point x="40.0" y="-4.0" type="curve"/>
      <point x="40.0" y="188.91449814126395"/>
      <point x="243.0" y="147.42750929368032"/>
      <point x="243.0" y="275.0" type="curve" smooth="yes"/>
      <point x="243.0" y="303.0" type="line"/>
    </contour>
    <contour>
      <point x="287.0" y="540.0" type="curve" smooth="yes"/>
      <point x="249.0" y="540.0"/>
      <point x="222.0" y="512.0"/>
      <point x="222.0" y="474.0" type="curve" smooth="yes"/>
      <point x="222.0" y="435.0"/>
      <point x="249.0" y="407.0"/>
      <point x="287.0" y="407.0" type="curve" smooth="yes"/>
      <point x="325.0" y="407.0"/>
      <point x="352.0" y="435.0"/>
      <point x="352.0" y="474.0" type="curve" smooth="yes"/>
      <point x="352.0" y="512.0"/>
      <point x="325.0" y="540.0"/>
    </contour>
  </outline>
</glyph>
<glyph name="Eth" format="2">
  <advance width="693"/>
  <unicode hex="00D0"/>
  <outline>
    <contour>
      <point x="20" y="386" type="line"/>
      <point x="20" y="295" type="line"/>
      <point x="365" y="295" type="line"/>
      <point x="365" y="386" type="line"/>
    </contour>
    <contour>
      <point x="90" y="0" type="line"/>
      <point x="195" y="0" type="line"/>
      <point x="195" y="690" type="line"/>
      <point x="90" y="690" type="line"/>
    </contour>
    <contour>
      <point x="324" y="0" type="line"/>
      <point x="526" y="0"/>
      <point x="649" y="131"/>
      <point x="649" y="345" type="curve" smooth="yes"/>
      <point x="649" y="560"/>
      <point x="526" y="690"/>
      <point x="324" y="690" type="curve"/>
      <point x="140" y="690" type="line"/>
      <point x="140" y="594" type="line"/>
      <point x="314" y="594" type="line"/>
      <point x="465" y="594"/>
      <point x="540" y="513"/>
      <point x="540" y="345" type="curve" smooth="yes"/>
      <point x="540" y="178"/>
      <point x="465" y="96"/>
      <point x="314" y="96" type="curve"/>
      <point x="140" y="96" type="line"/>
      <point x="140" y="0" type="line"/>
    </contour>
  </outline>
</glyph>
<glyph name="Thorn" format="2">
  <advance width="614"/>
  <unicode hex="00DE"/>
  <outline>
    <contour>
      <point x="75" y="0" type="line"/>
      <point x="180" y="0" type="line"/>
      <point x="180" y="690" type="line"/>
      <point x="75" y="690" type="line"/>
    </contour>
    <contour>
      <point x="329.0" y="125.0" type="line"/>
      <point x="483" y="125.0"/>
      <point x="584.0" y="210"/>
      <point x="584.0" y="350.0" type="curve" smooth="yes"/>
      <point x="584.0" y="490"/>
      <point x="483" y="575.0"/>
      <point x="329.0" y="575.0" type="curve"/>
      <point x="125" y="575" type="line"/>
      <point x="125.0" y="479.0" type="line"/>
      <point x="319.0" y="479.0" type="line"/>
      <point x="425.0" y="479.0"/>
      <point x="475.0" y="437"/>
      <point x="475.0" y="350.0" type="curve" smooth="yes"/>
      <point x="475.0" y="264"/>
      <point x="425.0" y="221.0"/>
      <point x="319.0" y="221.0" type="curve"/>
      <point x="125.0" y="221.0" type="line"/>
      <point x="125.0" y="125.0" type="line"/>
    </contour>
  </outline>
</glyph>
<glyph name="germandbls" format="2">
  <advance width="579"/>
  <unicode hex="00DF"/>
  <outline>
    <contour>
      <point x="271.0" y="725.0" type="curve"/>
      <point x="135.0" y="725.0"/>
      <point x="65.0" y="648"/>
      <point x="65.0" y="504.0" type="curve"/>
      <point x="65.0" y="0" type="line"/>
      <point x="165.0" y="0" type="line"/>
      <point x="165.0" y="511.0" type="line"/>
      <point x="165.0" y="585"/>
      <point x="200.0" y="636.0"/>
      <point x="270.0" y="636.0" type="curve"/>
      <point x="335.0" y="636.0"/>
      <point x="368.0" y="605.0"/>
      <point x="368.0" y="555.0" type="curve"/>
      <point x="368.0" y="484.0"/>
      <point x="265.0" y="460.0"/>
      <point x="265.0" y="372.0" type="curve"/>
      <point x="265.0" y="246"/>
      <point x="446.0" y="247"/>
      <point x="446.0" y="146.0" type="curve"/>
      <point x="446.0" y="105"/>
      <point x="411.0" y="80.0"/>
      <point x="362.0" y="80.0" type="curve"/>
      <point x="322.0" y="80.0"/>
      <point x="292.0" y="91"/>
      <point x="251.0" y="115.0" type="curve"/>
      <point x="216.0" y="25.0" type="line"/>
      <point x="255.0" y="4"/>
      <point x="301.0" y="-10.0"/>
      <point x="359.0" y="-10.0" type="curve"/>
      <point x="480.0" y="-10.0"/>
      <point x="545.0" y="58"/>
      <point x="545.0" y="151.0" type="curve"/>
      <point x="545.0" y="304"/>
      <point x="360.0" y="325"/>
      <point x="360.0" y="381.0" type="curve"/>
      <point x="360.0" y="428.0"/>
      <point x="468.0" y="439.0"/>
      <point x="468.0" y="566.0" type="curve"/>
      <point x="468.0" y="654.0"/>
      <point x="389.0" y="725.0"/>
    </contour>
  </outline>
</glyph>
<glyph name="ae" format="2">
  <advance width="881"/>
  <unicode hex="00E6"/>
  <anchor x="435" y="530" name="top"/>
  <outline>
    <contour>
      <point x="842" y="231" type="line"/>
      <point x="843" y="247"/>
      <point x="843" y="254"/>
      <point x="843" y="265" type="curve"/>
      <point x="843" y="438"/>
      <point x="749" y="540"/>
      <point x="615" y="540" type="curve"/>
      <point x="482" y="540"/>
      <point x="388" y="438"/>
      <point x="388" y="265" type="curve"/>
      <point x="388" y="98"/>
      <point x="480" y="-10"/>
      <point x="617" y="-10" type="curve"/>
      <point x="718" y="-10"/>
      <point x="797" y="41"/>
      <point x="831" y="131" type="curve"/>
      <point x="738" y="168" type="line"/>
      <point x="713" y="108"/>
      <point x="671" y="84"/>
      <point x="612" y="84" type="curve"/>
      <point x="525" y="84"/>
      <point x="472" y="141"/>
      <point x="472" y="265" type="curve"/>
      <point x="472" y="398"/>
      <point x="527" y="454"/>
      <point x="610" y="454" type="curve"/>
      <point x="688" y="454"/>
      <point x="739" y="398"/>
      <point x="739" y="265" type="curve"/>
      <point x="768" y="310" type="line"/>
      <point x="450" y="310" type="line"/>
      <point x="450" y="231" type="line"/>
    </contour>
    <contour>
      <point x="39" y="132" type="curve"/>
      <point x="39" y="50"/>
      <point x="101" y="-10"/>
      <point x="207" y="-10" type="curve"/>
      <point x="339" y="-10.0"/>
      <point x="431.0" y="73"/>
      <point x="431.0" y="206.0" type="curve"/>
      <point x="372" y="221" type="line"/>
      <point x="372" y="130"/>
      <point x="292" y="76"/>
      <point x="219" y="76" type="curve"/>
      <point x="163" y="76"/>
      <point x="139" y="107"/>
      <point x="139" y="138" type="curve"/>
      <point x="139" y="175"/>
      <point x="166" y="205"/>
      <point x="238" y="212" type="curve" smooth="yes"/>
      <point x="392" y="228" type="line"/>
      <point x="392" y="305" type="line"/>
      <point x="205" y="288" type="line" smooth="yes"/>
      <point x="90" y="278"/>
      <point x="39" y="212"/>
    </contour>
    <contour>
      <point x="452.0" y="192.0" type="line"/>
      <point x="452.0" y="342.0" type="line"/>
      <point x="452.0" y="465.0"/>
      <point x="381.4807692307693" y="540.0"/>
      <point x="259.0" y="540.0" type="curve" smooth="yes"/>
      <point x="157.4186046511628" y="540.0"/>
      <point x="77.32558139534885" y="486.0"/>
      <point x="49" y="389" type="curve"/>
      <point x="143" y="358" type="line"/>
      <point x="160" y="420"/>
      <point x="200" y="452"/>
      <point x="258" y="452" type="curve"/>
      <point x="321" y="452"/>
      <point x="372" y="417"/>
      <point x="372" y="330" type="curve"/>
      <point x="372" y="175" type="line"/>
    </contour>
  </outline>
</glyph>
<glyph name="eth" format="2">
  <advance width="559"/>
  <unicode hex="00F0"/>
  <outline>
    <contour>
      <point x="280.0" y="80" type="curve" smooth="yes"/>
      <point x="197.0" y="80.0"/>
      <point x="142.0" y="137"/>
      <point x="142.0" y="227.0" type="curve" smooth="yes"/>
      <point x="142.0" y="317"/>
      <point x="197.0" y="374.0"/>
      <point x="280.0" y="374.0" type="curve" smooth="yes"/>
      <point x="364.0" y="374.0"/>
      <point x="419.0" y="317"/>
      <point x="419.0" y="227.0" type="curve" smooth="yes"/>
      <point x="419.0" y="137"/>
      <point x="364.0" y="80.0"/>
    </contour>
    <contour>
      <point x="267.0" y="715" type="curve"/>
      <point x="126.0" y="715" type="line"/>
      <point x="307.0" y="583"/>
      <point x="393.0" y="469"/>
      <point x="423.0" y="320.0" type="curve"/>
      <point x="431.0" y="320.0" type="line"/>
      <point x="411.0" y="408"/>
      <point x="344.0" y="456.0"/>
      <point x="255.0" y="456.0" type="curve"/>
      <point x="132.0" y="456.0"/>
      <point x="38.0" y="360"/>
      <point x="38.0" y="227.0" type="curve" smooth="yes"/>
      <point x="38.0" y="94"/>
      <point x="133.0" y="-10.0"/>
      <point x="280.0" y="-10" type="curve" smooth="yes"/>
      <point x="423.0" y="-10"/>
      <point x="521.0" y="89"/>
      <point x="521.0" y="262.0" type="curve"/>
      <point x="521.0" y="394"/>
      <point x="442.0" y="573"/>
    </contour>
    <contour>
      <point x="183.0" y="555" type="line"/>
      <point x="237.0" y="488" type="line"/>
      <point x="448.0" y="658" type="line"/>
      <point x="394.0" y="725" type="line"/>
    </contour>
  </outline>
</glyph>
<glyph name="thorn" format="2">
  <advance width="572"/>
  <unicode hex="00FE"/>
  <outline>
    <contour>
      <point x="65" y="-175" type="line"/>
      <point x="165" y="-175" type="line"/>
      <point x="165" y="122" type="line"/>
      <point x="150" y="265" type="line"/>
      <point x="165" y="407" type="line"/>
      <point x="165" y="715" type="line"/>
      <point x="65" y="715" type="line"/>
    </contour>
    <contour>
      <point x="295.0" y="452.0" type="curve"/>
      <point x="375.0" y="452.0"/>
      <point x="430.0" y="395.994923857868"/>
      <point x="430" y="265" type="curve"/>
      <point x="430.0" y="134.00507614213197"/>
      <point x="375.0" y="78.0"/>
      <point x="295.0" y="78.0" type="curve"/>
      <point x="215.0" y="78.0"/>
      <point x="160.0" y="134.00507614213197"/>
      <point x="160.0" y="265.0" type="curve"/>
      <point x="160.0" y="395.994923857868"/>
      <point x="215.0" y="452.0"/>
    </contour>
    <contour>
      <point x="137.0" y="221.0" type="line"/>
      <point x="137.0" y="74.0"/>
      <point x="211" y="-10.0"/>
      <point x="323.0" y="-10.0" type="curve"/>
      <point x="446" y="-10.0"/>
      <point x="534.0" y="93.0"/>
      <point x="534" y="265" type="curve"/>
      <point x="534.0" y="437.0"/>
      <point x="446" y="540.0"/>
      <point x="323.0" y="540.0" type="curve"/>
      <point x="211" y="540.0"/>
      <point x="137.0" y="456.0"/>
      <point x="137.0" y="309.0" type="curve"/>
    </contour>
  </outline>
</glyph>
<glyph name="Eogonek" format="2">
  <advance width="611"/>
  <unicode hex="0118"/>
  <outline>
    <contour>
      <point x="465" y="0" type="line"/>
      <point x="397" y="-37"/>
      <point x="374" y="-69"/>
      <point x="374" y="-111" type="curve"/>
      <point x="374" y="-153"/>
      <point x="408" y="-185"/>
      <point x="473" y="-185" type="curve" smooth="yes"/>
      <point x="502" y="-185"/>
      <point x="537" y="-176"/>
      <point x="565" y="-165" type="curve"/>
      <point x="556" y="-84" type="line"/>
      <point x="533" y="-94"/>
      <point x="499" y="-106"/>
      <point x="479" y="-106" type="curve"/>
      <point x="466" y="-106"/>
      <point x="458" y="-101"/>
      <point x="458" y="-89" type="curve"/>
      <point x="458" y="-65"/>
      <point x="495" y="-34"/>
      <point x="565" y="0" type="curve"/>
    </contour>
    <contour>
      <point x="75" y="0" type="line"/>
      <point x="180" y="0" type="line"/>
      <point x="180" y="690" type="line"/>
      <point x="75" y="690" type="line"/>
    </contour>
    <contour>
      <point x="125" y="402" type="line"/>
      <point x="125" y="306" type="line"/>
      <point x="500" y="306" type="line"/>
      <point x="500" y="402" type="line"/>
    </contour>
    <contour>
      <point x="125" y="96" type="line"/>
      <point x="125" y="0" type="line"/>
      <point x="565" y="0" type="line"/>
      <point x="565" y="96" type="line"/>
    </contour>
    <contour>
      <point x="125" y="690" type="line"/>
      <point x="125" y="594" type="line"/>
      <point x="560" y="594" type="line"/>
      <point x="560" y="690" type="line"/>
    </contour>
  </outline>
</glyph>
<glyph name="eogonek" format="2">
  <advance width="551"/>
  <unicode hex="0119"/>
  <outline>
    <contour>
      <point x="358.0" y="6.0" type="line"/>
      <point x="283" y="-28"/>
      <point x="257.0" y="-59"/>
      <point x="257.0" y="-103.0" type="curve"/>
      <point x="257.0" y="-149"/>
      <point x="294.4343434343434" y="-185.0"/>
      <point x="366" y="-185" type="curve" smooth="yes"/>
      <point x="395" y="-185"/>
      <point x="430" y="-176"/>
      <point x="458" y="-165" type="curve"/>
      <point x="449" y="-84" type="line"/>
      <point x="426" y="-94"/>
      <point x="392" y="-106"/>
      <point x="372" y="-106" type="curve"/>
      <point x="352.8095238095238" y="-106.0"/>
      <point x="341.0" y="-97"/>
      <point x="341.0" y="-76.0" type="curve"/>
      <point x="341.0" y="-48"/>
      <point x="367" y="-15"/>
      <point x="438.0" y="42.0" type="curve" smooth="yes"/>
      <point x="466" y="65"/>
      <point x="487" y="95"/>
      <point x="501" y="131" type="curve"/>
      <point x="408" y="168" type="line"/>
      <point x="383" y="108"/>
      <point x="341" y="84"/>
      <point x="282" y="84" type="curve"/>
      <point x="195" y="84"/>
      <point x="142" y="141"/>
      <point x="142" y="265" type="curve"/>
      <point x="142" y="398"/>
      <point x="197" y="454"/>
      <point x="280" y="454" type="curve"/>
      <point x="358" y="454"/>
      <point x="409" y="398"/>
      <point x="409" y="265" type="curve"/>
      <point x="438" y="310" type="line"/>
      <point x="120" y="310" type="line"/>
      <point x="120" y="231" type="line"/>
      <point x="512" y="231" type="line"/>
      <point x="513" y="247"/>
      <point x="513" y="254"/>
      <point x="513" y="265" type="curve"/>
      <point x="513" y="438"/>
      <point x="417" y="540"/>
      <point x="280" y="540" type="curve"/>
      <point x="138" y="540"/>
      <point x="38" y="438"/>
      <point x="38" y="265" type="curve"/>
      <point x="38" y="98"/>
      <point x="136" y="-10"/>
      <point x="282" y="-10" type="curve"/>
      <point x="309" y="-10"/>
      <point x="334" y="-7"/>
      <point x="357" y="0" type="curve"/>
    </contour>
  </outline>
</glyph>
<glyph name="Hbar" format="2">
  <advance width="735"/>
  <unicode hex="0126"/>
  <outline>
    <contour>
      <point x="20" y="573" type="line"/>
      <point x="20" y="482" type="line"/>
      <point x="715" y="482" type="line"/>
      <point x="715" y="573" type="line"/>
    </contour>
    <contour>
      <point x="90" y="0" type="line"/>
      <point x="195" y="0" type="line"/>
      <point x="195" y="690" type="line"/>
      <point x="90" y="690" type="line"/>
    </contour>
    <contour>
      <point x="540" y="0" type="line"/>
      <point x="645" y="0" type="line"/>
      <point x="645" y="690" type="line"/>
      <point x="540" y="690" type="line"/>
    </contour>
    <contour>
      <point x="140" y="382" type="line"/>
      <point x="140" y="286" type="line"/>
      <point x="595" y="286" type="line"/>
      <point x="595" y="382" type="line"/>
    </contour>
  </outline>
</glyph>
<glyph name="iogonek" format="2">
  <advance width="230"/>
  <unicode hex="012F"/>
  <outline>
    <contour>
      <point x="65" y="0" type="line"/>
      <point x="-3" y="-37"/>
      <point x="-26" y="-69"/>
      <point x="-26" y="-111" type="curve"/>
      <point x="-26" y="-153"/>
      <point x="8" y="-185"/>
      <point x="73" y="-185" type="curve" smooth="yes"/>
      <point x="102" y="-185"/>
      <point x="137" y="-176"/>
      <point x="165" y="-165" type="curve"/>
      <point x="156" y="-84" type="line"/>
      <point x="133" y="-94"/>
      <point x="99" y="-106"/>
      <point x="79" y="-106" type="curve"/>
      <point x="66" y="-106"/>
      <point x="58" y="-101"/>
      <point x="58" y="-89" type="curve"/>
      <point x="58" y="-65"/>
      <point x="95" y="-34"/>
      <point x="165" y="0" type="curve"/>
    </contour>
    <contour>
      <point x="65" y="0" type="line"/>
      <point x="165" y="0" type="line"/>
      <point x="165" y="530" type="line"/>
      <point x="65" y="530" type="line"/>
    </contour>
    <contour>
      <point x="115" y="602" type="curve" smooth="yes"/>
      <point x="150" y="602"/>
      <point x="177" y="627"/>
      <point x="177" y="663" type="curve" smooth="yes"/>
      <point x="177" y="700"/>
      <point x="150" y="725"/>
      <point x="115" y="725" type="curve" smooth="yes"/>
      <point x="80" y="725"/>
      <point x="53" y="700"/>
      <point x="53" y="663" type="curve" smooth="yes"/>
      <point x="53" y="627"/>
      <point x="80" y="602"/>
    </contour>
  </outline>
</glyph>
<glyph name="IJ" format="2">
  <advance width="815"/>
  <unicode hex="0132"/>
  <outline>
    <contour>
      <point x="75" y="0" type="line"/>
      <point x="180" y="0" type="line"/>
      <point x="180" y="690" type="line"/>
      <point x="75" y="690" type="line"/>
    </contour>
    <contour>
      <point x="276" y="209" type="line"/>
      <point x="296" y="67"/>
      <point x="383" y="-10"/>
      <point x="511" y="-10" type="curve"/>
      <point x="652" y="-10"/>
      <point x="745" y="86"/>
      <point x="745" y="237" type="curve"/>
      <point x="745" y="690" type="line"/>
      <point x="640" y="690" type="line"/>
      <point x="640" y="244" type="line"/>
      <point x="640" y="138"/>
      <point x="589" y="87"/>
      <point x="511" y="87" type="curve"/>
      <point x="436" y="87"/>
      <point x="392" y="136"/>
      <point x="379" y="230" type="curve"/>
    </contour>
  </outline>
</glyph>
<glyph name="ij" format="2">
  <advance width="460"/>
  <unicode hex="0133"/>
  <outline>
    <contour>
      <point x="65" y="0" type="line"/>
      <point x="165" y="0" type="line"/>
      <point x="165" y="530" type="line"/>
      <point x="65" y="530" type="line"/>
    </contour>
    <contour>
      <point x="115" y="602" type="curve" smooth="yes"/>
      <point x="150" y="602"/>
      <point x="177" y="627"/>
      <point x="177" y="663" type="curve" smooth="yes"/>
      <point x="177" y="700"/>
      <point x="150" y="725"/>
      <point x="115" y="725" type="curve" smooth="yes"/>
      <point x="80" y="725"/>
      <point x="53" y="700"/>
      <point x="53" y="663" type="curve" smooth="yes"/>
      <point x="53" y="627"/>
      <point x="80" y="602"/>
    </contour>
    <contour>
      <point x="345" y="602" type="curve" smooth="yes"/>
      <point x="380" y="602"/>
      <point x="407" y="627"/>
      <point x="407" y="663" type="curve" smooth="yes"/>
      <point x="407" y="700"/>
      <point x="380" y="725"/>
      <point x="345" y="725" type="curve" smooth="yes"/>
      <point x="310" y="725"/>
      <point x="283" y="700"/>
      <point x="283" y="663" type="curve" smooth="yes"/>
      <point x="283" y="627"/>
      <point x="310" y="602"/>
    </contour>
    <contour>
      <point x="295" y="-7" type="line"/>
      <point x="295" y="-70"/>
      <point x="270" y="-94"/>
      <point x="213" y="-94" type="curve"/>
      <point x="196" y="-94"/>
      <point x="175" y="-90"/>
      <point x="157" y="-83" type="curve"/>
      <point x="157" y="-175" type="line"/>
      <point x="180" y="-182"/>
      <point x="203" y="-185"/>
      <point x="231" y="-185" type="curve"/>
      <point x="337" y="-185"/>
      <point x="395" y="-123"/>
      <point x="395" y="-10" type="curve"/>
      <point x="395" y="530" type="line"/>
      <point x="295" y="530" type="line"/>
    </contour>
  </outline>
</glyph>
<glyph name="Lcaron" format="2">
  <advance width="540"/>
  <unicode hex="013D"/>
  <outline>
    <contour>
      <point x="338" y="690" type="line"/>
      <point x="338" y="417" type="line"/>
      <point x="398" y="417" type="line"/>
      <point x="442" y="690" type="line"/>
    </contour>
    <contour>
      <point x="75" y="0" type="line"/>
      <point x="180" y="0" type="line"/>
      <point x="180" y="690" type="line"/>
      <point x="75" y="690" type="line"/>
    </contour>
    <contour>
      <point x="125" y="96" type="line"/>
      <point x="125" y="0" type="line"/>
      <point x="510" y="0" type="line"/>
      <point x="510" y="96" type="line"/>
    </contour>
  </outline>
</glyph>
<glyph name="lcaron" format="2">
  <advance width="294"/>
  <unicode hex="013E"/>
  <outline>
    <contour>
      <point x="220" y="715" type="line"/>
      <point x="220" y="442" type="line"/>
      <point x="280" y="442" type="line"/>
      <point x="324" y="715" type="line"/>
    </contour>
    <contour>
      <point x="65" y="0" type="line"/>
      <point x="165" y="0" type="line"/>
      <point x="165" y="715" type="line"/>
      <point x="65" y="715" type="line"/>
    </contour>
  </outline>
</glyph>
<glyph name="ldot" format="2">
  <advance width="355"/>
  <unicode hex="0140"/>
  <outline>
    <contour>
      <point x="65" y="0" type="line"/>
      <point x="165" y="0" type="line"/>
      <point x="165" y="715" type="line"/>
      <point x="65" y="715" type="line"/>
    </contour>
    <contour>
      <point x="290" y="231" type="curve" smooth="yes"/>
      <point x="328" y="231"/>
      <point x="355" y="259"/>
      <point x="355" y="297" type="curve" smooth="yes"/>
      <point x="355" y="336"/>
      <point x="328" y="364"/>
      <point x="290" y="364" type="curve" smooth="yes"/>
      <point x="252" y="364"/>
      <point x="225" y="336"/>
      <point x="225" y="297" type="curve" smooth="yes"/>
      <point x="225" y="259"/>
      <point x="252" y="231"/>
    </contour>
  </outline>
</glyph>
<glyph name="Lslash" format="2">
  <advance width="553"/>
  <unicode hex="0141"/>
  <outline>
    <contour>
      <point x="20" y="313" type="line"/>
      <point x="20" y="212" type="line"/>
      <point x="375" y="392" type="line"/>
      <point x="375" y="493" type="line"/>
    </contour>
    <contour>
      <point x="90" y="0" type="line"/>
      <point x="195" y="0" type="line"/>
      <point x="195" y="690" type="line"/>
      <point x="90" y="690" type="line"/>
    </contour>
    <contour>
      <point x="140" y="96" type="line"/>
      <point x="140" y="0" type="line"/>
      <point x="525" y="0" type="line"/>
      <point x="525" y="96" type="line"/>
    </contour>
  </outline>
</glyph>
<glyph name="Uogonek" format="2">
  <advance width="675"/>
  <unicode hex="0172"/>
  <outline>
    <contour>
      <point x="444" y="7" type="curve" smooth="yes"/>
      <point x="350" y="-27"/>
      <point x="317" y="-65"/>
      <point x="317" y="-89" type="curve"/>
      <point x="317" y="-101"/>
      <point x="325" y="-106"/>
      <point x="338" y="-106" type="curve"/>
      <point x="358" y="-106"/>
      <point x="392" y="-94"/>
      <point x="415" y="-84" type="curve"/>
      <point x="424" y="-165" type="line"/>
      <point x="396" y="-176"/>
      <point x="361" y="-185"/>
      <point x="332" y="-185" type="curve" smooth="yes"/>
      <point x="267" y="-185"/>
      <point x="233" y="-153"/>
      <point x="233" y="-111" type="curve"/>
      <point x="233" y="-69"/>
      <point x="261" y="-37"/>
      <point x="351" y="-2" type="curve"/>
      <point x="351" y="-10" type="line"/>
      <point x="346" y="-10"/>
      <point x="342" y="-10"/>
      <point x="337" y="-10" type="curve" smooth="yes"/>
      <point x="172" y="-10"/>
      <point x="70" y="94"/>
      <point x="70" y="264" type="curve"/>
      <point x="70" y="690" type="line"/>
      <point x="175" y="690" type="line"/>
      <point x="175" y="274" type="line"/>
      <point x="175" y="151"/>
      <point x="231" y="87"/>
      <point x="338" y="87" type="curve" smooth="yes"/>
      <point x="446" y="87"/>
      <point x="503" y="151"/>
      <point x="503" y="274" type="curve"/>
      <point x="503" y="690" type="line"/>
      <point x="605" y="690" type="line"/>
      <point x="605" y="264" type="line"/>
      <point x="605" y="134"/>
      <point x="546" y="43"/>
    </contour>
  </outline>
</glyph>
<glyph name="Schwa" format="2">
  <advance width="697"/>
  <unicode hex="018F"/>
  <outline>
    <contour>
      <point x="153" y="345" type="line"/>
      <point x="153" y="179"/>
      <point x="228" y="87"/>
      <point x="348" y="87" type="curve" smooth="yes"/>
      <point x="469" y="87"/>
      <point x="544" y="179"/>
      <point x="544" y="345" type="curve" smooth="yes"/>
      <point x="544.0" y="512.0"/>
      <point x="468" y="603.0"/>
      <point x="346.0" y="603.0" type="curve"/>
      <point x="262.0" y="603.0"/>
      <point x="200.0" y="560.0"/>
      <point x="169.0" y="480.0" type="curve"/>
      <point x="68.0" y="520.0" type="line"/>
      <point x="116.0" y="635.0"/>
      <point x="218.0" y="700.0"/>
      <point x="346.0" y="700.0" type="curve"/>
      <point x="529" y="700.0"/>
      <point x="653.0" y="566.0"/>
      <point x="653" y="345" type="curve" smooth="yes"/>
      <point x="653" y="125"/>
      <point x="530" y="-10"/>
      <point x="348" y="-10" type="curve" smooth="yes"/>
      <point x="167" y="-10"/>
      <point x="44" y="125"/>
      <point x="44" y="345" type="curve" smooth="yes"/>
      <point x="44" y="356"/>
      <point x="44" y="368"/>
      <point x="45" y="379" type="curve"/>
      <point x="579" y="379" type="line"/>
      <point x="579" y="283" type="line"/>
      <point x="127" y="283" type="line"/>
    </contour>
  </outline>
</glyph>
<glyph name="Nhookleft" format="2">
  <advance width="705"/>
  <unicode hex="019D"/>
  <outline>
    <contour>
      <point x="175" y="-10" type="curve"/>
      <point x="175" y="690" type="line"/>
      <point x="75" y="690" type="line"/>
      <point x="75" y="-7" type="line"/>
      <point x="75" y="-70"/>
      <point x="50" y="-94"/>
      <point x="-7" y="-94" type="curve"/>
      <point x="-24" y="-94"/>
      <point x="-45" y="-90"/>
      <point x="-63" y="-83" type="curve"/>
      <point x="-63" y="-175" type="line"/>
      <point x="-40" y="-182"/>
      <point x="-17" y="-185"/>
      <point x="11" y="-185" type="curve"/>
      <point x="117" y="-185"/>
      <point x="175" y="-123"/>
    </contour>
    <contour>
      <point x="217" y="690" type="line"/>
      <point x="106" y="690" type="line"/>
      <point x="488" y="0" type="line"/>
      <point x="599" y="0" type="line"/>
    </contour>
    <contour>
      <point x="530" y="0" type="line"/>
      <point x="630" y="0" type="line"/>
      <point x="630" y="690" type="line"/>
      <point x="530" y="690" type="line"/>
    </contour>
  </outline>
</glyph>
<glyph name="Oogonek" format="2">
  <advance width="697"/>
  <unicode hex="01EA"/>
  <outline>
    <contour>
      <point x="348" y="87" type="curve" smooth="yes"/>
      <point x="228" y="87"/>
      <point x="153" y="179"/>
      <point x="153" y="345" type="curve" smooth="yes"/>
      <point x="153" y="512"/>
      <point x="228" y="603"/>
      <point x="348" y="603" type="curve" smooth="yes"/>
      <point x="469" y="603"/>
      <point x="544" y="512"/>
      <point x="544" y="345" type="curve" smooth="yes"/>
      <point x="544" y="179"/>
      <point x="469" y="87"/>
    </contour>
    <contour>
      <point x="367.0" y="0.0" type="line"/>
      <point x="278" y="-37.0"/>
      <point x="250.0" y="-69.0"/>
      <point x="250" y="-111" type="curve"/>
      <point x="250" y="-153"/>
      <point x="284" y="-185"/>
      <point x="349" y="-185" type="curve" smooth="yes"/>
      <point x="378" y="-185"/>
      <point x="413" y="-176"/>
      <point x="441" y="-165" type="curve"/>
      <point x="432" y="-84" type="line"/>
      <point x="409" y="-94"/>
      <point x="375" y="-106"/>
      <point x="355" y="-106" type="curve"/>
      <point x="342" y="-106"/>
      <point x="334" y="-101"/>
      <point x="334" y="-89" type="curve"/>
      <point x="334" y="-65"/>
      <point x="367" y="-27"/>
      <point x="459" y="9" type="curve" smooth="yes"/>
      <point x="578" y="55"/>
      <point x="653" y="173"/>
      <point x="653" y="345" type="curve" smooth="yes"/>
      <point x="653" y="566"/>
      <point x="530" y="700"/>
      <point x="348" y="700" type="curve" smooth="yes"/>
      <point x="167" y="700"/>
      <point x="44" y="566"/>
      <point x="44" y="345" type="curve" smooth="yes"/>
      <point x="44" y="125"/>
      <point x="167" y="-10"/>
      <point x="348" y="-10" type="curve" smooth="yes"/>
      <point x="355" y="-10"/>
      <point x="362" y="-10"/>
      <point x="368" y="-9" type="curve"/>
    </contour>
  </outline>
</glyph>
<glyph name="dotlessj" format="2">
  <advance width="230"/>
  <unicode hex="0237"/>
  <anchor x="115" y="530" name="top"/>
  <outline>
    <contour>
      <point x="65" y="-7" type="line"/>
      <point x="65" y="-70"/>
      <point x="40" y="-94"/>
      <point x="-17" y="-94" type="curve"/>
      <point x="-34" y="-94"/>
      <point x="-55" y="-90"/>
      <point x="-73" y="-83" type="curve"/>
      <point x="-73" y="-175" type="line"/>
      <point x="-50" y="-182"/>
      <point x="-27" y="-185"/>
      <point x="1" y="-185" type="curve"/>
      <point x="107" y="-185"/>
      <point x="165" y="-123"/>
      <point x="165" y="-10" type="curve"/>
      <point x="165" y="530" type="line"/>
      <point x="65" y="530" type="line"/>
    </contour>
  </outline>
</glyph>
<glyph name="circumflex" format="2">
  <advance width="500"/>
  <unicode hex="02C6"/>
  <anchor x="250" y="530" name="_top"/>
  <outline>
    <contour>
      <point x="406" y="585" type="line"/>
      <point x="306" y="725" type="line"/>
      <point x="200" y="725" type="line"/>
      <point x="318" y="585" type="line"/>
    </contour>
    <contour>
      <point x="94" y="585" type="line"/>
      <point x="182" y="585" type="line"/>
      <point x="300" y="725" type="line"/>
      <point x="194" y="725" type="line"/>
    </contour>
  </outline>
</glyph>
<glyph name="caron" format="2">
  <advance width="500"/>
  <unicode hex="02C7"/>
  <anchor x="250" y="530" name="_top"/>
  <outline>
    <contour>
      <point x="94" y="725" type="line"/>
      <point x="194" y="585" type="line"/>
      <point x="300" y="585" type="line"/>
      <point x="182" y="725" type="line"/>
    </contour>
    <contour>
      <point x="406" y="725" type="line"/>
      <point x="318" y="725" type="line"/>
      <point x="200" y="585" type="line"/>
      <point x="306" y="585" type="line"/>
    </contour>
  </outline>
</glyph>
<glyph name="macronmod" format="2">
  <advance width="500"/>
  <unicode hex="02C9"/>
  <anchor x="250" y="530" name="_top"/>
  <outline>
    <contour>
      <point x="112" y="621" type="line"/>
      <point x="388" y="621" type="line"/>
      <point x="388" y="705" type="line"/>
      <point x="112" y="705" type="line"/>
    </contour>
  </outline>
</glyph>
<glyph name="breve" format="2">
  <advance width="500"/>
  <unicode hex="02D8"/>
  <anchor x="250" y="530" name="_top"/>
  <outline>
    <contour>
      <point x="250" y="660" type="curve"/>
      <point x="205" y="660"/>
      <point x="181" y="684"/>
      <point x="180" y="725" type="curve"/>
      <point x="110" y="725" type="line"/>
      <point x="112" y="639"/>
      <point x="157" y="585"/>
      <point x="250" y="585" type="curve"/>
      <point x="343" y="585"/>
      <point x="388" y="639"/>
      <point x="390" y="725" type="curve"/>
      <point x="320" y="725" type="line"/>
      <point x="319" y="684"/>
      <point x="295" y="660"/>
    </contour>
  </outline>
</glyph>
<glyph name="tilde" format="2">
  <advance width="500"/>
  <unicode hex="02DC"/>
  <anchor x="250" y="530" name="_top"/>
  <outline>
    <contour>
      <point x="308.0" y="585.0" type="curve"/>
      <point x="361" y="585"/>
      <point x="394" y="639.0"/>
      <point x="400" y="725" type="curve"/>
      <point x="332" y="725" type="line"/>
      <point x="331" y="686"/>
      <point x="322" y="668"/>
      <point x="303.0" y="668.0" type="curve"/>
      <point x="272.0" y="668.0"/>
      <point x="251" y="725"/>
      <point x="192.0" y="725.0" type="curve"/>
      <point x="139" y="725"/>
      <point x="106" y="671.0"/>
      <point x="100" y="585" type="curve"/>
      <point x="168" y="585" type="line"/>
      <point x="169" y="624"/>
      <point x="178" y="642"/>
      <point x="197.0" y="642.0" type="curve"/>
      <point x="229" y="642.0"/>
      <point x="249" y="585"/>
    </contour>
  </outline>
</glyph>
<glyph name="hungarumlaut" format="2">
  <advance width="500"/>
  <unicode hex="02DD"/>
  <anchor x="250" y="530" name="_top"/>
  <outline>
    <contour>
      <point x="147" y="585" type="line"/>
      <point x="228" y="585" type="line"/>
      <point x="298" y="725" type="line"/>
      <point x="197" y="725" type="line"/>
    </contour>
    <contour>
      <point x="277" y="585" type="line"/>
      <point x="358" y="585" type="line"/>
      <point x="458" y="725" type="line"/>
      <point x="347" y="725" type="line"/>
    </contour>
  </outline>
</glyph>
<glyph name="Omega" format="2">
  <advance width="690"/>
  <unicode hex="03A9"/>
  <outline>
    <contour>
      <point x="390.0" y="0" type="line"/>
      <point x="650.0" y="0" type="line"/>
      <point x="650.0" y="96" type="line"/>
      <point x="390.0" y="96" type="line"/>
    </contour>
    <contour>
      <point x="490.0" y="0" type="line"/>
      <point x="490.0" y="180.0" type="line"/>
      <point x="390.0" y="180.0" type="line"/>
      <point x="390.0" y="0" type="line"/>
    </contour>
    <contour>
      <point x="345.0" y="593.0" type="curve"/>
      <point x="466.0" y="593.0"/>
      <point x="544.0" y="521"/>
      <point x="544.0" y="412" type="curve" smooth="yes"/>
      <point x="544.0" y="298"/>
      <point x="480.0" y="228.1"/>
      <point x="390.0" y="205.0" type="curve"/>
      <point x="390.0" y="128.0" type="line"/>
      <point x="536.0" y="152.8664259927798"/>
      <point x="650.0" y="256.4765342960289"/>
      <point x="650.0" y="415" type="curve" smooth="yes"/>
      <point x="650.0" y="585"/>
      <point x="527.0" y="700"/>
      <point x="345.0" y="700" type="curve"/>
      <point x="163.0" y="700.0"/>
      <point x="40.0" y="585.0"/>
      <point x="40.0" y="415.0" type="curve" smooth="yes"/>
      <point x="40.0" y="256.4765342960289"/>
      <point x="154.0" y="152.8664259927798"/>
      <point x="300.0" y="128.0" type="curve"/>
      <point x="300.0" y="205.0" type="line"/>
      <point x="210.0" y="228.1"/>
      <point x="146.0" y="298"/>
      <point x="146.0" y="412.0" type="curve" smooth="yes"/>
      <point x="146.0" y="521.0"/>
      <point x="224.0" y="593.0"/>
    </contour>
    <contour>
      <point x="300.0" y="0.0" type="line"/>
      <point x="300.0" y="96.0" type="line"/>
      <point x="40.0" y="96.0" type="line"/>
      <point x="40.0" y="0.0" type="line"/>
    </contour>
    <contour>
      <point x="200.0" y="0.0" type="line"/>
      <point x="300.0" y="0.0" type="line"/>
      <point x="300.0" y="180.0" type="line"/>
      <point x="200.0" y="180.0" type="line"/>
    </contour>
  </outline>
</glyph>
<glyph name="mu" format="2">
  <advance width="570"/>
  <unicode hex="03BC"/>
  <outline>
    <contour>
      <point x="505" y="530" type="line"/>
      <point x="405" y="530" type="line"/>
      <point x="405" y="0" type="line"/>
      <point x="505" y="0" type="line"/>
    </contour>
    <contour>
      <point x="165" y="-175" type="line"/>
      <point x="165" y="530" type="line"/>
      <point x="65" y="530" type="line"/>
      <point x="65" y="-175" type="line"/>
    </contour>
    <contour>
      <point x="139.0" y="198.0" type="line"/>
      <point x="139.0" y="70.0"/>
      <point x="196" y="-10.0"/>
      <point x="283.0" y="-10.0" type="curve"/>
      <point x="371" y="-10.0"/>
      <point x="434.0" y="79.0"/>
      <point x="434" y="221" type="curve"/>
      <point x="405" y="221" type="line"/>
      <point x="405" y="127"/>
      <point x="352" y="78"/>
      <point x="285" y="78" type="curve"/>
      <point x="218" y="78"/>
      <point x="165" y="127"/>
      <point x="165" y="221" type="curve"/>
    </contour>
  </outline>
</glyph>
<glyph name="pi" format="2">
  <advance width="613"/>
  <unicode hex="03C0"/>
  <outline>
    <contour>
      <point x="485.0" y="143.0" type="curve"/>
      <point x="485" y="530" type="line"/>
      <point x="385" y="530" type="line"/>
      <point x="385.0" y="140.0" type="line"/>
      <point x="385.0" y="44"/>
      <point x="436" y="-10.0"/>
      <point x="527.0" y="-10.0" type="curve"/>
      <point x="551" y="-10.0"/>
      <point x="571.0215053763441" y="-7.0"/>
      <point x="593.0" y="0.0" type="curve"/>
      <point x="593.0" y="89.0" type="line"/>
      <point x="576" y="83.0"/>
      <point x="561" y="80.0"/>
      <point x="545.0" y="80.0" type="curve"/>
      <point x="508" y="80.0"/>
      <point x="485.0" y="96"/>
    </contour>
    <contour>
      <point x="15" y="530" type="line"/>
      <point x="15.0" y="443.0" type="line"/>
      <point x="593.0" y="443.0" type="line"/>
      <point x="593.0" y="530.0" type="line"/>
    </contour>
    <contour>
      <point x="215.0" y="0.0" type="line"/>
      <point x="215" y="530" type="line"/>
      <point x="115" y="530" type="line"/>
      <point x="115" y="0" type="line"/>
    </contour>
  </outline>
</glyph>
<glyph name="endash" format="2">
  <advance width="495"/>
  <unicode hex="2013"/>
  <outline>
    <contour>
      <point x="60" y="346" type="line"/>
      <point x="60" y="261" type="line"/>
      <point x="435" y="261" type="line"/>
      <point x="435" y="346" type="line"/>
    </contour>
  </outline>
</glyph>
<glyph name="emdash" format="2">
  <advance width="815"/>
  <unicode hex="2014"/>
  <outline>
    <contour>
      <point x="30" y="346" type="line"/>
      <point x="30" y="261" type="line"/>
      <point x="785" y="261" type="line"/>
      <point x="785" y="346" type="line"/>
    </contour>
  </outline>
</glyph>
<glyph name="quoteleft" format="2">
  <advance width="192"/>
  <unicode hex="2018"/>
  <outline>
    <contour>
      <point x="148" y="417" type="line"/>
      <point x="148" y="690" type="line"/>
      <point x="78" y="690" type="line"/>
      <point x="34" y="417" type="line"/>
    </contour>
  </outline>
</glyph>
<glyph name="quoteright" format="2">
  <advance width="192"/>
  <unicode hex="2019"/>
  <outline>
    <contour>
      <point x="44" y="690" type="line"/>
      <point x="44" y="417" type="line"/>
      <point x="114" y="417" type="line"/>
      <point x="158" y="690" type="line"/>
    </contour>
  </outline>
</glyph>
<glyph name="quotesinglbase" format="2">
  <advance width="192"/>
  <unicode hex="201A"/>
  <outline>
    <contour>
      <point x="44" y="113" type="line"/>
      <point x="44" y="-160" type="line"/>
      <point x="114" y="-160" type="line"/>
      <point x="158" y="113" type="line"/>
    </contour>
  </outline>
</glyph>
<glyph name="quotedblleft" format="2">
  <advance width="352"/>
  <unicode hex="201C"/>
  <outline>
    <contour>
      <point x="308" y="417" type="line"/>
      <point x="308" y="690" type="line"/>
      <point x="238" y="690" type="line"/>
      <point x="194" y="417" type="line"/>
    </contour>
    <contour>
      <point x="148" y="417" type="line"/>
      <point x="148" y="690" type="line"/>
      <point x="78" y="690" type="line"/>
      <point x="34" y="417" type="line"/>
    </contour>
  </outline>
</glyph>
<glyph name="quotedblright" format="2">
  <advance width="352"/>
  <unicode hex="201D"/>
  <outline>
    <contour>
      <point x="44" y="690" type="line"/>
      <point x="44" y="417" type="line"/>
      <point x="114" y="417" type="line"/>
      <point x="158" y="690" type="line"/>
    </contour>
    <contour>
      <point x="204" y="690" type="line"/>
      <point x="204" y="417" type="line"/>
      <point x="274" y="417" type="line"/>
      <point x="318" y="690" type="line"/>
    </contour>
  </outline>
</glyph>
<glyph name="dagger" format="2">
  <advance width="390"/>
  <unicode hex="2020"/>
  <outline>
    <contour>
      <point x="143" y="690" type="line"/>
      <point x="143" y="311" type="line"/>
      <point x="164" y="0" type="line"/>
      <point x="226" y="0" type="line"/>
      <point x="248" y="311" type="line"/>
      <point x="248" y="690" type="line"/>
    </contour>
    <contour>
      <point x="30" y="530" type="line"/>
      <point x="30" y="443" type="line"/>
      <point x="360" y="443" type="line"/>
      <point x="360" y="530" type="line"/>
    </contour>
  </outline>
</glyph>
<glyph name="daggerdbl" format="2">
  <advance width="390"/>
  <unicode hex="2021"/>
  <outline>
    <contour>
      <point x="30" y="530" type="line"/>
      <point x="30" y="443" type="line"/>
      <point x="360" y="443" type="line"/>
      <point x="360" y="530" type="line"/>
    </contour>
    <contour>
      <point x="143" y="0" type="line"/>
      <point x="248" y="0" type="line"/>
      <point x="248" y="690" type="line"/>
      <point x="143" y="690" type="line"/>
    </contour>
    <contour>
      <point x="30" y="160" type="line"/>
      <point x="360" y="160" type="line"/>
      <point x="360" y="247" type="line"/>
      <point x="30" y="247" type="line"/>
    </contour>
  </outline>
</glyph>
<glyph name="bullet" format="2">
  <advance width="285"/>
  <unicode hex="2022"/>
  <outline>
    <contour>
      <point x="143.0" y="203" type="curve" smooth="yes"/>
      <point x="197.0" y="203"/>
      <point x="235.0" y="243"/>
      <point x="235.0" y="296" type="curve" smooth="yes"/>
      <point x="235.0" y="352"/>
      <point x="197.0" y="392"/>
      <point x="143.0" y="392" type="curve" smooth="yes"/>
      <point x="89.0" y="392"/>
      <point x="50.0" y="352"/>
      <point x="50.0" y="296" type="curve" smooth="yes"/>
      <point x="50.0" y="243"/>
      <point x="89.0" y="203"/>
    </contour>
  </outline>
</glyph>
<glyph name="ellipsis" format="2">
  <advance width="660"/>
  <unicode hex="2026"/>
  <outline>
    <contour>
      <point x="110.0" y="-10.0" type="curve" smooth="yes"/>
      <point x="148" y="-10.0"/>
      <point x="175.0" y="18"/>
      <point x="175.0" y="56.0" type="curve" smooth="yes"/>
      <point x="175.0" y="95"/>
      <point x="148" y="123.0"/>
      <point x="110.0" y="123.0" type="curve" smooth="yes"/>
      <point x="72" y="123.0"/>
      <point x="45.0" y="95"/>
      <point x="45.0" y="56.0" type="curve" smooth="yes"/>
      <point x="45.0" y="18"/>
      <point x="72" y="-10.0"/>
    </contour>
    <contour>
      <point x="330.0" y="-10.0" type="curve" smooth="yes"/>
      <point x="368" y="-10.0"/>
      <point x="395.0" y="18"/>
      <point x="395.0" y="56.0" type="curve" smooth="yes"/>
      <point x="395.0" y="95"/>
      <point x="368" y="123.0"/>
      <point x="330.0" y="123.0" type="curve" smooth="yes"/>
      <point x="292" y="123.0"/>
      <point x="265.0" y="95"/>
      <point x="265.0" y="56.0" type="curve" smooth="yes"/>
      <point x="265.0" y="18"/>
      <point x="292" y="-10.0"/>
    </contour>
    <contour>
      <point x="550.0" y="-10.0" type="curve" smooth="yes"/>
      <point x="588" y="-10.0"/>
      <point x="615.0" y="18"/>
      <point x="615.0" y="56.0" type="curve" smooth="yes"/>
      <point x="615.0" y="95"/>
      <point x="588" y="123.0"/>
      <point x="550.0" y="123.0" type="curve" smooth="yes"/>
      <point x="512" y="123.0"/>
      <point x="485.0" y="95"/>
      <point x="485.0" y="56.0" type="curve" smooth="yes"/>
      <point x="485.0" y="18"/>
      <point x="512" y="-10.0"/>
    </contour>
  </outline>
</glyph>
<glyph name="perthousand" format="2">
  <advance width="1089"/>
  <unicode hex="2030"/>
  <outline>
    <contour>
      <point x="359" y="537" type="curve"/>
      <point x="359" y="633"/>
      <point x="294" y="700"/>
      <point x="199" y="700" type="curve" smooth="yes"/>
      <point x="105" y="700"/>
      <point x="40" y="633"/>
      <point x="40" y="537" type="curve"/>
      <point x="40" y="441"/>
      <point x="105" y="374"/>
      <point x="199" y="374" type="curve" smooth="yes"/>
      <point x="294" y="374"/>
      <point x="359" y="441"/>
    </contour>
    <contour>
      <point x="127" y="537" type="curve"/>
      <point x="127" y="592"/>
      <point x="158" y="624"/>
      <point x="199" y="624" type="curve" smooth="yes"/>
      <point x="241" y="624"/>
      <point x="272" y="592"/>
      <point x="272" y="537" type="curve"/>
      <point x="272" y="482"/>
      <point x="241" y="450"/>
      <point x="199" y="450" type="curve" smooth="yes"/>
      <point x="158" y="450"/>
      <point x="127" y="482"/>
    </contour>
    <contour>
      <point x="699" y="153" type="curve"/>
      <point x="699" y="249"/>
      <point x="634" y="316"/>
      <point x="539" y="316" type="curve" smooth="yes"/>
      <point x="445" y="316"/>
      <point x="380" y="249"/>
      <point x="380" y="153" type="curve"/>
      <point x="380" y="57"/>
      <point x="445" y="-10"/>
      <point x="539" y="-10" type="curve" smooth="yes"/>
      <point x="634" y="-10"/>
      <point x="699" y="57"/>
    </contour>
    <contour>
      <point x="467" y="153" type="curve"/>
      <point x="467" y="208"/>
      <point x="498" y="240"/>
      <point x="539" y="240" type="curve" smooth="yes"/>
      <point x="581" y="240"/>
      <point x="612" y="208"/>
      <point x="612" y="153" type="curve"/>
      <point x="612" y="98"/>
      <point x="581" y="66"/>
      <point x="539" y="66" type="curve" smooth="yes"/>
      <point x="498" y="66"/>
      <point x="467" y="98"/>
    </contour>
    <contour>
      <point x="100" y="0" type="line"/>
      <point x="203" y="0" type="line"/>
      <point x="639" y="690" type="line"/>
      <point x="536" y="690" type="line"/>
    </contour>
    <contour>
      <point x="1049" y="153" type="curve"/>
      <point x="1049" y="249"/>
      <point x="984" y="316"/>
      <point x="889" y="316" type="curve" smooth="yes"/>
      <point x="795" y="316"/>
      <point x="730" y="249"/>
      <point x="730" y="153" type="curve"/>
      <point x="730" y="57"/>
      <point x="795" y="-10"/>
      <point x="889" y="-10" type="curve" smooth="yes"/>
      <point x="984" y="-10"/>
      <point x="1049" y="57"/>
    </contour>
    <contour>
      <point x="817" y="153" type="curve"/>
      <point x="817" y="208"/>
      <point x="848" y="240"/>
      <point x="889" y="240" type="curve" smooth="yes"/>
      <point x="931" y="240"/>
      <point x="962" y="208"/>
      <point x="962" y="153" type="curve"/>
      <point x="962" y="98"/>
      <point x="931" y="66"/>
      <point x="889" y="66" type="curve" smooth="yes"/>
      <point x="848" y="66"/>
      <point x="817" y="98"/>
    </contour>
  </outline>
</glyph>
<glyph name="guilsinglleft" format="2">
  <advance width="252"/>
  <unicode hex="2039"/>
  <outline>
    <contour>
      <point x="20" y="323" type="line"/>
      <point x="20" y="257" type="line"/>
      <point x="104" y="290" type="line"/>
      <point x="247" y="500" type="line"/>
      <point x="140" y="500" type="line"/>
    </contour>
    <contour>
      <point x="140" y="80" type="line"/>
      <point x="247" y="80" type="line"/>
      <point x="104" y="290" type="line"/>
      <point x="20" y="323" type="line"/>
      <point x="20" y="257" type="line"/>
    </contour>
  </outline>
</glyph>
<glyph name="guilsinglright" format="2">
  <advance width="252"/>
  <unicode hex="203A"/>
  <outline>
    <contour>
      <point x="232" y="323" type="line"/>
      <point x="112" y="500" type="line"/>
      <point x="5" y="500" type="line"/>
      <point x="148" y="290" type="line"/>
      <point x="232" y="257" type="line"/>
    </contour>
    <contour>
      <point x="112" y="80" type="line"/>
      <point x="232" y="257" type="line"/>
      <point x="232" y="323" type="line"/>
      <point x="148" y="290" type="line"/>
      <point x="5" y="80" type="line"/>
    </contour>
  </outline>
</glyph>
<glyph name="fraction" format="2">
  <advance width="499"/>
  <unicode hex="2044"/>
  <outline>
    <contour>
      <point x="-20" y="0" type="line"/>
      <point x="83" y="0" type="line"/>
      <point x="519" y="690" type="line"/>
      <point x="416" y="690" type="line"/>
    </contour>
  </outline>
</glyph>
<glyph name="numero" format="2">
  <advance width="1019"/>
  <unicode hex="2116"/>
  <outline>
    <contour>
      <point x="210" y="690" type="line"/>
      <point x="101" y="690" type="line"/>
      <point x="445" y="0" type="line"/>
      <point x="554" y="0" type="line"/>
    </contour>
    <contour>
      <point x="70" y="0" type="line"/>
      <point x="170" y="0" type="line"/>
      <point x="170" y="690" type="line"/>
      <point x="70" y="690" type="line"/>
    </contour>
    <contour>
      <point x="485" y="0" type="line"/>
      <point x="585" y="0" type="line"/>
      <point x="585" y="690" type="line"/>
      <point x="485" y="690" type="line"/>
    </contour>
    <contour>
      <point x="979" y="537" type="curve"/>
      <point x="979" y="633"/>
      <point x="914" y="700"/>
      <point x="819" y="700" type="curve" smooth="yes"/>
      <point x="725" y="700"/>
      <point x="660" y="633"/>
      <point x="660" y="537" type="curve"/>
      <point x="660" y="441"/>
      <point x="725" y="374"/>
      <point x="819" y="374" type="curve" smooth="yes"/>
      <point x="914" y="374"/>
      <point x="979" y="441"/>
    </contour>
    <contour>
      <point x="747" y="537" type="curve"/>
      <point x="747" y="592"/>
      <point x="778" y="624"/>
      <point x="819" y="624" type="curve" smooth="yes"/>
      <point x="861" y="624"/>
      <point x="892" y="592"/>
      <point x="892" y="537" type="curve"/>
      <point x="892" y="482"/>
      <point x="861" y="450"/>
      <point x="819" y="450" type="curve" smooth="yes"/>
      <point x="778" y="450"/>
      <point x="747" y="482"/>
    </contour>
    <contour>
      <point x="819" y="191" type="curve" smooth="yes"/>
      <point x="857" y="191"/>
      <point x="884" y="219"/>
      <point x="884" y="257" type="curve" smooth="yes"/>
      <point x="884" y="296"/>
      <point x="857" y="324"/>
      <point x="819" y="324" type="curve" smooth="yes"/>
      <point x="781" y="324"/>
      <point x="754" y="296"/>
      <point x="754" y="257" type="curve" smooth="yes"/>
      <point x="754" y="219"/>
      <point x="781" y="191"/>
    </contour>
  </outline>
</glyph>
<glyph name="trademark" format="2">
  <advance width="690"/>
  <unicode hex="2122"/>
  <outline>
    <contour>
      <point x="100" y="384.0" type="line"/>
      <point x="177" y="384.0" type="line"/>
      <point x="177" y="690" type="line"/>
      <point x="100" y="690" type="line"/>
    </contour>
    <contour>
      <point x="15" y="690" type="line"/>
      <point x="15" y="617" type="line"/>
      <point x="262" y="617" type="line"/>
      <point x="262" y="690" type="line"/>
    </contour>
    <contour>
      <point x="430" y="690" type="line"/>
      <point x="358" y="690" type="line"/>
      <point x="411" y="384.0" type="line"/>
      <point x="476" y="384.0" type="line"/>
    </contour>
    <contour>
      <point x="293" y="384.0" type="line"/>
      <point x="366" y="384.0" type="line"/>
      <point x="366" y="690" type="line"/>
      <point x="293" y="690" type="line"/>
    </contour>
    <contour>
      <point x="508" y="690" type="line"/>
      <point x="459" y="384.0" type="line"/>
      <point x="523" y="384.0" type="line"/>
      <point x="576" y="690" type="line"/>
    </contour>
    <contour>
      <point x="568" y="384.0" type="line"/>
      <point x="645" y="384.0" type="line"/>
      <point x="645" y="690" type="line"/>
      <point x="568" y="690" type="line"/>
    </contour>
  </outline>
</glyph>
<glyph name="estimated" format="2">
  <advance width="838"/>
  <unicode hex="212E"/>
  <outline>
    <contour>
      <point x="95.0" y="230.0" type="line"/>
      <point x="230" y="60" type="line"/>
      <point x="230" y="627" type="line"/>
      <point x="95.0" y="457.0" type="line"/>
    </contour>
    <contour>
      <point x="743.0" y="341.0" type="line"/>
      <point x="743.0" y="457.0" type="line"/>
      <point x="608" y="627" type="line"/>
      <point x="608" y="341" type="line"/>
    </contour>
    <contour>
      <point x="126" y="327" type="line"/>
      <point x="768" y="327" type="line"/>
      <point x="768" y="345" type="line"/>
      <point x="737" y="372" type="line"/>
      <point x="126" y="372" type="line"/>
    </contour>
    <contour>
      <point x="768" y="345" type="line"/>
      <point x="768" y="540"/>
      <point x="611" y="700"/>
      <point x="419" y="700" type="curve" smooth="yes"/>
      <point x="227" y="700"/>
      <point x="70" y="540"/>
      <point x="70" y="345" type="curve" smooth="yes"/>
      <point x="70.0" y="149.99999999999997"/>
      <point x="233.74785100286522" y="-10.0"/>
      <point x="434.0" y="-10.0" type="curve" smooth="yes"/>
      <point x="568.0" y="-10.0"/>
      <point x="684.0" y="67.00000000000001"/>
      <point x="743.0" y="180.0" type="curve"/>
      <point x="708.0" y="201.0" type="line"/>
      <point x="657.0" y="99.0"/>
      <point x="553.0" y="30.0"/>
      <point x="434.0" y="30.0" type="curve" smooth="yes"/>
      <point x="255.747572815534" y="30.0"/>
      <point x="110.0" y="171.0"/>
      <point x="110" y="345" type="curve" smooth="yes"/>
      <point x="110" y="519"/>
      <point x="249" y="660"/>
      <point x="419" y="660" type="curve" smooth="yes"/>
      <point x="589" y="660"/>
      <point x="728" y="519"/>
      <point x="728" y="345" type="curve"/>
    </contour>
  </outline>
</glyph>
<glyph name="increment" format="2">
  <advance width="654"/>
  <unicode hex="2206"/>
  <outline>
    <contour>
      <point x="93" y="96" type="line"/>
      <point x="93" y="0" type="line"/>
      <point x="561" y="0" type="line"/>
      <point x="561" y="96" type="line"/>
    </contour>
    <contour>
      <point x="403" y="690" type="line"/>
      <point x="301" y="690" type="line"/>
      <point x="532" y="0" type="line"/>
      <point x="642" y="0" type="line"/>
    </contour>
    <contour>
      <point x="345" y="690" type="line"/>
      <point x="251" y="690" type="line"/>
      <point x="12" y="0" type="line"/>
      <point x="119" y="0" type="line"/>
    </contour>
  </outline>
</glyph>
<glyph name="product" format="2">
  <advance width="685"/>
  <unicode hex="220F"/>
  <outline>
    <contour>
      <point x="125" y="-175" type="line"/>
      <point x="230" y="-175" type="line"/>
      <point x="230" y="690" type="line"/>
      <point x="125" y="690" type="line"/>
    </contour>
    <contour>
      <point x="25" y="690" type="line"/>
      <point x="25" y="594" type="line"/>
      <point x="660" y="594" type="line"/>
      <point x="660" y="690" type="line"/>
    </contour>
    <contour>
      <point x="455" y="-175" type="line"/>
      <point x="560" y="-175" type="line"/>
      <point x="560" y="690" type="line"/>
      <point x="455" y="690" type="line"/>
    </contour>
  </outline>
</glyph>
<glyph name="minus" format="2">
  <advance width="533"/>
  <unicode hex="2212"/>
  <outline>
    <contour>
      <point x="60" y="344" type="line"/>
      <point x="60" y="263" type="line"/>
      <point x="473" y="263" type="line"/>
      <point x="473" y="344" type="line"/>
    </contour>
  </outline>
</glyph>
<glyph name="divisionslash" format="2">
  <advance width="292"/>
  <unicode hex="2215"/>
  <outline>
    <contour>
      <point x="0" y="-120" type="line"/>
      <point x="92" y="-120" type="line"/>
      <point x="292" y="770" type="line"/>
      <point x="200" y="770" type="line"/>
    </contour>
  </outline>
</glyph>
<glyph name="bulletoperator" format="2">
  <advance width="285"/>
  <unicode hex="2219"/>
  <outline>
    <contour>
      <point x="143.0" y="203" type="curve" smooth="yes"/>
      <point x="197.0" y="203"/>
      <point x="235.0" y="243"/>
      <point x="235.0" y="296" type="curve" smooth="yes"/>
      <point x="235.0" y="352"/>
      <point x="197.0" y="392"/>
      <point x="143.0" y="392" type="curve" smooth="yes"/>
      <point x="89.0" y="392"/>
      <point x="50.0" y="352"/>
      <point x="50.0" y="296" type="curve" smooth="yes"/>
      <point x="50.0" y="243"/>
      <point x="89.0" y="203"/>
    </contour>
  </outline>
</glyph>
<glyph name="infinity" format="2">
  <advance width="839"/>
  <unicode hex="221E"/>
  <outline>
    <contour>
      <point x="594.0" y="120.0" type="curve"/>
      <point x="699.0" y="120.0"/>
      <point x="774.0" y="201"/>
      <point x="774.0" y="303.0" type="curve"/>
      <point x="774.0" y="405"/>
      <point x="699.0" y="486"/>
      <point x="594.0" y="486.0" type="curve"/>
      <point x="390.0" y="486.0"/>
      <point x="395.0" y="196.0"/>
      <point x="249.0" y="196.0" type="curve" smooth="yes"/>
      <point x="194.0" y="196"/>
      <point x="151.0" y="242"/>
      <point x="151.0" y="303.0" type="curve"/>
      <point x="151.0" y="364"/>
      <point x="193.82859848484844" y="410.0"/>
      <point x="249.0" y="410.0" type="curve"/>
      <point x="395.0" y="410.0"/>
      <point x="380.0" y="120.0"/>
    </contour>
    <contour>
      <point x="244.0" y="486.0" type="curve"/>
      <point x="140.0" y="486.0"/>
      <point x="65.0" y="405"/>
      <point x="65.0" y="303.0" type="curve"/>
      <point x="65.0" y="201"/>
      <point x="140.0" y="120"/>
      <point x="244.0" y="120.0" type="curve"/>
      <point x="449.0" y="120.0"/>
      <point x="444.0" y="410.0"/>
      <point x="589.0" y="410.0" type="curve" smooth="yes"/>
      <point x="645.0" y="410"/>
      <point x="688.0" y="364"/>
      <point x="688.0" y="303.0" type="curve"/>
      <point x="688.0" y="242"/>
      <point x="645.0" y="196.0"/>
      <point x="589.0" y="196.0" type="curve"/>
      <point x="444.0" y="196.0"/>
      <point x="459.0" y="486.0"/>
    </contour>
  </outline>
</glyph>
<glyph name="approxequal" format="2">
  <advance width="533"/>
  <unicode hex="2248"/>
  <outline>
    <contour>
      <point x="60" y="444" type="curve"/>
      <point x="60" y="363" type="line"/>
      <point x="94" y="375"/>
      <point x="128" y="383"/>
      <point x="162" y="383" type="curve"/>
      <point x="242" y="383"/>
      <point x="291" y="343"/>
      <point x="371" y="343" type="curve"/>
      <point x="405" y="343"/>
      <point x="439" y="351"/>
      <point x="473" y="363" type="curve"/>
      <point x="473" y="444" type="line"/>
      <point x="439" y="432"/>
      <point x="405" y="424"/>
      <point x="371" y="424" type="curve"/>
      <point x="291" y="424"/>
      <point x="242" y="464"/>
      <point x="162" y="464" type="curve"/>
      <point x="128" y="464"/>
      <point x="94" y="456"/>
    </contour>
    <contour>
      <point x="60" y="244" type="curve"/>
      <point x="60" y="163" type="line"/>
      <point x="94" y="175"/>
      <point x="128" y="183"/>
      <point x="162" y="183" type="curve"/>
      <point x="242" y="183"/>
      <point x="291" y="143"/>
      <point x="371" y="143" type="curve"/>
      <point x="405" y="143"/>
      <point x="439" y="151"/>
      <point x="473" y="163" type="curve"/>
      <point x="473" y="244" type="line"/>
      <point x="439" y="232"/>
      <point x="405" y="224"/>
      <point x="371" y="224" type="curve"/>
      <point x="291" y="224"/>
      <point x="242" y="264"/>
      <point x="162" y="264" type="curve"/>
      <point x="128" y="264"/>
      <point x="94" y="256"/>
    </contour>
  </outline>
</glyph>
<glyph name="notequal" format="2">
  <advance width="533"/>
  <unicode hex="2260"/>
  <outline>
    <contour>
      <point x="60" y="444" type="line"/>
      <point x="60" y="363" type="line"/>
      <point x="473" y="363" type="line"/>
      <point x="473" y="444" type="line"/>
    </contour>
    <contour>
      <point x="60" y="244" type="line"/>
      <point x="60" y="163" type="line"/>
      <point x="473" y="163" type="line"/>
      <point x="473" y="244" type="line"/>
    </contour>
    <contour>
      <point x="412" y="515" type="line"/>
      <point x="321" y="515" type="line"/>
      <point x="121" y="92" type="line"/>
      <point x="212" y="92" type="line"/>
    </contour>
  </outline>
</glyph>
<glyph name="lessequal" format="2">
  <advance width="533"/>
  <unicode hex="2264"/>
  <outline>
    <contour>
      <point x="60" y="404" type="line"/>
      <point x="60" y="302" type="line"/>
      <point x="159" y="354" type="line"/>
      <point x="473" y="429" type="line"/>
      <point x="473" y="513" type="line"/>
    </contour>
    <contour>
      <point x="473" y="193" type="line"/>
      <point x="473" y="279" type="line"/>
      <point x="159" y="354" type="line"/>
      <point x="60" y="404" type="line"/>
      <point x="60" y="302" type="line"/>
    </contour>
    <contour>
      <point x="60" y="174" type="line"/>
      <point x="60" y="93" type="line"/>
      <point x="473" y="93" type="line"/>
      <point x="473" y="174" type="line"/>
    </contour>
  </outline>
</glyph>
<glyph name="f_f" format="2">
  <advance width="663"/>
  <unicode hex="FB00"/>
  <outline>
    <contour>
      <point x="505" y="557" type="line"/>
      <point x="505" y="606"/>
      <point x="533" y="636"/>
      <point x="586" y="636" type="curve"/>
      <point x="609" y="636"/>
      <point x="628" y="632"/>
      <point x="648" y="625" type="curve"/>
      <point x="648" y="715" type="line"/>
      <point x="623" y="722"/>
      <point x="603" y="725"/>
      <point x="576" y="725" type="curve"/>
      <point x="468" y="725"/>
      <point x="405" y="667"/>
      <point x="405" y="550" type="curve"/>
      <point x="405" y="0" type="line"/>
      <point x="505" y="0" type="line"/>
    </contour>
    <contour>
      <point x="185" y="557" type="line"/>
      <point x="185" y="606"/>
      <point x="213" y="636"/>
      <point x="266" y="636" type="curve"/>
      <point x="289" y="636"/>
      <point x="308" y="632"/>
      <point x="328" y="625" type="curve"/>
      <point x="328" y="715" type="line"/>
      <point x="303" y="722"/>
      <point x="283" y="725"/>
      <point x="256" y="725" type="curve"/>
      <point x="148" y="725"/>
      <point x="85" y="667"/>
      <point x="85" y="550" type="curve"/>
      <point x="85" y="0" type="line"/>
      <point x="185" y="0" type="line"/>
    </contour>
    <contour>
      <point x="10" y="443" type="line"/>
      <point x="643" y="443" type="line"/>
      <point x="643" y="530" type="line"/>
      <point x="10" y="530" type="line"/>
    </contour>
  </outline>
</glyph>
<glyph name="f_f_i" format="2">
  <advance width="890"/>
  <unicode hex="FB03"/>
  <outline>
    <contour>
      <point x="505" y="557" type="line"/>
      <point x="505" y="606"/>
      <point x="533" y="636"/>
      <point x="586" y="636" type="curve"/>
      <point x="609" y="636"/>
      <point x="628" y="632"/>
      <point x="648" y="625" type="curve"/>
      <point x="648" y="715" type="line"/>
      <point x="623" y="722"/>
      <point x="603" y="725"/>
      <point x="576" y="725" type="curve"/>
      <point x="468" y="725"/>
      <point x="405" y="667"/>
      <point x="405" y="550" type="curve"/>
      <point x="405" y="0" type="line"/>
      <point x="505" y="0" type="line"/>
    </contour>
    <contour>
      <point x="725" y="0" type="line"/>
      <point x="825" y="0" type="line"/>
      <point x="825" y="530" type="line"/>
      <point x="725" y="530" type="line"/>
    </contour>
    <contour>
      <point x="775" y="602" type="curve" smooth="yes"/>
      <point x="810" y="602"/>
      <point x="837" y="627"/>
      <point x="837" y="663" type="curve" smooth="yes"/>
      <point x="837" y="700"/>
      <point x="810" y="725"/>
      <point x="775" y="725" type="curve" smooth="yes"/>
      <point x="740" y="725"/>
      <point x="713" y="700"/>
      <point x="713" y="663" type="curve" smooth="yes"/>
      <point x="713" y="627"/>
      <point x="740" y="602"/>
    </contour>
    <contour>
      <point x="185" y="557" type="line"/>
      <point x="185" y="606"/>
      <point x="213" y="636"/>
      <point x="266" y="636" type="curve"/>
      <point x="289" y="636"/>
      <point x="308" y="632"/>
      <point x="328" y="625" type="curve"/>
      <point x="328" y="715" type="line"/>
      <point x="303" y="722"/>
      <point x="283" y="725"/>
      <point x="256" y="725" type="curve"/>
      <point x="148" y="725"/>
      <point x="85" y="667"/>
      <point x="85" y="550" type="curve"/>
      <point x="85" y="0" type="line"/>
      <point x="185" y="0" type="line"/>
    </contour>
    <contour>
      <point x="10" y="443" type="line"/>
      <point x="773" y="443" type="line"/>
      <point x="773" y="530" type="line"/>
      <point x="10" y="530" type="line"/>
    </contour>
  </outline>
</glyph>
<glyph name="acute.cap" format="2">
  <advance width="500"/>
  <anchor x="250" y="690" name="_top"/>
  <outline>
    <contour>
      <point x="189" y="735" type="line"/>
      <point x="283" y="735" type="line"/>
      <point x="420" y="845" type="line"/>
      <point x="289" y="845" type="line"/>
    </contour>
  </outline>
</glyph>
<glyph name="breve.cap" format="2">
  <advance width="500"/>
  <anchor x="250" y="690" name="_top"/>
  <outline>
    <contour>
      <point x="250.0" y="805.0" type="curve"/>
      <point x="195" y="805.0"/>
      <point x="174" y="820"/>
      <point x="170.0" y="845.0" type="curve"/>
      <point x="100.0" y="845.0" type="line"/>
      <point x="105" y="777"/>
      <point x="153" y="735.0"/>
      <point x="250.0" y="735.0" type="curve"/>
      <point x="347" y="735.0"/>
      <point x="395" y="777"/>
      <point x="400.0" y="845.0" type="curve"/>
      <point x="330.0" y="845.0" type="line"/>
      <point x="326" y="820"/>
      <point x="305" y="805.0"/>
    </contour>
  </outline>
</glyph>
<glyph name="caron.alt" format="2">
  <advance width="500"/>
  <outline>
    <contour>
      <point x="203" y="715" type="line"/>
      <point x="203" y="442" type="line"/>
      <point x="263" y="442" type="line"/>
      <point x="307" y="715" type="line"/>
    </contour>
  </outline>
</glyph>
<glyph name="caron.cap" format="2">
  <advance width="500"/>
  <anchor x="250" y="690" name="_top"/>
  <outline>
    <contour>
      <point x="433" y="845" type="line"/>
      <point x="334" y="845" type="line"/>
      <point x="185" y="735" type="line"/>
      <point x="319" y="735" type="line"/>
    </contour>
    <contour>
      <point x="67" y="845" type="line"/>
      <point x="181" y="735" type="line"/>
      <point x="315" y="735" type="line"/>
      <point x="166" y="845" type="line"/>
    </contour>
  </outline>
</glyph>
<glyph name="circumflex.cap" format="2">
  <advance width="500"/>
  <anchor x="250" y="690" name="_top"/>
  <outline>
    <contour>
      <point x="67" y="735" type="line"/>
      <point x="166" y="735" type="line"/>
      <point x="315" y="845" type="line"/>
      <point x="181" y="845" type="line"/>
    </contour>
    <contour>
      <point x="433" y="735" type="line"/>
      <point x="319" y="845" type="line"/>
      <point x="185" y="845" type="line"/>
      <point x="334" y="735" type="line"/>
    </contour>
  </outline>
</glyph>
<glyph name="commaaccent.alt" format="2">
  <advance width="500"/>
  <anchor x="250" y="530.0" name="_top"/>
  <outline>
    <contour>
      <point x="297" y="602" type="line"/>
      <point x="297" y="805" type="line"/>
      <point x="234" y="805" type="line"/>
      <point x="193" y="602" type="line"/>
    </contour>
  </outline>
</glyph>
<glyph name="commaaccent" format="2">
  <advance width="500"/>
  <anchor x="250" y="0" name="_bottom"/>
  <outline>
    <contour>
      <point x="203" y="-72" type="line"/>
      <point x="203" y="-275" type="line"/>
      <point x="266" y="-275" type="line"/>
      <point x="307" y="-72" type="line"/>
    </contour>
  </outline>
</glyph>
<glyph name="dieresis.cap" format="2">
  <advance width="500"/>
  <anchor x="250" y="690" name="_top"/>
  <outline>
    <contour>
      <point x="149.0" y="742.0" type="curve" smooth="yes"/>
      <point x="181" y="742.0"/>
      <point x="206.0" y="765"/>
      <point x="206.0" y="798.0" type="curve" smooth="yes"/>
      <point x="206.0" y="832"/>
      <point x="181" y="855.0"/>
      <point x="149" y="855" type="curve" smooth="yes"/>
      <point x="117" y="855.0"/>
      <point x="92.0" y="832"/>
      <point x="92.0" y="798.0" type="curve" smooth="yes"/>
      <point x="92.0" y="765"/>
      <point x="117" y="742.0"/>
    </contour>
    <contour>
      <point x="351.0" y="742.0" type="curve" smooth="yes"/>
      <point x="383" y="742.0"/>
      <point x="408.0" y="765"/>
      <point x="408.0" y="798.0" type="curve" smooth="yes"/>
      <point x="408.0" y="832"/>
      <point x="383" y="855.0"/>
      <point x="351" y="855" type="curve" smooth="yes"/>
      <point x="319" y="855.0"/>
      <point x="294.0" y="832"/>
      <point x="294.0" y="798.0" type="curve" smooth="yes"/>
      <point x="294.0" y="765"/>
      <point x="319" y="742.0"/>
    </contour>
  </outline>
</glyph>
<glyph name="dotaccent.cap" format="2">
  <advance width="500"/>
  <anchor x="250" y="690" name="_top"/>
  <outline>
    <contour>
      <point x="250" y="735" type="curve" smooth="yes"/>
      <point x="285" y="735"/>
      <point x="312" y="760"/>
      <point x="312" y="796" type="curve" smooth="yes"/>
      <point x="312" y="833"/>
      <point x="285" y="858"/>
      <point x="250" y="858" type="curve" smooth="yes"/>
      <point x="215" y="858"/>
      <point x="188" y="833"/>
      <point x="188" y="796" type="curve" smooth="yes"/>
      <point x="188" y="760"/>
      <point x="215" y="735"/>
    </contour>
  </outline>
</glyph>
<glyph name="eight.tab" format="2">
  <advance width="600"/>
  <outline>
    <contour>
      <point x="300.0" y="-10.0" type="curve" smooth="yes"/>
      <point x="458" y="-10.0"/>
      <point x="550.0" y="73.0"/>
      <point x="550.0" y="191.0" type="curve"/>
      <point x="550.0" y="304.0"/>
      <point x="453" y="385.0"/>
      <point x="300.0" y="385.0" type="curve" smooth="yes"/>
      <point x="148" y="385.0"/>
      <point x="51.0" y="304.0"/>
      <point x="51.0" y="191.0" type="curve"/>
      <point x="51.0" y="73.0"/>
      <point x="143" y="-10.0"/>
    </contour>
    <contour>
      <point x="300.0" y="81.0" type="curve" smooth="yes"/>
      <point x="202" y="81.0"/>
      <point x="157.0" y="130"/>
      <point x="157.0" y="196.0" type="curve"/>
      <point x="157.0" y="271"/>
      <point x="208" y="319.0"/>
      <point x="300.0" y="319.0" type="curve" smooth="yes"/>
      <point x="393" y="319.0"/>
      <point x="444.0" y="271"/>
      <point x="444.0" y="196.0" type="curve"/>
      <point x="444.0" y="130"/>
      <point x="399" y="81.0"/>
    </contour>
    <contour>
      <point x="300.0" y="350.0" type="curve" smooth="yes"/>
      <point x="441" y="350.0"/>
      <point x="535.0" y="418.0"/>
      <point x="535.0" y="517.0" type="curve" smooth="yes"/>
      <point x="535.0" y="628.0"/>
      <point x="441" y="700.0"/>
      <point x="300.0" y="700.0" type="curve" smooth="yes"/>
      <point x="160" y="700.0"/>
      <point x="66.0" y="628.0"/>
      <point x="66.0" y="517.0" type="curve" smooth="yes"/>
      <point x="66.0" y="418.0"/>
      <point x="160" y="350.0"/>
    </contour>
    <contour>
      <point x="300.0" y="407.0" type="curve" smooth="yes"/>
      <point x="220" y="407.0"/>
      <point x="172.0" y="450"/>
      <point x="172.0" y="512.0" type="curve" smooth="yes"/>
      <point x="172.0" y="570"/>
      <point x="220.0" y="609.0"/>
      <point x="300.0" y="609.0" type="curve" smooth="yes"/>
      <point x="381" y="609.0"/>
      <point x="429.0" y="570"/>
      <point x="429.0" y="512.0" type="curve" smooth="yes"/>
      <point x="429.0" y="450"/>
      <point x="381" y="407.0"/>
    </contour>
  </outline>
</glyph>
<glyph name="five.tab" format="2">
  <advance width="600"/>
  <outline>
    <contour>
      <point x="68" y="304" type="line"/>
      <point x="146" y="304" type="line"/>
      <point x="169" y="342.0"/>
      <point x="219" y="375.0"/>
      <point x="285.0" y="375.0" type="curve"/>
      <point x="380" y="375.0"/>
      <point x="431.0" y="309.0"/>
      <point x="431.0" y="223.0" type="curve"/>
      <point x="431.0" y="144"/>
      <point x="375" y="85.0"/>
      <point x="290.0" y="85.0" type="curve"/>
      <point x="217" y="85.0"/>
      <point x="166" y="129"/>
      <point x="157" y="204" type="curve"/>
      <point x="53" y="181" type="line"/>
      <point x="74" y="63.0"/>
      <point x="167" y="-10.0"/>
      <point x="289.0" y="-10.0" type="curve"/>
      <point x="442" y="-10.0"/>
      <point x="540.0" y="90.0"/>
      <point x="540.0" y="229.0" type="curve"/>
      <point x="540.0" y="366"/>
      <point x="444" y="464.0"/>
      <point x="314.0" y="464.0" type="curve"/>
      <point x="230" y="464.0"/>
      <point x="166" y="416"/>
      <point x="138.0" y="338.0" type="curve"/>
      <point x="155" y="338" type="line"/>
      <point x="187" y="638" type="line"/>
      <point x="142" y="590" type="line"/>
      <point x="510.0" y="590.0" type="line"/>
      <point x="510.0" y="690.0" type="line"/>
      <point x="102" y="690" type="line"/>
    </contour>
  </outline>
</glyph>
<glyph name="florin" format="2">
  <advance width="484"/>
  <outline>
    <contour>
      <point x="114.0" y="443.0" type="line"/>
      <point x="423.0" y="443.0" type="line"/>
      <point x="442.0" y="530.0" type="line"/>
      <point x="133.0" y="530.0" type="line"/>
    </contour>
    <contour>
      <point x="190.0" y="-21.0" type="curve"/>
      <point x="313.0" y="557.0" type="line" smooth="yes"/>
      <point x="324.0" y="610"/>
      <point x="355.0" y="636.0"/>
      <point x="403.0" y="636.0" type="curve"/>
      <point x="426.0" y="636.0"/>
      <point x="446.0" y="630.0"/>
      <point x="466.0" y="621.0" type="curve"/>
      <point x="484.0" y="708.0" type="line"/>
      <point x="458.0" y="718.0"/>
      <point x="430.0" y="725.0"/>
      <point x="398.0" y="725.0" type="curve"/>
      <point x="304.0" y="725.0"/>
      <point x="239.0" y="678"/>
      <point x="214.0" y="561.0" type="curve" smooth="yes"/>
      <point x="91.0" y="-17.0" type="line"/>
      <point x="80.0" y="-70.0"/>
      <point x="49.0" y="-96.0"/>
      <point x="1.0" y="-96.0" type="curve"/>
      <point x="-22.0" y="-96.0"/>
      <point x="-42.0" y="-90.0"/>
      <point x="-62.0" y="-81.0" type="curve"/>
      <point x="-80.0" y="-168.0" type="line"/>
      <point x="-54.0" y="-178.0"/>
      <point x="-26.0" y="-185.0"/>
      <point x="6.0" y="-185.0" type="curve"/>
      <point x="100.0" y="-185.0"/>
      <point x="165.0" y="-138.0"/>
    </contour>
  </outline>
</glyph>
<glyph name="four.tab" format="2">
  <advance width="600"/>
  <outline>
    <contour>
      <point x="31" y="193" type="line"/>
      <point x="31" y="141" type="line"/>
      <point x="566" y="141" type="line"/>
      <point x="566" y="237" type="line"/>
      <point x="71" y="237" type="line"/>
    </contour>
    <contour>
      <point x="361" y="0" type="line"/>
      <point x="466" y="0" type="line"/>
      <point x="466" y="690" type="line"/>
      <point x="361" y="690" type="line"/>
    </contour>
    <contour>
      <point x="31" y="193" type="line"/>
      <point x="133" y="193" type="line"/>
      <point x="403" y="690" type="line"/>
      <point x="301" y="690" type="line"/>
    </contour>
  </outline>
</glyph>
<glyph name="grave.cap" format="2">
  <advance width="500"/>
  <anchor x="250" y="690" name="_top"/>
  <outline>
    <contour>
      <point x="311" y="735" type="line"/>
      <point x="211" y="845" type="line"/>
      <point x="80" y="845" type="line"/>
      <point x="217" y="735" type="line"/>
    </contour>
  </outline>
</glyph>
<glyph name="hungarumlaut.cap" format="2">
  <advance width="500"/>
  <anchor x="250" y="690" name="_top"/>
  <outline>
    <contour>
      <point x="283" y="735" type="line"/>
      <point x="371" y="735" type="line"/>
      <point x="508" y="845" type="line"/>
      <point x="383" y="845" type="line"/>
    </contour>
    <contour>
      <point x="137" y="735" type="line"/>
      <point x="225" y="735" type="line"/>
      <point x="322" y="845" type="line"/>
      <point x="208" y="845" type="line"/>
    </contour>
  </outline>
</glyph>
<glyph name="macron.cap" format="2">
  <advance width="500"/>
  <anchor x="250" y="690" name="_top"/>
  <outline>
    <contour>
      <point x="92" y="753" type="line"/>
      <point x="408" y="753" type="line"/>
      <point x="408" y="837" type="line"/>
      <point x="92" y="837" type="line"/>
    </contour>
  </outline>
</glyph>
<glyph name="nine.tab" format="2">
  <advance width="600"/>
  <outline>
    <contour>
      <point x="437.0" y="404.0" type="line"/>
      <point x="439.0" y="383.0"/>
      <point x="440.0" y="359.0"/>
      <point x="440.0" y="325.0" type="curve"/>
      <point x="440.0" y="160.0"/>
      <point x="378.0" y="85.0"/>
      <point x="280.0" y="85" type="curve"/>
      <point x="217.0" y="85.0"/>
      <point x="169.16666666666666" y="117.0"/>
      <point x="147.0" y="175.0" type="curve"/>
      <point x="55.0" y="131.0" type="line"/>
      <point x="89.20814479638008" y="38.999999999999986"/>
      <point x="171.30769230769232" y="-10.0"/>
      <point x="271.0" y="-10" type="curve"/>
      <point x="444.8727915194346" y="-10.0"/>
      <point x="549.0" y="120.0"/>
      <point x="549.0" y="365.0" type="curve"/>
      <point x="549.0" y="594.0"/>
      <point x="442.0" y="700.0"/>
      <point x="288.0" y="700" type="curve"/>
      <point x="137.06772908366534" y="700.0"/>
      <point x="42.0" y="602.0"/>
      <point x="42.0" y="472.0" type="curve"/>
      <point x="42.0" y="338.0"/>
      <point x="141.0" y="253.0"/>
      <point x="258.0" y="253" type="curve"/>
      <point x="360.0" y="253.0"/>
      <point x="444.0" y="311.0"/>
      <point x="451.0" y="429.0" type="curve"/>
    </contour>
    <contour>
      <point x="291.0" y="346" type="curve"/>
      <point x="200.0" y="346.0"/>
      <point x="151.0" y="401.0"/>
      <point x="151.0" y="478.0" type="curve"/>
      <point x="151.0" y="546.0"/>
      <point x="202.0" y="605.0"/>
      <point x="286.0" y="605" type="curve"/>
      <point x="370.0" y="605.0"/>
      <point x="431.0" y="547.0"/>
      <point x="431.0" y="472.0" type="curve"/>
      <point x="431.0" y="403.0"/>
      <point x="372.0" y="346.0"/>
    </contour>
  </outline>
</glyph>
<glyph name="ring_acute.cap" format="2">
  <advance width="500"/>
  <anchor x="250" y="690" name="_top"/>
  <outline>
    <contour>
      <point x="206" y="925" type="line"/>
      <point x="284" y="925" type="line"/>
      <point x="397" y="1015" type="line"/>
      <point x="296" y="1015" type="line"/>
    </contour>
    <contour>
      <point x="250.0" y="790.0" type="curve" smooth="yes"/>
      <point x="229.0" y="790.0"/>
      <point x="216.0" y="803.7777777777778"/>
      <point x="216.0" y="821.0" type="curve" smooth="yes"/>
      <point x="216.0" y="839.1621621621622"/>
      <point x="229.0" y="853.0"/>
      <point x="250.0" y="853.0" type="curve" smooth="yes"/>
      <point x="271.0" y="853.0"/>
      <point x="284.0" y="839.1621621621622"/>
      <point x="284.0" y="821.0" type="curve" smooth="yes"/>
      <point x="284.0" y="803.7777777777778"/>
      <point x="271.0" y="790.0"/>
    </contour>
    <contour>
      <point x="250.0" y="735.0" type="curve" smooth="yes"/>
      <point x="306.0" y="735.0"/>
      <point x="347.0" y="769.021978021978"/>
      <point x="347.0" y="821.0" type="curve" smooth="yes"/>
      <point x="347.0" y="873.9565217391305"/>
      <point x="306.0" y="908.0"/>
      <point x="250.0" y="908.0" type="curve" smooth="yes"/>
      <point x="194.0" y="908.0"/>
      <point x="153.0" y="873.9565217391305"/>
      <point x="153.0" y="821.0" type="curve" smooth="yes"/>
      <point x="153.0" y="769.021978021978"/>
      <point x="194.0" y="735.0"/>
    </contour>
  </outline>
</glyph>
<glyph name="ring_acute" format="2">
  <advance width="500"/>
  <anchor x="250" y="530" name="_top"/>
  <outline>
    <contour>
      <point x="214" y="775" type="line"/>
      <point x="295" y="775" type="line"/>
      <point x="395" y="875" type="line"/>
      <point x="284" y="875" type="line"/>
    </contour>
    <contour>
      <point x="250.0" y="630.0" type="curve" smooth="yes"/>
      <point x="229.0" y="630.0"/>
      <point x="216.0" y="646"/>
      <point x="216.0" y="666.0" type="curve" smooth="yes"/>
      <point x="216.0" y="687"/>
      <point x="229.0" y="703.0"/>
      <point x="250.0" y="703.0" type="curve" smooth="yes"/>
      <point x="271.0" y="703.0"/>
      <point x="284.0" y="687"/>
      <point x="284.0" y="666.0" type="curve" smooth="yes"/>
      <point x="284.0" y="646"/>
      <point x="271.0" y="630.0"/>
    </contour>
    <contour>
      <point x="250.0" y="575.0" type="curve" smooth="yes"/>
      <point x="305.8804347826087" y="575.0"/>
      <point x="347.0" y="610.9767441860465"/>
      <point x="347.0" y="666.0" type="curve" smooth="yes"/>
      <point x="347.0" y="722.0459770114943"/>
      <point x="305.8804347826087" y="758.0"/>
      <point x="250.0" y="758.0" type="curve" smooth="yes"/>
      <point x="194.1195652173913" y="758.0"/>
      <point x="153.0" y="722.0459770114943"/>
      <point x="153.0" y="666.0" type="curve" smooth="yes"/>
      <point x="153.0" y="610.9767441860465"/>
      <point x="194.1195652173913" y="575.0"/>
    </contour>
  </outline>
</glyph>
<glyph name="seven.tab" format="2">
  <advance width="600"/>
  <outline>
    <contour>
      <point x="46" y="690" type="line"/>
      <point x="46" y="590" type="line"/>
      <point x="483.0" y="590.0" type="line"/>
      <point x="553.0" y="638.0" type="line"/>
      <point x="553.0" y="690.0" type="line"/>
    </contour>
    <contour>
      <point x="197" y="0" type="curve"/>
      <point x="316" y="0" type="line"/>
      <point x="317.0" y="212.0"/>
      <point x="382" y="415.0"/>
      <point x="553.0" y="638.0" type="curve"/>
      <point x="440.0" y="638.0" type="line"/>
      <point x="288.0" y="426.0"/>
      <point x="208.0" y="212.0"/>
    </contour>
  </outline>
</glyph>
<glyph name="six.tab" format="2">
  <advance width="600"/>
  <outline>
    <contour>
      <point x="163.0" y="286.0" type="line"/>
      <point x="161.0" y="307.0"/>
      <point x="160.0" y="331.0"/>
      <point x="160.0" y="365.0" type="curve"/>
      <point x="160.0" y="530.0"/>
      <point x="222" y="604.0"/>
      <point x="320.0" y="604" type="curve"/>
      <point x="383" y="604.0"/>
      <point x="431" y="573.0"/>
      <point x="453.0" y="515.0" type="curve"/>
      <point x="545.0" y="559.0" type="line"/>
      <point x="511" y="651.0"/>
      <point x="429" y="700.0"/>
      <point x="329.0" y="700" type="curve"/>
      <point x="155" y="700.0"/>
      <point x="51.0" y="570.0"/>
      <point x="51.0" y="325.0" type="curve"/>
      <point x="51.0" y="96"/>
      <point x="158" y="-10.0"/>
      <point x="312.0" y="-10" type="curve"/>
      <point x="463" y="-10.0"/>
      <point x="558.0" y="88.0"/>
      <point x="558.0" y="218.0" type="curve"/>
      <point x="558.0" y="352.0"/>
      <point x="459" y="437.0"/>
      <point x="342.0" y="437" type="curve"/>
      <point x="242" y="437.0"/>
      <point x="156" y="379.0"/>
      <point x="149.0" y="261.0" type="curve"/>
    </contour>
    <contour>
      <point x="309.0" y="344" type="curve"/>
      <point x="400" y="344.0"/>
      <point x="450.0" y="289.0"/>
      <point x="450.0" y="212.0" type="curve"/>
      <point x="450.0" y="144.0"/>
      <point x="398" y="85.0"/>
      <point x="314.0" y="85" type="curve"/>
      <point x="230" y="85.0"/>
      <point x="169.0" y="143.0"/>
      <point x="169.0" y="218.0" type="curve"/>
      <point x="169.0" y="287.0"/>
      <point x="228" y="344.0"/>
    </contour>
  </outline>
</glyph>
<glyph name="three.tab" format="2">
  <advance width="600"/>
  <outline>
    <contour>
      <point x="67.0" y="690.0" type="line"/>
      <point x="67.0" y="590.0" type="line"/>
      <point x="446.0" y="590.0" type="line"/>
      <point x="526.0" y="623.0" type="line"/>
      <point x="526.0" y="690.0" type="line"/>
    </contour>
    <contour>
      <point x="297.0" y="414.0" type="curve"/>
      <point x="284.0" y="381" type="line"/>
      <point x="526.0" y="623.0" type="line"/>
      <point x="411.0" y="638.0" type="line"/>
      <point x="202.0" y="417.0" type="line"/>
      <point x="202.0" y="352.0" type="line"/>
      <point x="279.0" y="352.0" type="line"/>
      <point x="384" y="352.0"/>
      <point x="431.0" y="300"/>
      <point x="431.0" y="217.0" type="curve"/>
      <point x="431.0" y="144"/>
      <point x="383" y="85.0"/>
      <point x="295.0" y="85.0" type="curve"/>
      <point x="215" y="85.0"/>
      <point x="161" y="129"/>
      <point x="152.0" y="224.0" type="curve"/>
      <point x="48.0" y="201.0" type="line"/>
      <point x="69" y="63.0"/>
      <point x="164" y="-10.0"/>
      <point x="296.0" y="-10.0" type="curve"/>
      <point x="450" y="-10.0"/>
      <point x="540.0" y="90"/>
      <point x="540.0" y="223.0" type="curve"/>
      <point x="540.0" y="348"/>
      <point x="452" y="428.0"/>
      <point x="351.0" y="428.0" type="curve"/>
      <point x="329.0" y="428.0"/>
      <point x="315.0" y="425"/>
    </contour>
  </outline>
</glyph>
<glyph name="tilde.cap" format="2">
  <advance width="500"/>
  <anchor x="250" y="690" name="_top"/>
  <outline>
    <contour>
      <point x="310.0" y="735.0" type="curve"/>
      <point x="367" y="735.0"/>
      <point x="403.3478260869565" y="777.4285714285713"/>
      <point x="410.0" y="845.0" type="curve"/>
      <point x="342.0" y="845.0" type="line"/>
      <point x="340.65517241379314" y="823.1052631578948"/>
      <point x="329" y="807.0"/>
      <point x="308.0" y="807.0" type="curve"/>
      <point x="278.0" y="807.0"/>
      <point x="247.0" y="845.0"/>
      <point x="190.0" y="845.0" type="curve"/>
      <point x="133" y="845.0"/>
      <point x="96.65217391304347" y="802.5714285714287"/>
      <point x="90.0" y="735.0" type="curve"/>
      <point x="158.0" y="735.0" type="line"/>
      <point x="159.34482758620692" y="756.8947368421052"/>
      <point x="171" y="773.0"/>
      <point x="192.0" y="773.0" type="curve"/>
      <point x="223.0" y="773.0"/>
      <point x="253.0" y="735.0"/>
    </contour>
  </outline>
</glyph>
<glyph name="two.tab" format="2">
  <advance width="600"/>
  <outline>
    <contour>
      <point x="522.0" y="499.0" type="curve"/>
      <point x="522.0" y="620.0"/>
      <point x="424" y="700.0"/>
      <point x="300.0" y="700.0" type="curve"/>
      <point x="172" y="700.0"/>
      <point x="77" y="623.0"/>
      <point x="59.0" y="473.0" type="curve"/>
      <point x="162.0" y="453.0" type="line"/>
      <point x="174" y="557.0"/>
      <point x="222" y="608.0"/>
      <point x="295.0" y="608.0" type="curve"/>
      <point x="366" y="608.0"/>
      <point x="413.0" y="566.0"/>
      <point x="413.0" y="493.0" type="curve"/>
      <point x="413.0" y="443.0"/>
      <point x="386.0" y="391.0"/>
      <point x="326.0" y="331.0" type="curve" smooth="yes"/>
      <point x="62.0" y="67.0" type="line"/>
      <point x="175.0" y="52.0" type="line"/>
      <point x="392.0" y="267.0" type="line" smooth="yes"/>
      <point x="475" y="350"/>
      <point x="522.0" y="403.0"/>
    </contour>
    <contour>
      <point x="541.0" y="0.0" type="line"/>
      <point x="541.0" y="100.0" type="line"/>
      <point x="142.0" y="100.0" type="line"/>
      <point x="62.0" y="67.0" type="line"/>
      <point x="62.0" y="0.0" type="line"/>
    </contour>
  </outline>
</glyph>
<glyph name="zero.tab" format="2">
  <advance width="600"/>
  <outline>
    <contour>
      <point x="300" y="-10" type="curve" smooth="yes"/>
      <point x="455" y="-10"/>
      <point x="555" y="113"/>
      <point x="555" y="345" type="curve" smooth="yes"/>
      <point x="555" y="578"/>
      <point x="455" y="700"/>
      <point x="300" y="700" type="curve" smooth="yes"/>
      <point x="146" y="700"/>
      <point x="45" y="578"/>
      <point x="45" y="345" type="curve" smooth="yes"/>
      <point x="45" y="113"/>
      <point x="146" y="-10"/>
    </contour>
    <contour>
      <point x="300" y="87" type="curve" smooth="yes"/>
      <point x="208" y="87"/>
      <point x="154" y="163"/>
      <point x="154" y="345" type="curve" smooth="yes"/>
      <point x="154" y="528"/>
      <point x="208" y="603"/>
      <point x="300" y="603" type="curve" smooth="yes"/>
      <point x="393" y="603"/>
      <point x="446" y="528"/>
      <point x="446" y="345" type="curve" smooth="yes"/>
      <point x="446" y="163"/>
      <point x="393" y="87"/>
    </contour>
  </outline>
</glyph>
